<svg width="460" height="329" viewBox="0 0 460 329" fill="none" xmlns="http://www.w3.org/2000/svg">
<path d="M121.747 135.021C129.399 111.471 144.309 90.9481 164.342 76.3936L233.262 171.254L121.747 135.021Z" fill="#5D225C"/>
<path d="M233.262 54C277.355 54 317.72 78.7356 337.737 118.022C357.754 157.309 354.04 204.504 328.123 240.175L233.262 171.255V54Z" fill="#ADD8E6"/>
<path d="M164.43 76.345C184.486 61.822 208.64 54 233.43 54V171L164.43 76.345Z" fill="#000036"/>
<path d="M164.342 266.115C123.246 236.257 106.049 183.332 121.747 135.021L233.263 171.254L164.342 266.115Z" fill="#FBA723"/>
<path d="M328.123 240.175C309.845 265.334 282.32 282.201 251.605 287.065C220.89 291.93 189.501 284.394 164.342 266.115L233.263 171.254L328.123 240.175Z" fill="#F9200D"/>
<line x1="336.666" y1="115.628" x2="377.915" y2="78.5803" stroke="white"/>
<line x1="271.382" y1="282.677" x2="303.52" y2="320.704" stroke="white"/>
<line x1="77.7385" y1="235.574" x2="121.738" y2="208.574" stroke="white"/>
<line x1="82.1687" y1="87.5293" x2="135.169" y2="106.529" stroke="white"/>
<line x1="167.441" y1="13.7652" x2="192.441" y2="60.7652" stroke="white"/>
<path d="M384.592 74.8447V79H383.688V73.7168H384.543L384.592 74.8447ZM384.377 76.1582L384.001 76.1436C384.004 75.7822 384.058 75.4486 384.162 75.1426C384.266 74.8333 384.413 74.5648 384.602 74.3369C384.79 74.109 385.015 73.9333 385.275 73.8096C385.539 73.6826 385.83 73.6191 386.149 73.6191C386.41 73.6191 386.644 73.6549 386.853 73.7266C387.061 73.7949 387.238 73.9056 387.385 74.0586C387.535 74.2116 387.648 74.4102 387.727 74.6543C387.805 74.8952 387.844 75.1898 387.844 75.5381V79H386.936V75.5283C386.936 75.2516 386.895 75.0303 386.813 74.8643C386.732 74.695 386.613 74.5729 386.457 74.498C386.301 74.4199 386.109 74.3809 385.881 74.3809C385.656 74.3809 385.451 74.4281 385.266 74.5225C385.083 74.6169 384.925 74.7471 384.792 74.9131C384.662 75.0791 384.559 75.2695 384.484 75.4844C384.413 75.696 384.377 75.9206 384.377 76.1582ZM391.408 79.0977C391.04 79.0977 390.707 79.0358 390.407 78.9121C390.111 78.7852 389.855 78.6077 389.641 78.3799C389.429 78.152 389.266 77.8818 389.152 77.5693C389.038 77.2568 388.981 76.915 388.981 76.5439V76.3389C388.981 75.9092 389.045 75.5267 389.172 75.1914C389.299 74.8529 389.471 74.5664 389.689 74.332C389.908 74.0977 390.155 73.9202 390.432 73.7998C390.708 73.6794 390.995 73.6191 391.291 73.6191C391.669 73.6191 391.994 73.6842 392.268 73.8145C392.544 73.9447 392.771 74.127 392.946 74.3613C393.122 74.5924 393.252 74.8659 393.337 75.1816C393.422 75.4941 393.464 75.8359 393.464 76.207V76.6123H389.519V75.875H392.561V75.8066C392.548 75.5723 392.499 75.3444 392.414 75.123C392.333 74.9017 392.202 74.7194 392.023 74.5762C391.844 74.4329 391.6 74.3613 391.291 74.3613C391.086 74.3613 390.897 74.4053 390.725 74.4932C390.552 74.5778 390.404 74.7048 390.28 74.874C390.157 75.0433 390.061 75.25 389.992 75.4941C389.924 75.7383 389.89 76.0199 389.89 76.3389V76.5439C389.89 76.7946 389.924 77.0306 389.992 77.252C390.064 77.4701 390.166 77.6621 390.3 77.8281C390.437 77.9941 390.601 78.1243 390.793 78.2188C390.988 78.3132 391.21 78.3604 391.457 78.3604C391.776 78.3604 392.046 78.2952 392.268 78.165C392.489 78.0348 392.683 77.8607 392.849 77.6426L393.396 78.0771C393.282 78.2497 393.137 78.4141 392.961 78.5703C392.785 78.7266 392.569 78.8535 392.312 78.9512C392.058 79.0488 391.757 79.0977 391.408 79.0977ZM397.751 77.7793V73.7168H398.659V79H397.795L397.751 77.7793ZM397.922 76.666L398.298 76.6562C398.298 77.0078 398.26 77.3333 398.186 77.6328C398.114 77.929 397.997 78.1862 397.834 78.4043C397.671 78.6224 397.458 78.7933 397.194 78.917C396.931 79.0374 396.61 79.0977 396.232 79.0977C395.975 79.0977 395.739 79.0602 395.524 78.9854C395.313 78.9105 395.131 78.7949 394.978 78.6387C394.825 78.4824 394.706 78.279 394.621 78.0283C394.54 77.7777 394.499 77.4766 394.499 77.125V73.7168H395.402V77.1348C395.402 77.3724 395.428 77.5693 395.48 77.7256C395.536 77.8786 395.609 78.0007 395.7 78.0918C395.795 78.1797 395.899 78.2415 396.013 78.2773C396.13 78.3132 396.25 78.3311 396.374 78.3311C396.758 78.3311 397.062 78.2578 397.287 78.1113C397.512 77.9616 397.673 77.7614 397.771 77.5107C397.871 77.2568 397.922 76.9753 397.922 76.666ZM402.248 73.7168V74.4102H399.392V73.7168H402.248ZM400.358 72.4326H401.262V77.6914C401.262 77.8704 401.289 78.0055 401.345 78.0967C401.4 78.1878 401.472 78.248 401.56 78.2773C401.647 78.3066 401.742 78.3213 401.843 78.3213C401.918 78.3213 401.996 78.3148 402.077 78.3018C402.162 78.2855 402.225 78.2725 402.268 78.2627L402.272 79C402.201 79.0228 402.106 79.0439 401.989 79.0635C401.875 79.0863 401.737 79.0977 401.574 79.0977C401.353 79.0977 401.149 79.0537 400.964 78.9658C400.778 78.8779 400.63 78.7314 400.52 78.5264C400.412 78.318 400.358 78.0381 400.358 77.6865V72.4326ZM404.211 74.5469V79H403.308V73.7168H404.187L404.211 74.5469ZM405.861 73.6875L405.856 74.5273C405.782 74.5111 405.71 74.5013 405.642 74.498C405.576 74.4915 405.502 74.4883 405.417 74.4883C405.209 74.4883 405.025 74.5208 404.865 74.5859C404.706 74.651 404.571 74.7422 404.46 74.8594C404.349 74.9766 404.261 75.1165 404.196 75.2793C404.134 75.4388 404.094 75.6146 404.074 75.8066L403.82 75.9531C403.82 75.6341 403.851 75.3346 403.913 75.0547C403.978 74.7747 404.077 74.5273 404.211 74.3125C404.344 74.0944 404.514 73.9251 404.719 73.8047C404.927 73.681 405.174 73.6191 405.461 73.6191C405.526 73.6191 405.601 73.6273 405.686 73.6436C405.77 73.6566 405.829 73.6712 405.861 73.6875ZM409.616 78.0967V75.377C409.616 75.1686 409.574 74.988 409.489 74.835C409.408 74.6787 409.284 74.5583 409.118 74.4736C408.952 74.389 408.747 74.3467 408.503 74.3467C408.275 74.3467 408.075 74.3857 407.902 74.4639C407.733 74.542 407.6 74.6445 407.502 74.7715C407.408 74.8984 407.36 75.0352 407.36 75.1816H406.457C406.457 74.9928 406.506 74.8057 406.604 74.6201C406.701 74.4346 406.841 74.2669 407.023 74.1172C407.209 73.9642 407.43 73.8438 407.688 73.7559C407.948 73.6647 408.238 73.6191 408.557 73.6191C408.941 73.6191 409.279 73.6842 409.572 73.8145C409.868 73.9447 410.1 74.1416 410.266 74.4053C410.435 74.6657 410.52 74.9928 410.52 75.3867V77.8477C410.52 78.0234 410.534 78.2106 410.563 78.4092C410.596 78.6077 410.643 78.7786 410.705 78.9219V79H409.763C409.717 78.8958 409.681 78.7575 409.655 78.585C409.629 78.4092 409.616 78.2464 409.616 78.0967ZM409.772 75.7969L409.782 76.4316H408.869C408.612 76.4316 408.382 76.4528 408.181 76.4951C407.979 76.5342 407.81 76.5944 407.673 76.6758C407.536 76.7572 407.432 76.8597 407.36 76.9834C407.289 77.1038 407.253 77.2454 407.253 77.4082C407.253 77.5742 407.29 77.7256 407.365 77.8623C407.44 77.999 407.552 78.1081 407.702 78.1895C407.855 78.2676 408.042 78.3066 408.264 78.3066C408.54 78.3066 408.785 78.248 408.996 78.1309C409.208 78.0137 409.375 77.8704 409.499 77.7012C409.626 77.5319 409.694 77.3675 409.704 77.208L410.09 77.6426C410.067 77.7793 410.005 77.9307 409.904 78.0967C409.803 78.2627 409.668 78.4222 409.499 78.5752C409.333 78.7249 409.134 78.8503 408.903 78.9512C408.675 79.0488 408.418 79.0977 408.132 79.0977C407.774 79.0977 407.46 79.0277 407.189 78.8877C406.923 78.7477 406.714 78.5605 406.564 78.3262C406.418 78.0885 406.345 77.8232 406.345 77.5303C406.345 77.2471 406.4 76.998 406.511 76.7832C406.621 76.5651 406.781 76.3844 406.989 76.2412C407.198 76.0947 407.448 75.984 407.741 75.9092C408.034 75.8343 408.361 75.7969 408.723 75.7969H409.772ZM412.922 71.5V79H412.014V71.5H412.922ZM416.818 76.1582V76.1094C416.818 75.3997 416.898 74.7585 417.058 74.1855C417.217 73.6094 417.421 73.1048 417.668 72.6719C417.915 72.2389 418.176 71.8809 418.449 71.5977C418.723 71.3112 418.975 71.1045 419.206 70.9775L419.396 71.5732C419.204 71.7197 419.009 71.9215 418.811 72.1787C418.615 72.4359 418.435 72.7516 418.269 73.126C418.106 73.5003 417.974 73.9349 417.873 74.4297C417.772 74.9245 417.722 75.4811 417.722 76.0996V76.168C417.722 76.7865 417.772 77.3447 417.873 77.8428C417.974 78.3376 418.106 78.7738 418.269 79.1514C418.435 79.529 418.615 79.8496 418.811 80.1133C419.009 80.3802 419.204 80.5918 419.396 80.748L419.206 81.2949C418.975 81.168 418.723 80.9613 418.449 80.6748C418.176 80.3916 417.915 80.0335 417.668 79.6006C417.421 79.1709 417.217 78.668 417.058 78.0918C416.898 77.5156 416.818 76.8711 416.818 76.1582ZM421.501 75.001H422.146C422.461 75.001 422.722 74.9489 422.927 74.8447C423.135 74.7373 423.29 74.5924 423.391 74.4102C423.495 74.2246 423.547 74.0163 423.547 73.7852C423.547 73.5117 423.501 73.2822 423.41 73.0967C423.319 72.9111 423.182 72.7712 423 72.6768C422.818 72.5824 422.587 72.5352 422.307 72.5352C422.053 72.5352 421.828 72.5856 421.633 72.6865C421.441 72.7842 421.289 72.9242 421.179 73.1064C421.071 73.2887 421.018 73.5036 421.018 73.751H420.114C420.114 73.3896 420.205 73.0609 420.388 72.7646C420.57 72.4684 420.826 72.2324 421.154 72.0566C421.486 71.8809 421.87 71.793 422.307 71.793C422.736 71.793 423.112 71.8695 423.435 72.0225C423.757 72.1722 424.007 72.3968 424.187 72.6963C424.366 72.9925 424.455 73.362 424.455 73.8047C424.455 73.9837 424.413 74.1758 424.328 74.3809C424.247 74.5827 424.118 74.7715 423.942 74.9473C423.77 75.123 423.545 75.2679 423.269 75.3818C422.992 75.4925 422.66 75.5479 422.272 75.5479H421.501V75.001ZM421.501 75.7432V75.2012H422.272C422.725 75.2012 423.099 75.2549 423.396 75.3623C423.692 75.4697 423.924 75.613 424.094 75.792C424.266 75.971 424.387 76.168 424.455 76.3828C424.527 76.5944 424.562 76.806 424.562 77.0176C424.562 77.3496 424.506 77.6442 424.392 77.9014C424.281 78.1585 424.123 78.3766 423.918 78.5557C423.716 78.7347 423.479 78.8698 423.205 78.9609C422.932 79.0521 422.634 79.0977 422.312 79.0977C422.002 79.0977 421.711 79.0537 421.438 78.9658C421.167 78.8779 420.928 78.751 420.72 78.585C420.511 78.4157 420.349 78.209 420.231 77.9648C420.114 77.7174 420.056 77.4359 420.056 77.1201H420.959C420.959 77.3675 421.013 77.584 421.12 77.7695C421.231 77.9551 421.387 78.0999 421.589 78.2041C421.794 78.305 422.035 78.3555 422.312 78.3555C422.588 78.3555 422.826 78.3083 423.024 78.2139C423.226 78.1162 423.381 77.9697 423.488 77.7744C423.599 77.5791 423.654 77.3333 423.654 77.0371C423.654 76.7409 423.592 76.4984 423.469 76.3096C423.345 76.1175 423.169 75.9759 422.941 75.8848C422.717 75.7904 422.451 75.7432 422.146 75.7432H421.501ZM426.95 75.6162L426.228 75.4307L426.584 71.8906H430.231V72.7256H427.351L427.136 74.6592C427.266 74.5843 427.43 74.5143 427.629 74.4492C427.831 74.3841 428.062 74.3516 428.322 74.3516C428.651 74.3516 428.946 74.4085 429.206 74.5225C429.466 74.6331 429.688 74.7926 429.87 75.001C430.056 75.2093 430.197 75.46 430.295 75.7529C430.393 76.0459 430.441 76.373 430.441 76.7344C430.441 77.0762 430.394 77.3903 430.3 77.6768C430.209 77.9632 430.07 78.2139 429.885 78.4287C429.699 78.6403 429.465 78.8047 429.182 78.9219C428.902 79.0391 428.571 79.0977 428.19 79.0977C427.904 79.0977 427.632 79.0586 427.375 78.9805C427.121 78.8991 426.893 78.777 426.691 78.6143C426.493 78.4482 426.33 78.2432 426.203 77.999C426.079 77.7516 426.001 77.4619 425.969 77.1299H426.828C426.867 77.3968 426.945 77.6214 427.062 77.8037C427.18 77.986 427.333 78.1243 427.521 78.2188C427.714 78.3099 427.937 78.3555 428.19 78.3555C428.405 78.3555 428.596 78.318 428.762 78.2432C428.928 78.1683 429.068 78.0609 429.182 77.9209C429.296 77.7809 429.382 77.6117 429.44 77.4131C429.502 77.2145 429.533 76.9915 429.533 76.7441C429.533 76.5195 429.502 76.3112 429.44 76.1191C429.379 75.9271 429.286 75.7594 429.162 75.6162C429.042 75.473 428.894 75.3623 428.718 75.2842C428.542 75.2028 428.34 75.1621 428.112 75.1621C427.81 75.1621 427.58 75.2028 427.424 75.2842C427.271 75.3656 427.113 75.4762 426.95 75.6162ZM431.354 73.6338V73.2578C431.354 72.9876 431.413 72.7419 431.53 72.5205C431.647 72.2992 431.815 72.1217 432.033 71.9883C432.251 71.8548 432.51 71.7881 432.81 71.7881C433.116 71.7881 433.376 71.8548 433.591 71.9883C433.809 72.1217 433.977 72.2992 434.094 72.5205C434.211 72.7419 434.27 72.9876 434.27 73.2578V73.6338C434.27 73.8975 434.211 74.14 434.094 74.3613C433.98 74.5827 433.814 74.7601 433.596 74.8936C433.381 75.027 433.122 75.0938 432.819 75.0938C432.517 75.0938 432.255 75.027 432.033 74.8936C431.815 74.7601 431.647 74.5827 431.53 74.3613C431.413 74.14 431.354 73.8975 431.354 73.6338ZM432.033 73.2578V73.6338C432.033 73.7835 432.061 73.9251 432.116 74.0586C432.175 74.1921 432.263 74.3011 432.38 74.3857C432.497 74.4671 432.644 74.5078 432.819 74.5078C432.995 74.5078 433.14 74.4671 433.254 74.3857C433.368 74.3011 433.452 74.1921 433.508 74.0586C433.563 73.9251 433.591 73.7835 433.591 73.6338V73.2578C433.591 73.1048 433.562 72.9616 433.503 72.8281C433.448 72.6914 433.361 72.5824 433.244 72.501C433.13 72.4163 432.985 72.374 432.81 72.374C432.637 72.374 432.492 72.4163 432.375 72.501C432.261 72.5824 432.175 72.6914 432.116 72.8281C432.061 72.9616 432.033 73.1048 432.033 73.2578ZM434.816 77.6377V77.2568C434.816 76.9899 434.875 76.7458 434.992 76.5244C435.109 76.3031 435.277 76.1257 435.495 75.9922C435.713 75.8587 435.972 75.792 436.271 75.792C436.577 75.792 436.838 75.8587 437.053 75.9922C437.271 76.1257 437.438 76.3031 437.556 76.5244C437.673 76.7458 437.731 76.9899 437.731 77.2568V77.6377C437.731 77.9046 437.673 78.1488 437.556 78.3701C437.442 78.5915 437.276 78.7689 437.058 78.9023C436.843 79.0358 436.584 79.1025 436.281 79.1025C435.979 79.1025 435.718 79.0358 435.5 78.9023C435.282 78.7689 435.113 78.5915 434.992 78.3701C434.875 78.1488 434.816 77.9046 434.816 77.6377ZM435.495 77.2568V77.6377C435.495 77.7874 435.523 77.9307 435.578 78.0674C435.637 78.2008 435.725 78.3099 435.842 78.3945C435.959 78.4759 436.105 78.5166 436.281 78.5166C436.457 78.5166 436.602 78.4759 436.716 78.3945C436.833 78.3099 436.919 78.2008 436.975 78.0674C437.03 77.9339 437.058 77.7907 437.058 77.6377V77.2568C437.058 77.1038 437.028 76.9606 436.97 76.8271C436.914 76.6937 436.828 76.5863 436.711 76.5049C436.597 76.4202 436.451 76.3779 436.271 76.3779C436.099 76.3779 435.954 76.4202 435.837 76.5049C435.723 76.5863 435.637 76.6937 435.578 76.8271C435.523 76.9606 435.495 77.1038 435.495 77.2568ZM436.496 72.9014L433.024 78.458L432.517 78.1357L435.988 72.5791L436.496 72.9014ZM440.935 76.1094V76.1582C440.935 76.8711 440.855 77.5156 440.695 78.0918C440.536 78.668 440.332 79.1709 440.085 79.6006C439.838 80.0335 439.577 80.3916 439.304 80.6748C439.03 80.9613 438.778 81.168 438.547 81.2949L438.356 80.748C438.549 80.6016 438.742 80.3965 438.938 80.1328C439.133 79.8724 439.313 79.5501 439.479 79.166C439.646 78.7852 439.779 78.3457 439.88 77.8477C439.981 77.3464 440.031 76.7865 440.031 76.168V76.0996C440.031 75.4811 439.978 74.9229 439.87 74.4248C439.763 73.9235 439.623 73.4824 439.45 73.1016C439.281 72.7207 439.099 72.4001 438.903 72.1396C438.711 71.876 438.529 71.6725 438.356 71.5293L438.547 70.9775C438.778 71.1045 439.03 71.3112 439.304 71.5977C439.577 71.8809 439.838 72.2389 440.085 72.6719C440.332 73.1048 440.536 73.6094 440.695 74.1855C440.855 74.7585 440.935 75.3997 440.935 76.1094Z" fill="white"/>
<path d="M307.67 317.5V325H306.762V317.5H307.67ZM308.881 322.417V322.305C308.881 321.924 308.936 321.571 309.047 321.245C309.158 320.916 309.317 320.632 309.525 320.391C309.734 320.146 309.986 319.958 310.282 319.824C310.578 319.688 310.91 319.619 311.278 319.619C311.649 319.619 311.983 319.688 312.279 319.824C312.579 319.958 312.833 320.146 313.041 320.391C313.253 320.632 313.414 320.916 313.524 321.245C313.635 321.571 313.69 321.924 313.69 322.305V322.417C313.69 322.798 313.635 323.151 313.524 323.477C313.414 323.802 313.253 324.087 313.041 324.331C312.833 324.572 312.58 324.761 312.284 324.897C311.991 325.031 311.659 325.098 311.288 325.098C310.917 325.098 310.583 325.031 310.287 324.897C309.991 324.761 309.737 324.572 309.525 324.331C309.317 324.087 309.158 323.802 309.047 323.477C308.936 323.151 308.881 322.798 308.881 322.417ZM309.784 322.305V322.417C309.784 322.681 309.815 322.93 309.877 323.164C309.939 323.395 310.032 323.6 310.155 323.779C310.282 323.958 310.44 324.1 310.629 324.204C310.818 324.305 311.037 324.355 311.288 324.355C311.535 324.355 311.752 324.305 311.938 324.204C312.126 324.1 312.283 323.958 312.406 323.779C312.53 323.6 312.623 323.395 312.685 323.164C312.75 322.93 312.782 322.681 312.782 322.417V322.305C312.782 322.044 312.75 321.799 312.685 321.567C312.623 321.333 312.528 321.126 312.401 320.947C312.278 320.765 312.121 320.622 311.933 320.518C311.747 320.413 311.529 320.361 311.278 320.361C311.031 320.361 310.813 320.413 310.624 320.518C310.438 320.622 310.282 320.765 310.155 320.947C310.032 321.126 309.939 321.333 309.877 321.567C309.815 321.799 309.784 322.044 309.784 322.305ZM316.352 324.185L317.797 319.717H318.72L316.82 325H316.215L316.352 324.185ZM315.146 319.717L316.635 324.209L316.737 325H316.132L314.218 319.717H315.146ZM321.713 325.098C321.345 325.098 321.011 325.036 320.712 324.912C320.416 324.785 320.16 324.608 319.945 324.38C319.734 324.152 319.571 323.882 319.457 323.569C319.343 323.257 319.286 322.915 319.286 322.544V322.339C319.286 321.909 319.35 321.527 319.477 321.191C319.604 320.853 319.776 320.566 319.994 320.332C320.212 320.098 320.46 319.92 320.736 319.8C321.013 319.679 321.299 319.619 321.596 319.619C321.973 319.619 322.299 319.684 322.572 319.814C322.849 319.945 323.075 320.127 323.251 320.361C323.427 320.592 323.557 320.866 323.642 321.182C323.726 321.494 323.769 321.836 323.769 322.207V322.612H319.823V321.875H322.865V321.807C322.852 321.572 322.803 321.344 322.719 321.123C322.637 320.902 322.507 320.719 322.328 320.576C322.149 320.433 321.905 320.361 321.596 320.361C321.391 320.361 321.202 320.405 321.029 320.493C320.857 320.578 320.709 320.705 320.585 320.874C320.461 321.043 320.365 321.25 320.297 321.494C320.229 321.738 320.194 322.02 320.194 322.339V322.544C320.194 322.795 320.229 323.031 320.297 323.252C320.368 323.47 320.471 323.662 320.604 323.828C320.741 323.994 320.906 324.124 321.098 324.219C321.293 324.313 321.514 324.36 321.762 324.36C322.081 324.36 322.351 324.295 322.572 324.165C322.794 324.035 322.987 323.861 323.153 323.643L323.7 324.077C323.586 324.25 323.441 324.414 323.266 324.57C323.09 324.727 322.873 324.854 322.616 324.951C322.362 325.049 322.061 325.098 321.713 325.098ZM327.27 322.158V322.109C327.27 321.4 327.349 320.758 327.509 320.186C327.668 319.609 327.872 319.105 328.119 318.672C328.367 318.239 328.627 317.881 328.9 317.598C329.174 317.311 329.426 317.104 329.657 316.978L329.848 317.573C329.656 317.72 329.46 317.922 329.262 318.179C329.066 318.436 328.886 318.752 328.72 319.126C328.557 319.5 328.425 319.935 328.324 320.43C328.223 320.924 328.173 321.481 328.173 322.1V322.168C328.173 322.786 328.223 323.345 328.324 323.843C328.425 324.338 328.557 324.774 328.72 325.151C328.886 325.529 329.066 325.85 329.262 326.113C329.46 326.38 329.656 326.592 329.848 326.748L329.657 327.295C329.426 327.168 329.174 326.961 328.9 326.675C328.627 326.392 328.367 326.034 328.119 325.601C327.872 325.171 327.668 324.668 327.509 324.092C327.349 323.516 327.27 322.871 327.27 322.158ZM335.292 324.258V325H330.639V324.351L332.968 321.758C333.254 321.439 333.476 321.169 333.632 320.947C333.791 320.723 333.902 320.522 333.964 320.347C334.029 320.168 334.062 319.985 334.062 319.8C334.062 319.565 334.013 319.354 333.915 319.165C333.821 318.973 333.681 318.82 333.495 318.706C333.31 318.592 333.085 318.535 332.821 318.535C332.506 318.535 332.242 318.597 332.03 318.721C331.822 318.841 331.666 319.01 331.562 319.229C331.457 319.447 331.405 319.697 331.405 319.98H330.502C330.502 319.58 330.59 319.214 330.766 318.882C330.941 318.55 331.202 318.286 331.547 318.091C331.892 317.892 332.317 317.793 332.821 317.793C333.271 317.793 333.655 317.873 333.974 318.032C334.293 318.188 334.537 318.41 334.706 318.696C334.879 318.979 334.965 319.312 334.965 319.692C334.965 319.901 334.929 320.112 334.857 320.327C334.789 320.539 334.693 320.75 334.569 320.962C334.449 321.174 334.307 321.382 334.145 321.587C333.985 321.792 333.814 321.994 333.632 322.192L331.728 324.258H335.292ZM337.401 321.616L336.679 321.431L337.035 317.891H340.683V318.726H337.802L337.587 320.659C337.717 320.584 337.882 320.514 338.08 320.449C338.282 320.384 338.513 320.352 338.773 320.352C339.102 320.352 339.397 320.409 339.657 320.522C339.918 320.633 340.139 320.793 340.321 321.001C340.507 321.209 340.648 321.46 340.746 321.753C340.844 322.046 340.893 322.373 340.893 322.734C340.893 323.076 340.845 323.39 340.751 323.677C340.66 323.963 340.521 324.214 340.336 324.429C340.15 324.64 339.916 324.805 339.633 324.922C339.353 325.039 339.022 325.098 338.642 325.098C338.355 325.098 338.083 325.059 337.826 324.98C337.572 324.899 337.344 324.777 337.143 324.614C336.944 324.448 336.781 324.243 336.654 323.999C336.531 323.752 336.452 323.462 336.42 323.13H337.279C337.318 323.397 337.396 323.621 337.514 323.804C337.631 323.986 337.784 324.124 337.973 324.219C338.165 324.31 338.388 324.355 338.642 324.355C338.856 324.355 339.047 324.318 339.213 324.243C339.379 324.168 339.519 324.061 339.633 323.921C339.747 323.781 339.833 323.612 339.892 323.413C339.953 323.215 339.984 322.992 339.984 322.744C339.984 322.52 339.953 322.311 339.892 322.119C339.83 321.927 339.737 321.759 339.613 321.616C339.493 321.473 339.345 321.362 339.169 321.284C338.993 321.203 338.791 321.162 338.563 321.162C338.261 321.162 338.031 321.203 337.875 321.284C337.722 321.366 337.564 321.476 337.401 321.616ZM341.806 319.634V319.258C341.806 318.988 341.864 318.742 341.981 318.521C342.099 318.299 342.266 318.122 342.484 317.988C342.702 317.855 342.961 317.788 343.261 317.788C343.567 317.788 343.827 317.855 344.042 317.988C344.26 318.122 344.428 318.299 344.545 318.521C344.662 318.742 344.721 318.988 344.721 319.258V319.634C344.721 319.897 344.662 320.14 344.545 320.361C344.431 320.583 344.265 320.76 344.047 320.894C343.832 321.027 343.573 321.094 343.271 321.094C342.968 321.094 342.706 321.027 342.484 320.894C342.266 320.76 342.099 320.583 341.981 320.361C341.864 320.14 341.806 319.897 341.806 319.634ZM342.484 319.258V319.634C342.484 319.784 342.512 319.925 342.567 320.059C342.626 320.192 342.714 320.301 342.831 320.386C342.948 320.467 343.095 320.508 343.271 320.508C343.446 320.508 343.591 320.467 343.705 320.386C343.819 320.301 343.904 320.192 343.959 320.059C344.014 319.925 344.042 319.784 344.042 319.634V319.258C344.042 319.105 344.013 318.962 343.954 318.828C343.899 318.691 343.812 318.582 343.695 318.501C343.581 318.416 343.437 318.374 343.261 318.374C343.088 318.374 342.943 318.416 342.826 318.501C342.712 318.582 342.626 318.691 342.567 318.828C342.512 318.962 342.484 319.105 342.484 319.258ZM345.268 323.638V323.257C345.268 322.99 345.326 322.746 345.443 322.524C345.561 322.303 345.728 322.126 345.946 321.992C346.164 321.859 346.423 321.792 346.723 321.792C347.029 321.792 347.289 321.859 347.504 321.992C347.722 322.126 347.89 322.303 348.007 322.524C348.124 322.746 348.183 322.99 348.183 323.257V323.638C348.183 323.905 348.124 324.149 348.007 324.37C347.893 324.591 347.727 324.769 347.509 324.902C347.294 325.036 347.035 325.103 346.732 325.103C346.43 325.103 346.169 325.036 345.951 324.902C345.733 324.769 345.564 324.591 345.443 324.37C345.326 324.149 345.268 323.905 345.268 323.638ZM345.946 323.257V323.638C345.946 323.787 345.974 323.931 346.029 324.067C346.088 324.201 346.176 324.31 346.293 324.395C346.41 324.476 346.557 324.517 346.732 324.517C346.908 324.517 347.053 324.476 347.167 324.395C347.284 324.31 347.37 324.201 347.426 324.067C347.481 323.934 347.509 323.791 347.509 323.638V323.257C347.509 323.104 347.479 322.961 347.421 322.827C347.366 322.694 347.279 322.586 347.162 322.505C347.048 322.42 346.902 322.378 346.723 322.378C346.55 322.378 346.405 322.42 346.288 322.505C346.174 322.586 346.088 322.694 346.029 322.827C345.974 322.961 345.946 323.104 345.946 323.257ZM346.947 318.901L343.476 324.458L342.968 324.136L346.439 318.579L346.947 318.901ZM351.386 322.109V322.158C351.386 322.871 351.306 323.516 351.146 324.092C350.987 324.668 350.784 325.171 350.536 325.601C350.289 326.034 350.028 326.392 349.755 326.675C349.481 326.961 349.229 327.168 348.998 327.295L348.808 326.748C349 326.602 349.193 326.396 349.389 326.133C349.584 325.872 349.765 325.55 349.931 325.166C350.097 324.785 350.23 324.346 350.331 323.848C350.432 323.346 350.482 322.786 350.482 322.168V322.1C350.482 321.481 350.429 320.923 350.321 320.425C350.214 319.924 350.074 319.482 349.901 319.102C349.732 318.721 349.55 318.4 349.354 318.14C349.162 317.876 348.98 317.673 348.808 317.529L348.998 316.978C349.229 317.104 349.481 317.311 349.755 317.598C350.028 317.881 350.289 318.239 350.536 318.672C350.784 319.105 350.987 319.609 351.146 320.186C351.306 320.758 351.386 321.4 351.386 322.109Z" fill="white"/>
<path d="M3.80371 239.097V236.377C3.80371 236.169 3.76139 235.988 3.67676 235.835C3.59538 235.679 3.47168 235.558 3.30566 235.474C3.13965 235.389 2.93457 235.347 2.69043 235.347C2.46257 235.347 2.26237 235.386 2.08984 235.464C1.92057 235.542 1.78711 235.645 1.68945 235.771C1.59505 235.898 1.54785 236.035 1.54785 236.182H0.644531C0.644531 235.993 0.693359 235.806 0.791016 235.62C0.888672 235.435 1.02865 235.267 1.21094 235.117C1.39648 234.964 1.61784 234.844 1.875 234.756C2.13542 234.665 2.42513 234.619 2.74414 234.619C3.12826 234.619 3.4668 234.684 3.75977 234.814C4.05599 234.945 4.28711 235.142 4.45312 235.405C4.6224 235.666 4.70703 235.993 4.70703 236.387V238.848C4.70703 239.023 4.72168 239.211 4.75098 239.409C4.78353 239.608 4.83073 239.779 4.89258 239.922V240H3.9502C3.90462 239.896 3.86882 239.757 3.84277 239.585C3.81673 239.409 3.80371 239.246 3.80371 239.097ZM3.95996 236.797L3.96973 237.432H3.05664C2.79948 237.432 2.56999 237.453 2.36816 237.495C2.16634 237.534 1.99707 237.594 1.86035 237.676C1.72363 237.757 1.61947 237.86 1.54785 237.983C1.47624 238.104 1.44043 238.245 1.44043 238.408C1.44043 238.574 1.47786 238.726 1.55273 238.862C1.6276 238.999 1.73991 239.108 1.88965 239.189C2.04264 239.268 2.22982 239.307 2.45117 239.307C2.72786 239.307 2.97201 239.248 3.18359 239.131C3.39518 239.014 3.56283 238.87 3.68652 238.701C3.81348 238.532 3.88184 238.368 3.8916 238.208L4.27734 238.643C4.25456 238.779 4.19271 238.931 4.0918 239.097C3.99089 239.263 3.85579 239.422 3.68652 239.575C3.52051 239.725 3.32194 239.85 3.09082 239.951C2.86296 240.049 2.60579 240.098 2.31934 240.098C1.96126 240.098 1.64714 240.028 1.37695 239.888C1.11003 239.748 0.901693 239.561 0.751953 239.326C0.605469 239.089 0.532227 238.823 0.532227 238.53C0.532227 238.247 0.587565 237.998 0.698242 237.783C0.808919 237.565 0.968424 237.384 1.17676 237.241C1.38509 237.095 1.63574 236.984 1.92871 236.909C2.22168 236.834 2.54883 236.797 2.91016 236.797H3.95996ZM9.45801 238.975V232.5H10.3662V240H9.53613L9.45801 238.975ZM5.90332 237.417V237.314C5.90332 236.911 5.95215 236.545 6.0498 236.216C6.15072 235.884 6.29232 235.599 6.47461 235.361C6.66016 235.124 6.87988 234.941 7.13379 234.814C7.39095 234.684 7.67741 234.619 7.99316 234.619C8.3252 234.619 8.61491 234.678 8.8623 234.795C9.11296 234.909 9.32454 235.076 9.49707 235.298C9.67285 235.516 9.8112 235.78 9.91211 236.089C10.013 236.398 10.083 236.748 10.1221 237.139V237.588C10.0863 237.975 10.0163 238.324 9.91211 238.633C9.8112 238.942 9.67285 239.206 9.49707 239.424C9.32454 239.642 9.11296 239.81 8.8623 239.927C8.61165 240.041 8.31868 240.098 7.9834 240.098C7.67415 240.098 7.39095 240.031 7.13379 239.897C6.87988 239.764 6.66016 239.577 6.47461 239.336C6.29232 239.095 6.15072 238.812 6.0498 238.486C5.95215 238.158 5.90332 237.801 5.90332 237.417ZM6.81152 237.314V237.417C6.81152 237.681 6.83757 237.928 6.88965 238.159C6.94499 238.39 7.02962 238.594 7.14355 238.77C7.25749 238.945 7.40234 239.084 7.57812 239.185C7.75391 239.282 7.96387 239.331 8.20801 239.331C8.50749 239.331 8.75326 239.268 8.94531 239.141C9.14062 239.014 9.29688 238.846 9.41406 238.638C9.53125 238.429 9.6224 238.203 9.6875 237.959V236.782C9.64844 236.603 9.59147 236.431 9.5166 236.265C9.44499 236.095 9.35059 235.946 9.2334 235.815C9.11947 235.682 8.97786 235.576 8.80859 235.498C8.64258 235.42 8.44564 235.381 8.21777 235.381C7.97038 235.381 7.75716 235.433 7.57812 235.537C7.40234 235.638 7.25749 235.778 7.14355 235.957C7.02962 236.133 6.94499 236.338 6.88965 236.572C6.83757 236.803 6.81152 237.051 6.81152 237.314ZM12.6709 235.767V240H11.7627V234.717H12.6221L12.6709 235.767ZM12.4854 237.158L12.0654 237.144C12.0687 236.782 12.1159 236.449 12.207 236.143C12.2982 235.833 12.4333 235.565 12.6123 235.337C12.7913 235.109 13.0143 234.933 13.2812 234.81C13.5482 234.683 13.8574 234.619 14.209 234.619C14.4564 234.619 14.6842 234.655 14.8926 234.727C15.1009 234.795 15.2816 234.904 15.4346 235.054C15.5876 235.203 15.7064 235.396 15.791 235.63C15.8757 235.864 15.918 236.147 15.918 236.479V240H15.0146V236.523C15.0146 236.247 14.9674 236.025 14.873 235.859C14.7819 235.693 14.6517 235.573 14.4824 235.498C14.3132 235.42 14.1146 235.381 13.8867 235.381C13.6198 235.381 13.3968 235.428 13.2178 235.522C13.0387 235.617 12.8955 235.747 12.7881 235.913C12.6807 236.079 12.6025 236.27 12.5537 236.484C12.5081 236.696 12.4854 236.921 12.4854 237.158ZM15.9082 236.66L15.3027 236.846C15.306 236.556 15.3532 236.278 15.4443 236.011C15.5387 235.744 15.6738 235.506 15.8496 235.298C16.0286 235.09 16.2484 234.925 16.5088 234.805C16.7692 234.681 17.0671 234.619 17.4023 234.619C17.6855 234.619 17.9362 234.657 18.1543 234.731C18.3757 234.806 18.5612 234.922 18.7109 235.078C18.8639 235.231 18.9795 235.428 19.0576 235.669C19.1357 235.91 19.1748 236.196 19.1748 236.528V240H18.2666V236.519C18.2666 236.222 18.2194 235.993 18.125 235.83C18.0339 235.664 17.9036 235.549 17.7344 235.483C17.5684 235.415 17.3698 235.381 17.1387 235.381C16.9401 235.381 16.7643 235.415 16.6113 235.483C16.4583 235.552 16.3298 235.646 16.2256 235.767C16.1214 235.884 16.0417 236.019 15.9863 236.172C15.9342 236.325 15.9082 236.488 15.9082 236.66ZM21.5234 234.717V240H20.6152V234.717H21.5234ZM20.5469 233.315C20.5469 233.169 20.5908 233.045 20.6787 232.944C20.7699 232.843 20.9033 232.793 21.0791 232.793C21.2516 232.793 21.3835 232.843 21.4746 232.944C21.569 233.045 21.6162 233.169 21.6162 233.315C21.6162 233.455 21.569 233.576 21.4746 233.677C21.3835 233.774 21.2516 233.823 21.0791 233.823C20.9033 233.823 20.7699 233.774 20.6787 233.677C20.5908 233.576 20.5469 233.455 20.5469 233.315ZM23.877 235.547V240H22.9736V234.717H23.8525L23.877 235.547ZM25.5273 234.688L25.5225 235.527C25.4476 235.511 25.376 235.501 25.3076 235.498C25.2425 235.492 25.1676 235.488 25.083 235.488C24.8747 235.488 24.6908 235.521 24.5312 235.586C24.3717 235.651 24.2367 235.742 24.126 235.859C24.0153 235.977 23.9274 236.117 23.8623 236.279C23.8005 236.439 23.7598 236.615 23.7402 236.807L23.4863 236.953C23.4863 236.634 23.5173 236.335 23.5791 236.055C23.6442 235.775 23.7435 235.527 23.877 235.312C24.0104 235.094 24.1797 234.925 24.3848 234.805C24.5931 234.681 24.8405 234.619 25.127 234.619C25.1921 234.619 25.2669 234.627 25.3516 234.644C25.4362 234.657 25.4948 234.671 25.5273 234.688ZM29.2822 239.097V236.377C29.2822 236.169 29.2399 235.988 29.1553 235.835C29.0739 235.679 28.9502 235.558 28.7842 235.474C28.6182 235.389 28.4131 235.347 28.1689 235.347C27.9411 235.347 27.7409 235.386 27.5684 235.464C27.3991 235.542 27.2656 235.645 27.168 235.771C27.0736 235.898 27.0264 236.035 27.0264 236.182H26.123C26.123 235.993 26.1719 235.806 26.2695 235.62C26.3672 235.435 26.5072 235.267 26.6895 235.117C26.875 234.964 27.0964 234.844 27.3535 234.756C27.6139 234.665 27.9036 234.619 28.2227 234.619C28.6068 234.619 28.9453 234.684 29.2383 234.814C29.5345 234.945 29.7656 235.142 29.9316 235.405C30.1009 235.666 30.1855 235.993 30.1855 236.387V238.848C30.1855 239.023 30.2002 239.211 30.2295 239.409C30.262 239.608 30.3092 239.779 30.3711 239.922V240H29.4287C29.3831 239.896 29.3473 239.757 29.3213 239.585C29.2952 239.409 29.2822 239.246 29.2822 239.097ZM29.4385 236.797L29.4482 237.432H28.5352C28.278 237.432 28.0485 237.453 27.8467 237.495C27.6449 237.534 27.4756 237.594 27.3389 237.676C27.2021 237.757 27.098 237.86 27.0264 237.983C26.9548 238.104 26.9189 238.245 26.9189 238.408C26.9189 238.574 26.9564 238.726 27.0312 238.862C27.1061 238.999 27.2184 239.108 27.3682 239.189C27.5212 239.268 27.7083 239.307 27.9297 239.307C28.2064 239.307 28.4505 239.248 28.6621 239.131C28.8737 239.014 29.0413 238.87 29.165 238.701C29.292 238.532 29.3604 238.368 29.3701 238.208L29.7559 238.643C29.7331 238.779 29.6712 238.931 29.5703 239.097C29.4694 239.263 29.3343 239.422 29.165 239.575C28.999 239.725 28.8005 239.85 28.5693 239.951C28.3415 240.049 28.0843 240.098 27.7979 240.098C27.4398 240.098 27.1257 240.028 26.8555 239.888C26.5885 239.748 26.3802 239.561 26.2305 239.326C26.084 239.089 26.0107 238.823 26.0107 238.53C26.0107 238.247 26.0661 237.998 26.1768 237.783C26.2874 237.565 26.4469 237.384 26.6553 237.241C26.8636 237.095 27.1143 236.984 27.4072 236.909C27.7002 236.834 28.0273 236.797 28.3887 236.797H29.4385ZM33.8184 234.717V235.41H30.9619V234.717H33.8184ZM31.9287 233.433H32.832V238.691C32.832 238.87 32.8597 239.006 32.915 239.097C32.9704 239.188 33.042 239.248 33.1299 239.277C33.2178 239.307 33.3122 239.321 33.4131 239.321C33.488 239.321 33.5661 239.315 33.6475 239.302C33.7321 239.285 33.7956 239.272 33.8379 239.263L33.8428 240C33.7712 240.023 33.6768 240.044 33.5596 240.063C33.4456 240.086 33.3073 240.098 33.1445 240.098C32.9232 240.098 32.7197 240.054 32.5342 239.966C32.3486 239.878 32.2005 239.731 32.0898 239.526C31.9824 239.318 31.9287 239.038 31.9287 238.687V233.433ZM35.8594 234.717V240H34.9512V234.717H35.8594ZM34.8828 233.315C34.8828 233.169 34.9268 233.045 35.0146 232.944C35.1058 232.843 35.2393 232.793 35.415 232.793C35.5876 232.793 35.7194 232.843 35.8105 232.944C35.9049 233.045 35.9521 233.169 35.9521 233.315C35.9521 233.455 35.9049 233.576 35.8105 233.677C35.7194 233.774 35.5876 233.823 35.415 233.823C35.2393 233.823 35.1058 233.774 35.0146 233.677C34.9268 233.576 34.8828 233.455 34.8828 233.315ZM37.0703 237.417V237.305C37.0703 236.924 37.1257 236.571 37.2363 236.245C37.347 235.916 37.5065 235.632 37.7148 235.391C37.9232 235.146 38.1755 234.958 38.4717 234.824C38.7679 234.688 39.0999 234.619 39.4678 234.619C39.8389 234.619 40.1725 234.688 40.4688 234.824C40.7682 234.958 41.0221 235.146 41.2305 235.391C41.4421 235.632 41.6032 235.916 41.7139 236.245C41.8245 236.571 41.8799 236.924 41.8799 237.305V237.417C41.8799 237.798 41.8245 238.151 41.7139 238.477C41.6032 238.802 41.4421 239.087 41.2305 239.331C41.0221 239.572 40.7699 239.761 40.4736 239.897C40.1807 240.031 39.8486 240.098 39.4775 240.098C39.1064 240.098 38.7728 240.031 38.4766 239.897C38.1803 239.761 37.9264 239.572 37.7148 239.331C37.5065 239.087 37.347 238.802 37.2363 238.477C37.1257 238.151 37.0703 237.798 37.0703 237.417ZM37.9736 237.305V237.417C37.9736 237.681 38.0046 237.93 38.0664 238.164C38.1283 238.395 38.221 238.6 38.3447 238.779C38.4717 238.958 38.6296 239.1 38.8184 239.204C39.0072 239.305 39.2269 239.355 39.4775 239.355C39.7249 239.355 39.9414 239.305 40.127 239.204C40.3158 239.1 40.472 238.958 40.5957 238.779C40.7194 238.6 40.8122 238.395 40.874 238.164C40.9391 237.93 40.9717 237.681 40.9717 237.417V237.305C40.9717 237.044 40.9391 236.799 40.874 236.567C40.8122 236.333 40.7178 236.126 40.5908 235.947C40.4671 235.765 40.3109 235.622 40.1221 235.518C39.9365 235.413 39.7184 235.361 39.4678 235.361C39.2204 235.361 39.0023 235.413 38.8135 235.518C38.6279 235.622 38.4717 235.765 38.3447 235.947C38.221 236.126 38.1283 236.333 38.0664 236.567C38.0046 236.799 37.9736 237.044 37.9736 237.305ZM43.916 235.845V240H43.0127V234.717H43.8672L43.916 235.845ZM43.7012 237.158L43.3252 237.144C43.3285 236.782 43.3822 236.449 43.4863 236.143C43.5905 235.833 43.737 235.565 43.9258 235.337C44.1146 235.109 44.3392 234.933 44.5996 234.81C44.8633 234.683 45.1546 234.619 45.4736 234.619C45.734 234.619 45.9684 234.655 46.1768 234.727C46.3851 234.795 46.5625 234.906 46.709 235.059C46.8587 235.212 46.9727 235.41 47.0508 235.654C47.1289 235.895 47.168 236.19 47.168 236.538V240H46.2598V236.528C46.2598 236.252 46.2191 236.03 46.1377 235.864C46.0563 235.695 45.9375 235.573 45.7812 235.498C45.625 235.42 45.4329 235.381 45.2051 235.381C44.9805 235.381 44.7754 235.428 44.5898 235.522C44.4076 235.617 44.2497 235.747 44.1162 235.913C43.986 236.079 43.8835 236.27 43.8086 236.484C43.737 236.696 43.7012 236.921 43.7012 237.158ZM50.9863 237.158V237.109C50.9863 236.4 51.0661 235.758 51.2256 235.186C51.3851 234.609 51.5885 234.105 51.8359 233.672C52.0833 233.239 52.3438 232.881 52.6172 232.598C52.8906 232.311 53.1429 232.104 53.374 231.978L53.5645 232.573C53.3724 232.72 53.1771 232.922 52.9785 233.179C52.7832 233.436 52.6025 233.752 52.4365 234.126C52.2738 234.5 52.1419 234.935 52.041 235.43C51.9401 235.924 51.8896 236.481 51.8896 237.1V237.168C51.8896 237.786 51.9401 238.345 52.041 238.843C52.1419 239.338 52.2738 239.774 52.4365 240.151C52.6025 240.529 52.7832 240.85 52.9785 241.113C53.1771 241.38 53.3724 241.592 53.5645 241.748L53.374 242.295C53.1429 242.168 52.8906 241.961 52.6172 241.675C52.3438 241.392 52.0833 241.034 51.8359 240.601C51.5885 240.171 51.3851 239.668 51.2256 239.092C51.0661 238.516 50.9863 237.871 50.9863 237.158ZM59.0088 239.258V240H54.3555V239.351L56.6846 236.758C56.971 236.439 57.1924 236.169 57.3486 235.947C57.5081 235.723 57.6188 235.522 57.6807 235.347C57.7458 235.168 57.7783 234.985 57.7783 234.8C57.7783 234.565 57.7295 234.354 57.6318 234.165C57.5374 233.973 57.3975 233.82 57.2119 233.706C57.0264 233.592 56.8018 233.535 56.5381 233.535C56.2223 233.535 55.9587 233.597 55.7471 233.721C55.5387 233.841 55.3825 234.01 55.2783 234.229C55.1742 234.447 55.1221 234.697 55.1221 234.98H54.2188C54.2188 234.58 54.3066 234.214 54.4824 233.882C54.6582 233.55 54.9186 233.286 55.2637 233.091C55.6087 232.892 56.0335 232.793 56.5381 232.793C56.9873 232.793 57.3714 232.873 57.6904 233.032C58.0094 233.188 58.2536 233.41 58.4229 233.696C58.5954 233.979 58.6816 234.312 58.6816 234.692C58.6816 234.901 58.6458 235.112 58.5742 235.327C58.5059 235.539 58.4098 235.75 58.2861 235.962C58.1657 236.174 58.0241 236.382 57.8613 236.587C57.7018 236.792 57.5309 236.994 57.3486 237.192L55.4443 239.258H59.0088ZM64.4385 235.879V236.963C64.4385 237.546 64.3864 238.037 64.2822 238.438C64.1781 238.838 64.0283 239.16 63.833 239.404C63.6377 239.648 63.4017 239.826 63.125 239.937C62.8516 240.044 62.5423 240.098 62.1973 240.098C61.9238 240.098 61.6715 240.063 61.4404 239.995C61.2093 239.927 61.001 239.818 60.8154 239.668C60.6331 239.515 60.4769 239.316 60.3467 239.072C60.2165 238.828 60.1172 238.532 60.0488 238.184C59.9805 237.835 59.9463 237.428 59.9463 236.963V235.879C59.9463 235.296 59.9984 234.808 60.1025 234.414C60.21 234.02 60.3613 233.704 60.5566 233.467C60.752 233.226 60.9863 233.053 61.2598 232.949C61.5365 232.845 61.8457 232.793 62.1875 232.793C62.4642 232.793 62.7181 232.827 62.9492 232.896C63.1836 232.961 63.3919 233.066 63.5742 233.213C63.7565 233.356 63.9111 233.548 64.0381 233.789C64.1683 234.027 64.2676 234.318 64.3359 234.663C64.4043 235.008 64.4385 235.413 64.4385 235.879ZM63.5303 237.109V235.728C63.5303 235.409 63.5107 235.129 63.4717 234.888C63.4359 234.644 63.3822 234.435 63.3105 234.263C63.2389 234.09 63.1478 233.95 63.0371 233.843C62.9297 233.735 62.8044 233.657 62.6611 233.608C62.5212 233.556 62.3633 233.53 62.1875 233.53C61.9727 233.53 61.7822 233.571 61.6162 233.652C61.4502 233.73 61.3102 233.856 61.1963 234.028C61.0856 234.201 61.001 234.427 60.9424 234.707C60.8838 234.987 60.8545 235.327 60.8545 235.728V237.109C60.8545 237.428 60.8724 237.71 60.9082 237.954C60.9473 238.198 61.0042 238.41 61.0791 238.589C61.154 238.765 61.2451 238.91 61.3525 239.023C61.46 239.137 61.5837 239.222 61.7236 239.277C61.8669 239.329 62.0247 239.355 62.1973 239.355C62.4186 239.355 62.6123 239.313 62.7783 239.229C62.9443 239.144 63.0827 239.012 63.1934 238.833C63.3073 238.651 63.3919 238.418 63.4473 238.135C63.5026 237.848 63.5303 237.507 63.5303 237.109ZM65.5225 234.634V234.258C65.5225 233.988 65.5811 233.742 65.6982 233.521C65.8154 233.299 65.9831 233.122 66.2012 232.988C66.4193 232.855 66.6781 232.788 66.9775 232.788C67.2835 232.788 67.5439 232.855 67.7588 232.988C67.9769 233.122 68.1445 233.299 68.2617 233.521C68.3789 233.742 68.4375 233.988 68.4375 234.258V234.634C68.4375 234.897 68.3789 235.14 68.2617 235.361C68.1478 235.583 67.9818 235.76 67.7637 235.894C67.5488 236.027 67.29 236.094 66.9873 236.094C66.6846 236.094 66.4225 236.027 66.2012 235.894C65.9831 235.76 65.8154 235.583 65.6982 235.361C65.5811 235.14 65.5225 234.897 65.5225 234.634ZM66.2012 234.258V234.634C66.2012 234.784 66.2288 234.925 66.2842 235.059C66.3428 235.192 66.4307 235.301 66.5479 235.386C66.665 235.467 66.8115 235.508 66.9873 235.508C67.1631 235.508 67.3079 235.467 67.4219 235.386C67.5358 235.301 67.6204 235.192 67.6758 235.059C67.7311 234.925 67.7588 234.784 67.7588 234.634V234.258C67.7588 234.105 67.7295 233.962 67.6709 233.828C67.6156 233.691 67.5293 233.582 67.4121 233.501C67.2982 233.416 67.1533 233.374 66.9775 233.374C66.805 233.374 66.6602 233.416 66.543 233.501C66.429 233.582 66.3428 233.691 66.2842 233.828C66.2288 233.962 66.2012 234.105 66.2012 234.258ZM68.9844 238.638V238.257C68.9844 237.99 69.043 237.746 69.1602 237.524C69.2773 237.303 69.445 237.126 69.6631 236.992C69.8812 236.859 70.14 236.792 70.4395 236.792C70.7454 236.792 71.0059 236.859 71.2207 236.992C71.4388 237.126 71.6064 237.303 71.7236 237.524C71.8408 237.746 71.8994 237.99 71.8994 238.257V238.638C71.8994 238.905 71.8408 239.149 71.7236 239.37C71.6097 239.591 71.4437 239.769 71.2256 239.902C71.0107 240.036 70.752 240.103 70.4492 240.103C70.1465 240.103 69.8861 240.036 69.668 239.902C69.4499 239.769 69.2806 239.591 69.1602 239.37C69.043 239.149 68.9844 238.905 68.9844 238.638ZM69.6631 238.257V238.638C69.6631 238.787 69.6908 238.931 69.7461 239.067C69.8047 239.201 69.8926 239.31 70.0098 239.395C70.127 239.476 70.2734 239.517 70.4492 239.517C70.625 239.517 70.7699 239.476 70.8838 239.395C71.001 239.31 71.0872 239.201 71.1426 239.067C71.1979 238.934 71.2256 238.791 71.2256 238.638V238.257C71.2256 238.104 71.1963 237.961 71.1377 237.827C71.0824 237.694 70.9961 237.586 70.8789 237.505C70.765 237.42 70.6185 237.378 70.4395 237.378C70.2669 237.378 70.1221 237.42 70.0049 237.505C69.891 237.586 69.8047 237.694 69.7461 237.827C69.6908 237.961 69.6631 238.104 69.6631 238.257ZM70.6641 233.901L67.1924 239.458L66.6846 239.136L70.1562 233.579L70.6641 233.901ZM75.1025 237.109V237.158C75.1025 237.871 75.0228 238.516 74.8633 239.092C74.7038 239.668 74.5003 240.171 74.2529 240.601C74.0055 241.034 73.7451 241.392 73.4717 241.675C73.1982 241.961 72.946 242.168 72.7148 242.295L72.5244 241.748C72.7165 241.602 72.9102 241.396 73.1055 241.133C73.3008 240.872 73.4814 240.55 73.6475 240.166C73.8135 239.785 73.9469 239.346 74.0479 238.848C74.1488 238.346 74.1992 237.786 74.1992 237.168V237.1C74.1992 236.481 74.1455 235.923 74.0381 235.425C73.9307 234.924 73.7907 234.482 73.6182 234.102C73.4489 233.721 73.2666 233.4 73.0713 233.14C72.8792 232.876 72.6969 232.673 72.5244 232.529L72.7148 231.978C72.946 232.104 73.1982 232.311 73.4717 232.598C73.7451 232.881 74.0055 233.239 74.2529 233.672C74.5003 234.105 74.7038 234.609 74.8633 235.186C75.0228 235.758 75.1025 236.4 75.1025 237.109Z" fill="white"/>
<path d="M26.0186 86.9746V80.5H26.9268V88H26.0967L26.0186 86.9746ZM22.4639 85.417V85.3145C22.4639 84.9108 22.5127 84.5446 22.6104 84.2158C22.7113 83.8838 22.8529 83.599 23.0352 83.3613C23.2207 83.1237 23.4404 82.9414 23.6943 82.8145C23.9515 82.6842 24.238 82.6191 24.5537 82.6191C24.8857 82.6191 25.1755 82.6777 25.4229 82.7949C25.6735 82.9089 25.8851 83.0765 26.0576 83.2979C26.2334 83.516 26.3717 83.7796 26.4727 84.0889C26.5736 84.3981 26.6436 84.748 26.6826 85.1387V85.5879C26.6468 85.9753 26.5768 86.3236 26.4727 86.6328C26.3717 86.9421 26.2334 87.2057 26.0576 87.4238C25.8851 87.6419 25.6735 87.8096 25.4229 87.9268C25.1722 88.0407 24.8792 88.0977 24.5439 88.0977C24.2347 88.0977 23.9515 88.0309 23.6943 87.8975C23.4404 87.764 23.2207 87.5768 23.0352 87.3359C22.8529 87.0951 22.7113 86.8118 22.6104 86.4863C22.5127 86.1576 22.4639 85.8011 22.4639 85.417ZM23.3721 85.3145V85.417C23.3721 85.6807 23.3981 85.9281 23.4502 86.1592C23.5055 86.3903 23.5902 86.5938 23.7041 86.7695C23.818 86.9453 23.9629 87.0837 24.1387 87.1846C24.3145 87.2822 24.5244 87.3311 24.7686 87.3311C25.068 87.3311 25.3138 87.2676 25.5059 87.1406C25.7012 87.0137 25.8574 86.846 25.9746 86.6377C26.0918 86.4294 26.1829 86.2031 26.248 85.959V84.7822C26.209 84.6032 26.152 84.4307 26.0771 84.2646C26.0055 84.0954 25.9111 83.9456 25.7939 83.8154C25.68 83.682 25.5384 83.5762 25.3691 83.498C25.2031 83.4199 25.0062 83.3809 24.7783 83.3809C24.5309 83.3809 24.3177 83.4329 24.1387 83.5371C23.9629 83.638 23.818 83.778 23.7041 83.957C23.5902 84.1328 23.5055 84.3379 23.4502 84.5723C23.3981 84.8034 23.3721 85.0508 23.3721 85.3145ZM30.5254 88.0977C30.1576 88.0977 29.8239 88.0358 29.5244 87.9121C29.2282 87.7852 28.9727 87.6077 28.7578 87.3799C28.5462 87.152 28.3835 86.8818 28.2695 86.5693C28.1556 86.2568 28.0986 85.915 28.0986 85.5439V85.3389C28.0986 84.9092 28.1621 84.5267 28.2891 84.1914C28.416 83.8529 28.5885 83.5664 28.8066 83.332C29.0247 83.0977 29.2721 82.9202 29.5488 82.7998C29.8255 82.6794 30.112 82.6191 30.4082 82.6191C30.7858 82.6191 31.1113 82.6842 31.3848 82.8145C31.6615 82.9447 31.8877 83.127 32.0635 83.3613C32.2393 83.5924 32.3695 83.8659 32.4541 84.1816C32.5387 84.4941 32.5811 84.8359 32.5811 85.207V85.6123H28.6357V84.875H31.6777V84.8066C31.6647 84.5723 31.6159 84.3444 31.5312 84.123C31.4499 83.9017 31.3197 83.7194 31.1406 83.5762C30.9616 83.4329 30.7174 83.3613 30.4082 83.3613C30.2031 83.3613 30.0143 83.4053 29.8418 83.4932C29.6693 83.5778 29.5212 83.7048 29.3975 83.874C29.2738 84.0433 29.1777 84.25 29.1094 84.4941C29.041 84.7383 29.0068 85.0199 29.0068 85.3389V85.5439C29.0068 85.7946 29.041 86.0306 29.1094 86.252C29.181 86.4701 29.2835 86.6621 29.417 86.8281C29.5537 86.9941 29.7181 87.1243 29.9102 87.2188C30.1055 87.3132 30.3268 87.3604 30.5742 87.3604C30.8932 87.3604 31.1634 87.2952 31.3848 87.165C31.6061 87.0348 31.7998 86.8607 31.9658 86.6426L32.5127 87.0771C32.3988 87.2497 32.2539 87.4141 32.0781 87.5703C31.9023 87.7266 31.6859 87.8535 31.4287 87.9512C31.1748 88.0488 30.8737 88.0977 30.5254 88.0977ZM36.7119 86.5986C36.7119 86.4684 36.6826 86.348 36.624 86.2373C36.5687 86.1234 36.4531 86.0208 36.2773 85.9297C36.1048 85.8353 35.8444 85.7539 35.4961 85.6855C35.2031 85.6237 34.9378 85.5505 34.7002 85.4658C34.4658 85.3812 34.2656 85.2786 34.0996 85.1582C33.9368 85.0378 33.8115 84.8962 33.7236 84.7334C33.6357 84.5706 33.5918 84.3802 33.5918 84.1621C33.5918 83.9538 33.6374 83.7568 33.7285 83.5713C33.8229 83.3857 33.9548 83.2214 34.124 83.0781C34.2965 82.9349 34.5033 82.8226 34.7441 82.7412C34.985 82.6598 35.2536 82.6191 35.5498 82.6191C35.973 82.6191 36.3343 82.694 36.6338 82.8438C36.9333 82.9935 37.1628 83.1937 37.3223 83.4443C37.4818 83.6917 37.5615 83.9668 37.5615 84.2695H36.6582C36.6582 84.123 36.6143 83.9814 36.5264 83.8447C36.4417 83.7048 36.3164 83.5892 36.1504 83.498C35.9876 83.4069 35.7874 83.3613 35.5498 83.3613C35.2992 83.3613 35.0957 83.4004 34.9395 83.4785C34.7865 83.5534 34.6742 83.6494 34.6025 83.7666C34.5342 83.8838 34.5 84.0075 34.5 84.1377C34.5 84.2354 34.5163 84.3232 34.5488 84.4014C34.5846 84.4762 34.6465 84.5462 34.7344 84.6113C34.8223 84.6732 34.946 84.7318 35.1055 84.7871C35.265 84.8424 35.4684 84.8978 35.7158 84.9531C36.1488 85.0508 36.5052 85.168 36.7852 85.3047C37.0651 85.4414 37.2734 85.609 37.4102 85.8076C37.5469 86.0062 37.6152 86.2471 37.6152 86.5303C37.6152 86.7614 37.5664 86.973 37.4688 87.165C37.3743 87.3571 37.236 87.5231 37.0537 87.6631C36.8747 87.7998 36.6598 87.9072 36.4092 87.9854C36.1618 88.0602 35.8835 88.0977 35.5742 88.0977C35.1087 88.0977 34.7148 88.0146 34.3926 87.8486C34.0703 87.6826 33.8262 87.4678 33.6602 87.2041C33.4941 86.9404 33.4111 86.6621 33.4111 86.3691H34.3193C34.3324 86.6165 34.404 86.8135 34.5342 86.96C34.6644 87.1032 34.8239 87.2057 35.0127 87.2676C35.2015 87.3262 35.3887 87.3555 35.5742 87.3555C35.8216 87.3555 36.0283 87.3229 36.1943 87.2578C36.3636 87.1927 36.4922 87.1032 36.5801 86.9893C36.668 86.8753 36.7119 86.7451 36.7119 86.5986ZM39.7832 82.7168V88H38.875V82.7168H39.7832ZM38.8066 81.3154C38.8066 81.1689 38.8506 81.0452 38.9385 80.9443C39.0296 80.8434 39.1631 80.793 39.3389 80.793C39.5114 80.793 39.6432 80.8434 39.7344 80.9443C39.8288 81.0452 39.876 81.1689 39.876 81.3154C39.876 81.4554 39.8288 81.5758 39.7344 81.6768C39.6432 81.7744 39.5114 81.8232 39.3389 81.8232C39.1631 81.8232 39.0296 81.7744 38.9385 81.6768C38.8506 81.5758 38.8066 81.4554 38.8066 81.3154ZM42.1367 83.5469V88H41.2334V82.7168H42.1123L42.1367 83.5469ZM43.7871 82.6875L43.7822 83.5273C43.7074 83.5111 43.6357 83.5013 43.5674 83.498C43.5023 83.4915 43.4274 83.4883 43.3428 83.4883C43.1344 83.4883 42.9505 83.5208 42.791 83.5859C42.6315 83.651 42.4964 83.7422 42.3857 83.8594C42.2751 83.9766 42.1872 84.1165 42.1221 84.2793C42.0602 84.4388 42.0195 84.6146 42 84.8066L41.7461 84.9531C41.7461 84.6341 41.777 84.3346 41.8389 84.0547C41.904 83.7747 42.0033 83.5273 42.1367 83.3125C42.2702 83.0944 42.4395 82.9251 42.6445 82.8047C42.8529 82.681 43.1003 82.6191 43.3867 82.6191C43.4518 82.6191 43.5267 82.6273 43.6113 82.6436C43.696 82.6566 43.7546 82.6712 43.7871 82.6875ZM46.7168 88.0977C46.349 88.0977 46.0153 88.0358 45.7158 87.9121C45.4196 87.7852 45.1641 87.6077 44.9492 87.3799C44.7376 87.152 44.5749 86.8818 44.4609 86.5693C44.347 86.2568 44.29 85.915 44.29 85.5439V85.3389C44.29 84.9092 44.3535 84.5267 44.4805 84.1914C44.6074 83.8529 44.7799 83.5664 44.998 83.332C45.2161 83.0977 45.4635 82.9202 45.7402 82.7998C46.0169 82.6794 46.3034 82.6191 46.5996 82.6191C46.9772 82.6191 47.3027 82.6842 47.5762 82.8145C47.8529 82.9447 48.0791 83.127 48.2549 83.3613C48.4307 83.5924 48.5609 83.8659 48.6455 84.1816C48.7301 84.4941 48.7725 84.8359 48.7725 85.207V85.6123H44.8271V84.875H47.8691V84.8066C47.8561 84.5723 47.8073 84.3444 47.7227 84.123C47.6413 83.9017 47.5111 83.7194 47.332 83.5762C47.153 83.4329 46.9089 83.3613 46.5996 83.3613C46.3945 83.3613 46.2057 83.4053 46.0332 83.4932C45.8607 83.5778 45.7126 83.7048 45.5889 83.874C45.4652 84.0433 45.3691 84.25 45.3008 84.4941C45.2324 84.7383 45.1982 85.0199 45.1982 85.3389V85.5439C45.1982 85.7946 45.2324 86.0306 45.3008 86.252C45.3724 86.4701 45.4749 86.6621 45.6084 86.8281C45.7451 86.9941 45.9095 87.1243 46.1016 87.2188C46.2969 87.3132 46.5182 87.3604 46.7656 87.3604C47.0846 87.3604 47.3548 87.2952 47.5762 87.165C47.7975 87.0348 47.9912 86.8607 48.1572 86.6426L48.7041 87.0771C48.5902 87.2497 48.4453 87.4141 48.2695 87.5703C48.0938 87.7266 47.8773 87.8535 47.6201 87.9512C47.3662 88.0488 47.0651 88.0977 46.7168 88.0977ZM52.2734 85.1582V85.1094C52.2734 84.3997 52.3532 83.7585 52.5127 83.1855C52.6722 82.6094 52.8757 82.1048 53.123 81.6719C53.3704 81.2389 53.6309 80.8809 53.9043 80.5977C54.1777 80.3112 54.43 80.1045 54.6611 79.9775L54.8516 80.5732C54.6595 80.7197 54.4642 80.9215 54.2656 81.1787C54.0703 81.4359 53.8896 81.7516 53.7236 82.126C53.5609 82.5003 53.429 82.9349 53.3281 83.4297C53.2272 83.9245 53.1768 84.4811 53.1768 85.0996V85.168C53.1768 85.7865 53.2272 86.3447 53.3281 86.8428C53.429 87.3376 53.5609 87.7738 53.7236 88.1514C53.8896 88.529 54.0703 88.8496 54.2656 89.1133C54.4642 89.3802 54.6595 89.5918 54.8516 89.748L54.6611 90.2949C54.43 90.168 54.1777 89.9613 53.9043 89.6748C53.6309 89.3916 53.3704 89.0335 53.123 88.6006C52.8757 88.1709 52.6722 87.668 52.5127 87.0918C52.3532 86.5156 52.2734 85.8711 52.2734 85.1582ZM58.6064 80.8516V88H57.7031V81.9795L55.8818 82.6436V81.8281L58.4648 80.8516H58.6064ZM65.7256 83.8789V84.9629C65.7256 85.5456 65.6735 86.0371 65.5693 86.4375C65.4652 86.8379 65.3154 87.1602 65.1201 87.4043C64.9248 87.6484 64.6888 87.8258 64.4121 87.9365C64.1387 88.0439 63.8294 88.0977 63.4844 88.0977C63.2109 88.0977 62.9587 88.0635 62.7275 87.9951C62.4964 87.9268 62.2881 87.8177 62.1025 87.668C61.9202 87.515 61.764 87.3164 61.6338 87.0723C61.5036 86.8281 61.4043 86.5319 61.3359 86.1836C61.2676 85.8353 61.2334 85.4284 61.2334 84.9629V83.8789C61.2334 83.2962 61.2855 82.8079 61.3896 82.4141C61.4971 82.0202 61.6484 81.7044 61.8438 81.4668C62.0391 81.2259 62.2734 81.0534 62.5469 80.9492C62.8236 80.8451 63.1328 80.793 63.4746 80.793C63.7513 80.793 64.0052 80.8271 64.2363 80.8955C64.4707 80.9606 64.679 81.0664 64.8613 81.2129C65.0436 81.3561 65.1982 81.5482 65.3252 81.7891C65.4554 82.0267 65.5547 82.318 65.623 82.6631C65.6914 83.0081 65.7256 83.4134 65.7256 83.8789ZM64.8174 85.1094V83.7275C64.8174 83.4085 64.7979 83.1286 64.7588 82.8877C64.723 82.6436 64.6693 82.4352 64.5977 82.2627C64.526 82.0902 64.4349 81.9502 64.3242 81.8428C64.2168 81.7354 64.0915 81.6572 63.9482 81.6084C63.8083 81.5563 63.6504 81.5303 63.4746 81.5303C63.2598 81.5303 63.0693 81.571 62.9033 81.6523C62.7373 81.7305 62.5973 81.8558 62.4834 82.0283C62.3727 82.2008 62.2881 82.4271 62.2295 82.707C62.1709 82.987 62.1416 83.3271 62.1416 83.7275V85.1094C62.1416 85.4284 62.1595 85.71 62.1953 85.9541C62.2344 86.1982 62.2913 86.4098 62.3662 86.5889C62.4411 86.7646 62.5322 86.9095 62.6396 87.0234C62.7471 87.1374 62.8708 87.222 63.0107 87.2773C63.154 87.3294 63.3118 87.3555 63.4844 87.3555C63.7057 87.3555 63.8994 87.3132 64.0654 87.2285C64.2314 87.1439 64.3698 87.012 64.4805 86.833C64.5944 86.6507 64.679 86.418 64.7344 86.1348C64.7897 85.8483 64.8174 85.5065 64.8174 85.1094ZM66.8096 82.6338V82.2578C66.8096 81.9876 66.8682 81.7419 66.9854 81.5205C67.1025 81.2992 67.2702 81.1217 67.4883 80.9883C67.7064 80.8548 67.9652 80.7881 68.2646 80.7881C68.5706 80.7881 68.8311 80.8548 69.0459 80.9883C69.264 81.1217 69.4316 81.2992 69.5488 81.5205C69.666 81.7419 69.7246 81.9876 69.7246 82.2578V82.6338C69.7246 82.8975 69.666 83.14 69.5488 83.3613C69.4349 83.5827 69.2689 83.7601 69.0508 83.8936C68.8359 84.027 68.5771 84.0938 68.2744 84.0938C67.9717 84.0938 67.7096 84.027 67.4883 83.8936C67.2702 83.7601 67.1025 83.5827 66.9854 83.3613C66.8682 83.14 66.8096 82.8975 66.8096 82.6338ZM67.4883 82.2578V82.6338C67.4883 82.7835 67.516 82.9251 67.5713 83.0586C67.6299 83.1921 67.7178 83.3011 67.835 83.3857C67.9521 83.4671 68.0986 83.5078 68.2744 83.5078C68.4502 83.5078 68.5951 83.4671 68.709 83.3857C68.8229 83.3011 68.9076 83.1921 68.9629 83.0586C69.0182 82.9251 69.0459 82.7835 69.0459 82.6338V82.2578C69.0459 82.1048 69.0166 81.9616 68.958 81.8281C68.9027 81.6914 68.8164 81.5824 68.6992 81.501C68.5853 81.4163 68.4404 81.374 68.2646 81.374C68.0921 81.374 67.9473 81.4163 67.8301 81.501C67.7161 81.5824 67.6299 81.6914 67.5713 81.8281C67.516 81.9616 67.4883 82.1048 67.4883 82.2578ZM70.2715 86.6377V86.2568C70.2715 85.9899 70.3301 85.7458 70.4473 85.5244C70.5645 85.3031 70.7321 85.1257 70.9502 84.9922C71.1683 84.8587 71.4271 84.792 71.7266 84.792C72.0326 84.792 72.293 84.8587 72.5078 84.9922C72.7259 85.1257 72.8936 85.3031 73.0107 85.5244C73.1279 85.7458 73.1865 85.9899 73.1865 86.2568V86.6377C73.1865 86.9046 73.1279 87.1488 73.0107 87.3701C72.8968 87.5915 72.7308 87.7689 72.5127 87.9023C72.2979 88.0358 72.0391 88.1025 71.7363 88.1025C71.4336 88.1025 71.1732 88.0358 70.9551 87.9023C70.737 87.7689 70.5677 87.5915 70.4473 87.3701C70.3301 87.1488 70.2715 86.9046 70.2715 86.6377ZM70.9502 86.2568V86.6377C70.9502 86.7874 70.9779 86.9307 71.0332 87.0674C71.0918 87.2008 71.1797 87.3099 71.2969 87.3945C71.4141 87.4759 71.5605 87.5166 71.7363 87.5166C71.9121 87.5166 72.057 87.4759 72.1709 87.3945C72.2881 87.3099 72.3743 87.2008 72.4297 87.0674C72.485 86.9339 72.5127 86.7907 72.5127 86.6377V86.2568C72.5127 86.1038 72.4834 85.9606 72.4248 85.8271C72.3695 85.6937 72.2832 85.5863 72.166 85.5049C72.0521 85.4202 71.9056 85.3779 71.7266 85.3779C71.554 85.3779 71.4092 85.4202 71.292 85.5049C71.1781 85.5863 71.0918 85.6937 71.0332 85.8271C70.9779 85.9606 70.9502 86.1038 70.9502 86.2568ZM71.9512 81.9014L68.4795 87.458L67.9717 87.1357L71.4434 81.5791L71.9512 81.9014ZM76.3896 85.1094V85.1582C76.3896 85.8711 76.3099 86.5156 76.1504 87.0918C75.9909 87.668 75.7874 88.1709 75.54 88.6006C75.2926 89.0335 75.0322 89.3916 74.7588 89.6748C74.4854 89.9613 74.2331 90.168 74.002 90.2949L73.8115 89.748C74.0036 89.6016 74.1973 89.3965 74.3926 89.1328C74.5879 88.8724 74.7686 88.5501 74.9346 88.166C75.1006 87.7852 75.234 87.3457 75.335 86.8477C75.4359 86.3464 75.4863 85.7865 75.4863 85.168V85.0996C75.4863 84.4811 75.4326 83.9229 75.3252 83.4248C75.2178 82.9235 75.0778 82.4824 74.9053 82.1016C74.736 81.7207 74.5537 81.4001 74.3584 81.1396C74.1663 80.876 73.984 80.6725 73.8115 80.5293L74.002 79.9775C74.2331 80.1045 74.4854 80.3112 74.7588 80.5977C75.0322 80.8809 75.2926 81.2389 75.54 81.6719C75.7874 82.1048 75.9909 82.6094 76.1504 83.1855C76.3099 83.7585 76.3896 84.3997 76.3896 85.1094Z" fill="white"/>
<path d="M135.803 8.35547C136.018 8.35547 136.216 8.31152 136.398 8.22363C136.581 8.13574 136.73 8.0153 136.848 7.8623C136.965 7.70605 137.032 7.52865 137.048 7.33008H137.907C137.891 7.64258 137.785 7.93392 137.59 8.2041C137.398 8.47103 137.146 8.6875 136.833 8.85352C136.521 9.01628 136.177 9.09766 135.803 9.09766C135.406 9.09766 135.059 9.02767 134.763 8.8877C134.47 8.74772 134.226 8.55566 134.03 8.31152C133.838 8.06738 133.693 7.78743 133.596 7.47168C133.501 7.15267 133.454 6.81576 133.454 6.46094V6.25586C133.454 5.90104 133.501 5.56576 133.596 5.25C133.693 4.93099 133.838 4.64941 134.03 4.40527C134.226 4.16113 134.47 3.96908 134.763 3.8291C135.059 3.68913 135.406 3.61914 135.803 3.61914C136.216 3.61914 136.577 3.70378 136.887 3.87305C137.196 4.03906 137.438 4.26693 137.614 4.55664C137.793 4.8431 137.891 5.16862 137.907 5.5332H137.048C137.032 5.3151 136.97 5.11816 136.862 4.94238C136.758 4.7666 136.615 4.62663 136.433 4.52246C136.254 4.41504 136.044 4.36133 135.803 4.36133C135.526 4.36133 135.293 4.41667 135.104 4.52734C134.919 4.63477 134.771 4.78125 134.66 4.9668C134.553 5.14909 134.475 5.35254 134.426 5.57715C134.38 5.7985 134.357 6.02474 134.357 6.25586V6.46094C134.357 6.69206 134.38 6.91992 134.426 7.14453C134.471 7.36914 134.548 7.57259 134.655 7.75488C134.766 7.93717 134.914 8.08366 135.1 8.19434C135.288 8.30176 135.523 8.35547 135.803 8.35547ZM138.684 6.41699V6.30469C138.684 5.92383 138.739 5.57064 138.85 5.24512C138.96 4.91634 139.12 4.63151 139.328 4.39062C139.536 4.14648 139.789 3.95768 140.085 3.82422C140.381 3.6875 140.713 3.61914 141.081 3.61914C141.452 3.61914 141.786 3.6875 142.082 3.82422C142.382 3.95768 142.635 4.14648 142.844 4.39062C143.055 4.63151 143.216 4.91634 143.327 5.24512C143.438 5.57064 143.493 5.92383 143.493 6.30469V6.41699C143.493 6.79785 143.438 7.15104 143.327 7.47656C143.216 7.80208 143.055 8.08691 142.844 8.33105C142.635 8.57194 142.383 8.76074 142.087 8.89746C141.794 9.03092 141.462 9.09766 141.091 9.09766C140.72 9.09766 140.386 9.03092 140.09 8.89746C139.794 8.76074 139.54 8.57194 139.328 8.33105C139.12 8.08691 138.96 7.80208 138.85 7.47656C138.739 7.15104 138.684 6.79785 138.684 6.41699ZM139.587 6.30469V6.41699C139.587 6.68066 139.618 6.92969 139.68 7.16406C139.742 7.39518 139.834 7.60026 139.958 7.7793C140.085 7.95833 140.243 8.09993 140.432 8.2041C140.62 8.30501 140.84 8.35547 141.091 8.35547C141.338 8.35547 141.555 8.30501 141.74 8.2041C141.929 8.09993 142.085 7.95833 142.209 7.7793C142.333 7.60026 142.425 7.39518 142.487 7.16406C142.552 6.92969 142.585 6.68066 142.585 6.41699V6.30469C142.585 6.04427 142.552 5.7985 142.487 5.56738C142.425 5.33301 142.331 5.1263 142.204 4.94727C142.08 4.76497 141.924 4.62174 141.735 4.51758C141.55 4.41341 141.332 4.36133 141.081 4.36133C140.834 4.36133 140.616 4.41341 140.427 4.51758C140.241 4.62174 140.085 4.76497 139.958 4.94727C139.834 5.1263 139.742 5.33301 139.68 5.56738C139.618 5.7985 139.587 6.04427 139.587 6.30469ZM145.529 4.84473V9H144.626V3.7168H145.48L145.529 4.84473ZM145.314 6.1582L144.938 6.14355C144.942 5.78223 144.995 5.44857 145.1 5.14258C145.204 4.83333 145.35 4.56478 145.539 4.33691C145.728 4.10905 145.952 3.93327 146.213 3.80957C146.477 3.68262 146.768 3.61914 147.087 3.61914C147.347 3.61914 147.582 3.65495 147.79 3.72656C147.998 3.79492 148.176 3.9056 148.322 4.05859C148.472 4.21159 148.586 4.41016 148.664 4.6543C148.742 4.89518 148.781 5.18978 148.781 5.53809V9H147.873V5.52832C147.873 5.25163 147.832 5.03027 147.751 4.86426C147.67 4.69499 147.551 4.57292 147.395 4.49805C147.238 4.41992 147.046 4.38086 146.818 4.38086C146.594 4.38086 146.389 4.42806 146.203 4.52246C146.021 4.61686 145.863 4.74707 145.729 4.91309C145.599 5.0791 145.497 5.26953 145.422 5.48438C145.35 5.69596 145.314 5.92057 145.314 6.1582ZM151.501 9H150.598V3.16016C150.598 2.7793 150.666 2.45866 150.803 2.19824C150.943 1.93457 151.143 1.736 151.403 1.60254C151.664 1.46582 151.973 1.39746 152.331 1.39746C152.435 1.39746 152.539 1.40397 152.644 1.41699C152.751 1.43001 152.855 1.44954 152.956 1.47559L152.907 2.21289C152.839 2.19661 152.761 2.18522 152.673 2.17871C152.588 2.1722 152.504 2.16895 152.419 2.16895C152.227 2.16895 152.061 2.20801 151.921 2.28613C151.784 2.361 151.68 2.47168 151.608 2.61816C151.537 2.76465 151.501 2.94531 151.501 3.16016V9ZM152.624 3.7168V4.41016H149.763V3.7168H152.624ZM156.862 7.7793V3.7168H157.771V9H156.906L156.862 7.7793ZM157.033 6.66602L157.409 6.65625C157.409 7.00781 157.372 7.33333 157.297 7.63281C157.225 7.92904 157.108 8.1862 156.945 8.4043C156.783 8.6224 156.569 8.79329 156.306 8.91699C156.042 9.03743 155.721 9.09766 155.344 9.09766C155.087 9.09766 154.851 9.06022 154.636 8.98535C154.424 8.91048 154.242 8.79492 154.089 8.63867C153.936 8.48242 153.817 8.27897 153.732 8.02832C153.651 7.77767 153.61 7.47656 153.61 7.125V3.7168H154.514V7.13477C154.514 7.3724 154.54 7.56934 154.592 7.72559C154.647 7.87858 154.72 8.00065 154.812 8.0918C154.906 8.17969 155.01 8.24154 155.124 8.27734C155.241 8.31315 155.362 8.33105 155.485 8.33105C155.869 8.33105 156.174 8.25781 156.398 8.11133C156.623 7.96159 156.784 7.76139 156.882 7.51074C156.983 7.25684 157.033 6.97526 157.033 6.66602ZM162.224 7.59863C162.224 7.46842 162.194 7.34798 162.136 7.2373C162.08 7.12337 161.965 7.02083 161.789 6.92969C161.617 6.83529 161.356 6.75391 161.008 6.68555C160.715 6.6237 160.45 6.55046 160.212 6.46582C159.978 6.38118 159.777 6.27865 159.611 6.1582C159.449 6.03776 159.323 5.89616 159.235 5.7334C159.147 5.57064 159.104 5.38021 159.104 5.16211C159.104 4.95378 159.149 4.75684 159.24 4.57129C159.335 4.38574 159.466 4.22135 159.636 4.07812C159.808 3.9349 160.015 3.82259 160.256 3.74121C160.497 3.65983 160.765 3.61914 161.062 3.61914C161.485 3.61914 161.846 3.69401 162.146 3.84375C162.445 3.99349 162.674 4.19368 162.834 4.44434C162.993 4.69173 163.073 4.9668 163.073 5.26953H162.17C162.17 5.12305 162.126 4.98145 162.038 4.84473C161.953 4.70475 161.828 4.58919 161.662 4.49805C161.499 4.4069 161.299 4.36133 161.062 4.36133C160.811 4.36133 160.607 4.40039 160.451 4.47852C160.298 4.55339 160.186 4.64941 160.114 4.7666C160.046 4.88379 160.012 5.00749 160.012 5.1377C160.012 5.23535 160.028 5.32324 160.061 5.40137C160.096 5.47624 160.158 5.54622 160.246 5.61133C160.334 5.67318 160.458 5.73177 160.617 5.78711C160.777 5.84245 160.98 5.89779 161.228 5.95312C161.66 6.05078 162.017 6.16797 162.297 6.30469C162.577 6.44141 162.785 6.60905 162.922 6.80762C163.059 7.00618 163.127 7.24707 163.127 7.53027C163.127 7.76139 163.078 7.97298 162.98 8.16504C162.886 8.3571 162.748 8.52311 162.565 8.66309C162.386 8.7998 162.172 8.90723 161.921 8.98535C161.674 9.06022 161.395 9.09766 161.086 9.09766C160.62 9.09766 160.227 9.01465 159.904 8.84863C159.582 8.68262 159.338 8.46777 159.172 8.2041C159.006 7.94043 158.923 7.66211 158.923 7.36914H159.831C159.844 7.61654 159.916 7.81348 160.046 7.95996C160.176 8.10319 160.336 8.20573 160.524 8.26758C160.713 8.32617 160.9 8.35547 161.086 8.35547C161.333 8.35547 161.54 8.32292 161.706 8.25781C161.875 8.19271 162.004 8.10319 162.092 7.98926C162.18 7.87533 162.224 7.74512 162.224 7.59863ZM165.295 3.7168V9H164.387V3.7168H165.295ZM164.318 2.31543C164.318 2.16895 164.362 2.04525 164.45 1.94434C164.541 1.84342 164.675 1.79297 164.851 1.79297C165.023 1.79297 165.155 1.84342 165.246 1.94434C165.34 2.04525 165.388 2.16895 165.388 2.31543C165.388 2.4554 165.34 2.57585 165.246 2.67676C165.155 2.77441 165.023 2.82324 164.851 2.82324C164.675 2.82324 164.541 2.77441 164.45 2.67676C164.362 2.57585 164.318 2.4554 164.318 2.31543ZM166.506 6.41699V6.30469C166.506 5.92383 166.561 5.57064 166.672 5.24512C166.783 4.91634 166.942 4.63151 167.15 4.39062C167.359 4.14648 167.611 3.95768 167.907 3.82422C168.203 3.6875 168.535 3.61914 168.903 3.61914C169.274 3.61914 169.608 3.6875 169.904 3.82422C170.204 3.95768 170.458 4.14648 170.666 4.39062C170.878 4.63151 171.039 4.91634 171.149 5.24512C171.26 5.57064 171.315 5.92383 171.315 6.30469V6.41699C171.315 6.79785 171.26 7.15104 171.149 7.47656C171.039 7.80208 170.878 8.08691 170.666 8.33105C170.458 8.57194 170.205 8.76074 169.909 8.89746C169.616 9.03092 169.284 9.09766 168.913 9.09766C168.542 9.09766 168.208 9.03092 167.912 8.89746C167.616 8.76074 167.362 8.57194 167.15 8.33105C166.942 8.08691 166.783 7.80208 166.672 7.47656C166.561 7.15104 166.506 6.79785 166.506 6.41699ZM167.409 6.30469V6.41699C167.409 6.68066 167.44 6.92969 167.502 7.16406C167.564 7.39518 167.657 7.60026 167.78 7.7793C167.907 7.95833 168.065 8.09993 168.254 8.2041C168.443 8.30501 168.662 8.35547 168.913 8.35547C169.16 8.35547 169.377 8.30501 169.562 8.2041C169.751 8.09993 169.908 7.95833 170.031 7.7793C170.155 7.60026 170.248 7.39518 170.31 7.16406C170.375 6.92969 170.407 6.68066 170.407 6.41699V6.30469C170.407 6.04427 170.375 5.7985 170.31 5.56738C170.248 5.33301 170.153 5.1263 170.026 4.94727C169.903 4.76497 169.746 4.62174 169.558 4.51758C169.372 4.41341 169.154 4.36133 168.903 4.36133C168.656 4.36133 168.438 4.41341 168.249 4.51758C168.063 4.62174 167.907 4.76497 167.78 4.94727C167.657 5.1263 167.564 5.33301 167.502 5.56738C167.44 5.7985 167.409 6.04427 167.409 6.30469ZM173.352 4.84473V9H172.448V3.7168H173.303L173.352 4.84473ZM173.137 6.1582L172.761 6.14355C172.764 5.78223 172.818 5.44857 172.922 5.14258C173.026 4.83333 173.173 4.56478 173.361 4.33691C173.55 4.10905 173.775 3.93327 174.035 3.80957C174.299 3.68262 174.59 3.61914 174.909 3.61914C175.17 3.61914 175.404 3.65495 175.612 3.72656C175.821 3.79492 175.998 3.9056 176.145 4.05859C176.294 4.21159 176.408 4.41016 176.486 4.6543C176.564 4.89518 176.604 5.18978 176.604 5.53809V9H175.695V5.52832C175.695 5.25163 175.655 5.03027 175.573 4.86426C175.492 4.69499 175.373 4.57292 175.217 4.49805C175.061 4.41992 174.868 4.38086 174.641 4.38086C174.416 4.38086 174.211 4.42806 174.025 4.52246C173.843 4.61686 173.685 4.74707 173.552 4.91309C173.422 5.0791 173.319 5.26953 173.244 5.48438C173.173 5.69596 173.137 5.92057 173.137 6.1582ZM180.422 6.1582V6.10938C180.422 5.39974 180.502 4.75846 180.661 4.18555C180.821 3.60938 181.024 3.10482 181.271 2.67188C181.519 2.23893 181.779 1.88086 182.053 1.59766C182.326 1.3112 182.578 1.10449 182.81 0.977539L183 1.57324C182.808 1.71973 182.613 1.92155 182.414 2.17871C182.219 2.43587 182.038 2.75163 181.872 3.12598C181.709 3.50033 181.577 3.9349 181.477 4.42969C181.376 4.92448 181.325 5.48112 181.325 6.09961V6.16797C181.325 6.78646 181.376 7.34473 181.477 7.84277C181.577 8.33757 181.709 8.77376 181.872 9.15137C182.038 9.52897 182.219 9.84961 182.414 10.1133C182.613 10.3802 182.808 10.5918 183 10.748L182.81 11.2949C182.578 11.168 182.326 10.9613 182.053 10.6748C181.779 10.3916 181.519 10.0335 181.271 9.60059C181.024 9.1709 180.821 8.66797 180.661 8.0918C180.502 7.51562 180.422 6.87109 180.422 6.1582ZM186.755 1.85156V9H185.852V2.97949L184.03 3.64355V2.82812L186.613 1.85156H186.755ZM193.874 4.87891V5.96289C193.874 6.54557 193.822 7.03711 193.718 7.4375C193.614 7.83789 193.464 8.16016 193.269 8.4043C193.073 8.64844 192.837 8.82585 192.561 8.93652C192.287 9.04395 191.978 9.09766 191.633 9.09766C191.359 9.09766 191.107 9.06348 190.876 8.99512C190.645 8.92676 190.437 8.81771 190.251 8.66797C190.069 8.51497 189.912 8.31641 189.782 8.07227C189.652 7.82812 189.553 7.5319 189.484 7.18359C189.416 6.83529 189.382 6.42839 189.382 5.96289V4.87891C189.382 4.29622 189.434 3.80794 189.538 3.41406C189.646 3.02018 189.797 2.70443 189.992 2.4668C190.188 2.22591 190.422 2.05339 190.695 1.94922C190.972 1.84505 191.281 1.79297 191.623 1.79297C191.9 1.79297 192.154 1.82715 192.385 1.89551C192.619 1.96061 192.827 2.06641 193.01 2.21289C193.192 2.35612 193.347 2.54818 193.474 2.78906C193.604 3.02669 193.703 3.31803 193.771 3.66309C193.84 4.00814 193.874 4.41341 193.874 4.87891ZM192.966 6.10938V4.72754C192.966 4.40853 192.946 4.12858 192.907 3.8877C192.871 3.64355 192.818 3.43522 192.746 3.2627C192.674 3.09017 192.583 2.9502 192.473 2.84277C192.365 2.73535 192.24 2.65723 192.097 2.6084C191.957 2.55632 191.799 2.53027 191.623 2.53027C191.408 2.53027 191.218 2.57096 191.052 2.65234C190.886 2.73047 190.746 2.85579 190.632 3.02832C190.521 3.20085 190.437 3.42708 190.378 3.70703C190.319 3.98698 190.29 4.32715 190.29 4.72754V6.10938C190.29 6.42839 190.308 6.70996 190.344 6.9541C190.383 7.19824 190.44 7.40983 190.515 7.58887C190.59 7.76465 190.681 7.90951 190.788 8.02344C190.896 8.13737 191.019 8.22201 191.159 8.27734C191.302 8.32943 191.46 8.35547 191.633 8.35547C191.854 8.35547 192.048 8.31315 192.214 8.22852C192.38 8.14388 192.518 8.01204 192.629 7.83301C192.743 7.65072 192.827 7.41797 192.883 7.13477C192.938 6.84831 192.966 6.50651 192.966 6.10938ZM194.958 3.63379V3.25781C194.958 2.98763 195.017 2.74186 195.134 2.52051C195.251 2.29915 195.419 2.12174 195.637 1.98828C195.855 1.85482 196.114 1.78809 196.413 1.78809C196.719 1.78809 196.979 1.85482 197.194 1.98828C197.412 2.12174 197.58 2.29915 197.697 2.52051C197.814 2.74186 197.873 2.98763 197.873 3.25781V3.63379C197.873 3.89746 197.814 4.13997 197.697 4.36133C197.583 4.58268 197.417 4.76009 197.199 4.89355C196.984 5.02702 196.726 5.09375 196.423 5.09375C196.12 5.09375 195.858 5.02702 195.637 4.89355C195.419 4.76009 195.251 4.58268 195.134 4.36133C195.017 4.13997 194.958 3.89746 194.958 3.63379ZM195.637 3.25781V3.63379C195.637 3.78353 195.664 3.92513 195.72 4.05859C195.778 4.19206 195.866 4.30111 195.983 4.38574C196.101 4.46712 196.247 4.50781 196.423 4.50781C196.599 4.50781 196.743 4.46712 196.857 4.38574C196.971 4.30111 197.056 4.19206 197.111 4.05859C197.167 3.92513 197.194 3.78353 197.194 3.63379V3.25781C197.194 3.10482 197.165 2.96159 197.106 2.82812C197.051 2.69141 196.965 2.58236 196.848 2.50098C196.734 2.41634 196.589 2.37402 196.413 2.37402C196.241 2.37402 196.096 2.41634 195.979 2.50098C195.865 2.58236 195.778 2.69141 195.72 2.82812C195.664 2.96159 195.637 3.10482 195.637 3.25781ZM198.42 7.6377V7.25684C198.42 6.98991 198.479 6.74577 198.596 6.52441C198.713 6.30306 198.881 6.12565 199.099 5.99219C199.317 5.85872 199.576 5.79199 199.875 5.79199C200.181 5.79199 200.441 5.85872 200.656 5.99219C200.874 6.12565 201.042 6.30306 201.159 6.52441C201.276 6.74577 201.335 6.98991 201.335 7.25684V7.6377C201.335 7.90462 201.276 8.14876 201.159 8.37012C201.045 8.59147 200.879 8.76888 200.661 8.90234C200.446 9.03581 200.188 9.10254 199.885 9.10254C199.582 9.10254 199.322 9.03581 199.104 8.90234C198.885 8.76888 198.716 8.59147 198.596 8.37012C198.479 8.14876 198.42 7.90462 198.42 7.6377ZM199.099 7.25684V7.6377C199.099 7.78743 199.126 7.93066 199.182 8.06738C199.24 8.20085 199.328 8.3099 199.445 8.39453C199.562 8.47591 199.709 8.5166 199.885 8.5166C200.061 8.5166 200.205 8.47591 200.319 8.39453C200.437 8.3099 200.523 8.20085 200.578 8.06738C200.633 7.93392 200.661 7.79069 200.661 7.6377V7.25684C200.661 7.10384 200.632 6.96061 200.573 6.82715C200.518 6.69368 200.432 6.58626 200.314 6.50488C200.201 6.42025 200.054 6.37793 199.875 6.37793C199.702 6.37793 199.558 6.42025 199.44 6.50488C199.326 6.58626 199.24 6.69368 199.182 6.82715C199.126 6.96061 199.099 7.10384 199.099 7.25684ZM200.1 2.90137L196.628 8.45801L196.12 8.13574L199.592 2.5791L200.1 2.90137ZM204.538 6.10938V6.1582C204.538 6.87109 204.458 7.51562 204.299 8.0918C204.139 8.66797 203.936 9.1709 203.688 9.60059C203.441 10.0335 203.181 10.3916 202.907 10.6748C202.634 10.9613 202.382 11.168 202.15 11.2949L201.96 10.748C202.152 10.6016 202.346 10.3965 202.541 10.1328C202.736 9.8724 202.917 9.55013 203.083 9.16602C203.249 8.78516 203.382 8.3457 203.483 7.84766C203.584 7.34635 203.635 6.78646 203.635 6.16797V6.09961C203.635 5.48112 203.581 4.92285 203.474 4.4248C203.366 3.9235 203.226 3.48242 203.054 3.10156C202.884 2.7207 202.702 2.40007 202.507 2.13965C202.315 1.87598 202.132 1.67253 201.96 1.5293L202.15 0.977539C202.382 1.10449 202.634 1.3112 202.907 1.59766C203.181 1.88086 203.441 2.23893 203.688 2.67188C203.936 3.10482 204.139 3.60938 204.299 4.18555C204.458 4.75846 204.538 5.39974 204.538 6.10938Z" fill="white"/>
</svg>
