<svg width="460" height="329" viewBox="0 0 460 329" fill="none" xmlns="http://www.w3.org/2000/svg">
<path d="M121.747 135.021C129.399 111.471 144.309 90.9481 164.342 76.3936L233.262 171.254L121.747 135.021Z" fill="#5D225C"/>
<path d="M233.262 54C277.355 54 317.72 78.7356 337.737 118.022C357.754 157.309 354.04 204.504 328.123 240.175L233.262 171.255V54Z" fill="#ADD8E6"/>
<path d="M164.43 76.345C184.486 61.822 208.64 54 233.43 54V171L164.43 76.345Z" fill="#000036"/>
<path d="M164.342 266.115C123.246 236.257 106.049 183.332 121.747 135.021L233.263 171.254L164.342 266.115Z" fill="#FBA723"/>
<path d="M328.123 240.175C309.845 265.334 282.32 282.201 251.605 287.065C220.89 291.93 189.501 284.394 164.342 266.115L233.263 171.254L328.123 240.175Z" fill="#F9200D"/>
<line x1="336.666" y1="115.628" x2="377.915" y2="78.5803" stroke="white"/>
<line x1="271.382" y1="282.677" x2="303.52" y2="320.704" stroke="white"/>
<line x1="77.7385" y1="235.574" x2="121.738" y2="208.574" stroke="white"/>
<line x1="82.1687" y1="87.5293" x2="135.169" y2="106.529" stroke="white"/>
<line x1="167.441" y1="13.7652" x2="192.441" y2="60.7652" stroke="white"/>
<path d="M384.592 74.8447V79H383.688V73.7168H384.543L384.592 74.8447ZM384.377 76.1582L384.001 76.1436C384.004 75.7822 384.058 75.4486 384.162 75.1426C384.266 74.8333 384.413 74.5648 384.602 74.3369C384.79 74.109 385.015 73.9333 385.275 73.8096C385.539 73.6826 385.83 73.6191 386.149 73.6191C386.41 73.6191 386.644 73.6549 386.853 73.7266C387.061 73.7949 387.238 73.9056 387.385 74.0586C387.535 74.2116 387.648 74.4102 387.727 74.6543C387.805 74.8952 387.844 75.1898 387.844 75.5381V79H386.936V75.5283C386.936 75.2516 386.895 75.0303 386.813 74.8643C386.732 74.695 386.613 74.5729 386.457 74.498C386.301 74.4199 386.109 74.3809 385.881 74.3809C385.656 74.3809 385.451 74.4281 385.266 74.5225C385.083 74.6169 384.925 74.7471 384.792 74.9131C384.662 75.0791 384.559 75.2695 384.484 75.4844C384.413 75.696 384.377 75.9206 384.377 76.1582ZM391.408 79.0977C391.04 79.0977 390.707 79.0358 390.407 78.9121C390.111 78.7852 389.855 78.6077 389.641 78.3799C389.429 78.152 389.266 77.8818 389.152 77.5693C389.038 77.2568 388.981 76.915 388.981 76.5439V76.3389C388.981 75.9092 389.045 75.5267 389.172 75.1914C389.299 74.8529 389.471 74.5664 389.689 74.332C389.908 74.0977 390.155 73.9202 390.432 73.7998C390.708 73.6794 390.995 73.6191 391.291 73.6191C391.669 73.6191 391.994 73.6842 392.268 73.8145C392.544 73.9447 392.771 74.127 392.946 74.3613C393.122 74.5924 393.252 74.8659 393.337 75.1816C393.422 75.4941 393.464 75.8359 393.464 76.207V76.6123H389.519V75.875H392.561V75.8066C392.548 75.5723 392.499 75.3444 392.414 75.123C392.333 74.9017 392.202 74.7194 392.023 74.5762C391.844 74.4329 391.6 74.3613 391.291 74.3613C391.086 74.3613 390.897 74.4053 390.725 74.4932C390.552 74.5778 390.404 74.7048 390.28 74.874C390.157 75.0433 390.061 75.25 389.992 75.4941C389.924 75.7383 389.89 76.0199 389.89 76.3389V76.5439C389.89 76.7946 389.924 77.0306 389.992 77.252C390.064 77.4701 390.166 77.6621 390.3 77.8281C390.437 77.9941 390.601 78.1243 390.793 78.2188C390.988 78.3132 391.21 78.3604 391.457 78.3604C391.776 78.3604 392.046 78.2952 392.268 78.165C392.489 78.0348 392.683 77.8607 392.849 77.6426L393.396 78.0771C393.282 78.2497 393.137 78.4141 392.961 78.5703C392.785 78.7266 392.569 78.8535 392.312 78.9512C392.058 79.0488 391.757 79.0977 391.408 79.0977ZM397.751 77.7793V73.7168H398.659V79H397.795L397.751 77.7793ZM397.922 76.666L398.298 76.6562C398.298 77.0078 398.26 77.3333 398.186 77.6328C398.114 77.929 397.997 78.1862 397.834 78.4043C397.671 78.6224 397.458 78.7933 397.194 78.917C396.931 79.0374 396.61 79.0977 396.232 79.0977C395.975 79.0977 395.739 79.0602 395.524 78.9854C395.313 78.9105 395.131 78.7949 394.978 78.6387C394.825 78.4824 394.706 78.279 394.621 78.0283C394.54 77.7777 394.499 77.4766 394.499 77.125V73.7168H395.402V77.1348C395.402 77.3724 395.428 77.5693 395.48 77.7256C395.536 77.8786 395.609 78.0007 395.7 78.0918C395.795 78.1797 395.899 78.2415 396.013 78.2773C396.13 78.3132 396.25 78.3311 396.374 78.3311C396.758 78.3311 397.062 78.2578 397.287 78.1113C397.512 77.9616 397.673 77.7614 397.771 77.5107C397.871 77.2568 397.922 76.9753 397.922 76.666ZM402.248 73.7168V74.4102H399.392V73.7168H402.248ZM400.358 72.4326H401.262V77.6914C401.262 77.8704 401.289 78.0055 401.345 78.0967C401.4 78.1878 401.472 78.248 401.56 78.2773C401.647 78.3066 401.742 78.3213 401.843 78.3213C401.918 78.3213 401.996 78.3148 402.077 78.3018C402.162 78.2855 402.225 78.2725 402.268 78.2627L402.272 79C402.201 79.0228 402.106 79.0439 401.989 79.0635C401.875 79.0863 401.737 79.0977 401.574 79.0977C401.353 79.0977 401.149 79.0537 400.964 78.9658C400.778 78.8779 400.63 78.7314 400.52 78.5264C400.412 78.318 400.358 78.0381 400.358 77.6865V72.4326ZM404.211 74.5469V79H403.308V73.7168H404.187L404.211 74.5469ZM405.861 73.6875L405.856 74.5273C405.782 74.5111 405.71 74.5013 405.642 74.498C405.576 74.4915 405.502 74.4883 405.417 74.4883C405.209 74.4883 405.025 74.5208 404.865 74.5859C404.706 74.651 404.571 74.7422 404.46 74.8594C404.349 74.9766 404.261 75.1165 404.196 75.2793C404.134 75.4388 404.094 75.6146 404.074 75.8066L403.82 75.9531C403.82 75.6341 403.851 75.3346 403.913 75.0547C403.978 74.7747 404.077 74.5273 404.211 74.3125C404.344 74.0944 404.514 73.9251 404.719 73.8047C404.927 73.681 405.174 73.6191 405.461 73.6191C405.526 73.6191 405.601 73.6273 405.686 73.6436C405.77 73.6566 405.829 73.6712 405.861 73.6875ZM406.359 76.417V76.3047C406.359 75.9238 406.415 75.5706 406.525 75.2451C406.636 74.9163 406.796 74.6315 407.004 74.3906C407.212 74.1465 407.465 73.9577 407.761 73.8242C408.057 73.6875 408.389 73.6191 408.757 73.6191C409.128 73.6191 409.462 73.6875 409.758 73.8242C410.057 73.9577 410.311 74.1465 410.52 74.3906C410.731 74.6315 410.892 74.9163 411.003 75.2451C411.114 75.5706 411.169 75.9238 411.169 76.3047V76.417C411.169 76.7979 411.114 77.151 411.003 77.4766C410.892 77.8021 410.731 78.0869 410.52 78.3311C410.311 78.5719 410.059 78.7607 409.763 78.8975C409.47 79.0309 409.138 79.0977 408.767 79.0977C408.396 79.0977 408.062 79.0309 407.766 78.8975C407.469 78.7607 407.215 78.5719 407.004 78.3311C406.796 78.0869 406.636 77.8021 406.525 77.4766C406.415 77.151 406.359 76.7979 406.359 76.417ZM407.263 76.3047V76.417C407.263 76.6807 407.294 76.9297 407.355 77.1641C407.417 77.3952 407.51 77.6003 407.634 77.7793C407.761 77.9583 407.919 78.0999 408.107 78.2041C408.296 78.305 408.516 78.3555 408.767 78.3555C409.014 78.3555 409.23 78.305 409.416 78.2041C409.605 78.0999 409.761 77.9583 409.885 77.7793C410.008 77.6003 410.101 77.3952 410.163 77.1641C410.228 76.9297 410.261 76.6807 410.261 76.417V76.3047C410.261 76.0443 410.228 75.7985 410.163 75.5674C410.101 75.333 410.007 75.1263 409.88 74.9473C409.756 74.765 409.6 74.6217 409.411 74.5176C409.226 74.4134 409.007 74.3613 408.757 74.3613C408.509 74.3613 408.291 74.4134 408.103 74.5176C407.917 74.6217 407.761 74.765 407.634 74.9473C407.51 75.1263 407.417 75.333 407.355 75.5674C407.294 75.7985 407.263 76.0443 407.263 76.3047ZM414.748 76.1582V76.1094C414.748 75.3997 414.828 74.7585 414.987 74.1855C415.147 73.6094 415.35 73.1048 415.598 72.6719C415.845 72.2389 416.105 71.8809 416.379 71.5977C416.652 71.3112 416.905 71.1045 417.136 70.9775L417.326 71.5732C417.134 71.7197 416.939 71.9215 416.74 72.1787C416.545 72.4359 416.364 72.7516 416.198 73.126C416.035 73.5003 415.904 73.9349 415.803 74.4297C415.702 74.9245 415.651 75.4811 415.651 76.0996V76.168C415.651 76.7865 415.702 77.3447 415.803 77.8428C415.904 78.3376 416.035 78.7738 416.198 79.1514C416.364 79.529 416.545 79.8496 416.74 80.1133C416.939 80.3802 417.134 80.5918 417.326 80.748L417.136 81.2949C416.905 81.168 416.652 80.9613 416.379 80.6748C416.105 80.3916 415.845 80.0335 415.598 79.6006C415.35 79.1709 415.147 78.668 414.987 78.0918C414.828 77.5156 414.748 76.8711 414.748 76.1582ZM419.431 75.001H420.075C420.391 75.001 420.651 74.9489 420.856 74.8447C421.065 74.7373 421.219 74.5924 421.32 74.4102C421.424 74.2246 421.477 74.0163 421.477 73.7852C421.477 73.5117 421.431 73.2822 421.34 73.0967C421.249 72.9111 421.112 72.7712 420.93 72.6768C420.747 72.5824 420.516 72.5352 420.236 72.5352C419.982 72.5352 419.758 72.5856 419.562 72.6865C419.37 72.7842 419.219 72.9242 419.108 73.1064C419.001 73.2887 418.947 73.5036 418.947 73.751H418.044C418.044 73.3896 418.135 73.0609 418.317 72.7646C418.5 72.4684 418.755 72.2324 419.084 72.0566C419.416 71.8809 419.8 71.793 420.236 71.793C420.666 71.793 421.042 71.8695 421.364 72.0225C421.687 72.1722 421.937 72.3968 422.116 72.6963C422.295 72.9925 422.385 73.362 422.385 73.8047C422.385 73.9837 422.342 74.1758 422.258 74.3809C422.176 74.5827 422.048 74.7715 421.872 74.9473C421.7 75.123 421.475 75.2679 421.198 75.3818C420.922 75.4925 420.59 75.5479 420.202 75.5479H419.431V75.001ZM419.431 75.7432V75.2012H420.202C420.655 75.2012 421.029 75.2549 421.325 75.3623C421.621 75.4697 421.854 75.613 422.023 75.792C422.196 75.971 422.316 76.168 422.385 76.3828C422.456 76.5944 422.492 76.806 422.492 77.0176C422.492 77.3496 422.435 77.6442 422.321 77.9014C422.211 78.1585 422.053 78.3766 421.848 78.5557C421.646 78.7347 421.408 78.8698 421.135 78.9609C420.861 79.0521 420.563 79.0977 420.241 79.0977C419.932 79.0977 419.641 79.0537 419.367 78.9658C419.097 78.8779 418.858 78.751 418.649 78.585C418.441 78.4157 418.278 78.209 418.161 77.9648C418.044 77.7174 417.985 77.4359 417.985 77.1201H418.889C418.889 77.3675 418.942 77.584 419.05 77.7695C419.16 77.9551 419.317 78.0999 419.519 78.2041C419.724 78.305 419.965 78.3555 420.241 78.3555C420.518 78.3555 420.756 78.3083 420.954 78.2139C421.156 78.1162 421.311 77.9697 421.418 77.7744C421.529 77.5791 421.584 77.3333 421.584 77.0371C421.584 76.7409 421.522 76.4984 421.398 76.3096C421.275 76.1175 421.099 75.9759 420.871 75.8848C420.646 75.7904 420.381 75.7432 420.075 75.7432H419.431ZM424.88 75.6162L424.157 75.4307L424.514 71.8906H428.161V72.7256H425.28L425.065 74.6592C425.196 74.5843 425.36 74.5143 425.559 74.4492C425.76 74.3841 425.992 74.3516 426.252 74.3516C426.581 74.3516 426.875 74.4085 427.136 74.5225C427.396 74.6331 427.618 74.7926 427.8 75.001C427.985 75.2093 428.127 75.46 428.225 75.7529C428.322 76.0459 428.371 76.373 428.371 76.7344C428.371 77.0762 428.324 77.3903 428.229 77.6768C428.138 77.9632 428 78.2139 427.814 78.4287C427.629 78.6403 427.395 78.8047 427.111 78.9219C426.831 79.0391 426.501 79.0977 426.12 79.0977C425.834 79.0977 425.562 79.0586 425.305 78.9805C425.051 78.8991 424.823 78.777 424.621 78.6143C424.423 78.4482 424.26 78.2432 424.133 77.999C424.009 77.7516 423.931 77.4619 423.898 77.1299H424.758C424.797 77.3968 424.875 77.6214 424.992 77.8037C425.109 77.986 425.262 78.1243 425.451 78.2188C425.643 78.3099 425.866 78.3555 426.12 78.3555C426.335 78.3555 426.525 78.318 426.691 78.2432C426.857 78.1683 426.997 78.0609 427.111 77.9209C427.225 77.7809 427.312 77.6117 427.37 77.4131C427.432 77.2145 427.463 76.9915 427.463 76.7441C427.463 76.5195 427.432 76.3112 427.37 76.1191C427.308 75.9271 427.215 75.7594 427.092 75.6162C426.971 75.473 426.823 75.3623 426.647 75.2842C426.472 75.2028 426.27 75.1621 426.042 75.1621C425.739 75.1621 425.51 75.2028 425.354 75.2842C425.201 75.3656 425.043 75.4762 424.88 75.6162ZM429.284 73.6338V73.2578C429.284 72.9876 429.343 72.7419 429.46 72.5205C429.577 72.2992 429.745 72.1217 429.963 71.9883C430.181 71.8548 430.44 71.7881 430.739 71.7881C431.045 71.7881 431.306 71.8548 431.521 71.9883C431.739 72.1217 431.906 72.2992 432.023 72.5205C432.141 72.7419 432.199 72.9876 432.199 73.2578V73.6338C432.199 73.8975 432.141 74.14 432.023 74.3613C431.91 74.5827 431.743 74.7601 431.525 74.8936C431.311 75.027 431.052 75.0938 430.749 75.0938C430.446 75.0938 430.184 75.027 429.963 74.8936C429.745 74.7601 429.577 74.5827 429.46 74.3613C429.343 74.14 429.284 73.8975 429.284 73.6338ZM429.963 73.2578V73.6338C429.963 73.7835 429.991 73.9251 430.046 74.0586C430.104 74.1921 430.192 74.3011 430.31 74.3857C430.427 74.4671 430.573 74.5078 430.749 74.5078C430.925 74.5078 431.07 74.4671 431.184 74.3857C431.298 74.3011 431.382 74.1921 431.438 74.0586C431.493 73.9251 431.521 73.7835 431.521 73.6338V73.2578C431.521 73.1048 431.491 72.9616 431.433 72.8281C431.377 72.6914 431.291 72.5824 431.174 72.501C431.06 72.4163 430.915 72.374 430.739 72.374C430.567 72.374 430.422 72.4163 430.305 72.501C430.191 72.5824 430.104 72.6914 430.046 72.8281C429.991 72.9616 429.963 73.1048 429.963 73.2578ZM432.746 77.6377V77.2568C432.746 76.9899 432.805 76.7458 432.922 76.5244C433.039 76.3031 433.207 76.1257 433.425 75.9922C433.643 75.8587 433.902 75.792 434.201 75.792C434.507 75.792 434.768 75.8587 434.982 75.9922C435.201 76.1257 435.368 76.3031 435.485 76.5244C435.603 76.7458 435.661 76.9899 435.661 77.2568V77.6377C435.661 77.9046 435.603 78.1488 435.485 78.3701C435.371 78.5915 435.205 78.7689 434.987 78.9023C434.772 79.0358 434.514 79.1025 434.211 79.1025C433.908 79.1025 433.648 79.0358 433.43 78.9023C433.212 78.7689 433.042 78.5915 432.922 78.3701C432.805 78.1488 432.746 77.9046 432.746 77.6377ZM433.425 77.2568V77.6377C433.425 77.7874 433.452 77.9307 433.508 78.0674C433.566 78.2008 433.654 78.3099 433.771 78.3945C433.889 78.4759 434.035 78.5166 434.211 78.5166C434.387 78.5166 434.532 78.4759 434.646 78.3945C434.763 78.3099 434.849 78.2008 434.904 78.0674C434.96 77.9339 434.987 77.7907 434.987 77.6377V77.2568C434.987 77.1038 434.958 76.9606 434.899 76.8271C434.844 76.6937 434.758 76.5863 434.641 76.5049C434.527 76.4202 434.38 76.3779 434.201 76.3779C434.029 76.3779 433.884 76.4202 433.767 76.5049C433.653 76.5863 433.566 76.6937 433.508 76.8271C433.452 76.9606 433.425 77.1038 433.425 77.2568ZM434.426 72.9014L430.954 78.458L430.446 78.1357L433.918 72.5791L434.426 72.9014ZM438.864 76.1094V76.1582C438.864 76.8711 438.785 77.5156 438.625 78.0918C438.465 78.668 438.262 79.1709 438.015 79.6006C437.767 80.0335 437.507 80.3916 437.233 80.6748C436.96 80.9613 436.708 81.168 436.477 81.2949L436.286 80.748C436.478 80.6016 436.672 80.3965 436.867 80.1328C437.062 79.8724 437.243 79.5501 437.409 79.166C437.575 78.7852 437.709 78.3457 437.81 77.8477C437.91 77.3464 437.961 76.7865 437.961 76.168V76.0996C437.961 75.4811 437.907 74.9229 437.8 74.4248C437.692 73.9235 437.552 73.4824 437.38 73.1016C437.211 72.7207 437.028 72.4001 436.833 72.1396C436.641 71.876 436.459 71.6725 436.286 71.5293L436.477 70.9775C436.708 71.1045 436.96 71.3112 437.233 71.5977C437.507 71.8809 437.767 72.2389 438.015 72.6719C438.262 73.1048 438.465 73.6094 438.625 74.1855C438.785 74.7585 438.864 75.3997 438.864 76.1094Z" fill="white"/>
<path d="M309.804 324.097V321.377C309.804 321.169 309.761 320.988 309.677 320.835C309.595 320.679 309.472 320.558 309.306 320.474C309.14 320.389 308.935 320.347 308.69 320.347C308.463 320.347 308.262 320.386 308.09 320.464C307.921 320.542 307.787 320.645 307.689 320.771C307.595 320.898 307.548 321.035 307.548 321.182H306.645C306.645 320.993 306.693 320.806 306.791 320.62C306.889 320.435 307.029 320.267 307.211 320.117C307.396 319.964 307.618 319.844 307.875 319.756C308.135 319.665 308.425 319.619 308.744 319.619C309.128 319.619 309.467 319.684 309.76 319.814C310.056 319.945 310.287 320.142 310.453 320.405C310.622 320.666 310.707 320.993 310.707 321.387V323.848C310.707 324.023 310.722 324.211 310.751 324.409C310.784 324.608 310.831 324.779 310.893 324.922V325H309.95C309.905 324.896 309.869 324.757 309.843 324.585C309.817 324.409 309.804 324.246 309.804 324.097ZM309.96 321.797L309.97 322.432H309.057C308.799 322.432 308.57 322.453 308.368 322.495C308.166 322.534 307.997 322.594 307.86 322.676C307.724 322.757 307.619 322.86 307.548 322.983C307.476 323.104 307.44 323.245 307.44 323.408C307.44 323.574 307.478 323.726 307.553 323.862C307.628 323.999 307.74 324.108 307.89 324.189C308.043 324.268 308.23 324.307 308.451 324.307C308.728 324.307 308.972 324.248 309.184 324.131C309.395 324.014 309.563 323.87 309.687 323.701C309.813 323.532 309.882 323.368 309.892 323.208L310.277 323.643C310.255 323.779 310.193 323.931 310.092 324.097C309.991 324.263 309.856 324.422 309.687 324.575C309.521 324.725 309.322 324.85 309.091 324.951C308.863 325.049 308.606 325.098 308.319 325.098C307.961 325.098 307.647 325.028 307.377 324.888C307.11 324.748 306.902 324.561 306.752 324.326C306.605 324.089 306.532 323.823 306.532 323.53C306.532 323.247 306.588 322.998 306.698 322.783C306.809 322.565 306.968 322.384 307.177 322.241C307.385 322.095 307.636 321.984 307.929 321.909C308.222 321.834 308.549 321.797 308.91 321.797H309.96ZM313.026 320.767V325H312.118V319.717H312.978L313.026 320.767ZM312.841 322.158L312.421 322.144C312.424 321.782 312.471 321.449 312.562 321.143C312.654 320.833 312.789 320.565 312.968 320.337C313.147 320.109 313.37 319.933 313.637 319.81C313.904 319.683 314.213 319.619 314.564 319.619C314.812 319.619 315.04 319.655 315.248 319.727C315.456 319.795 315.637 319.904 315.79 320.054C315.943 320.203 316.062 320.396 316.146 320.63C316.231 320.864 316.273 321.147 316.273 321.479V325H315.37V321.523C315.37 321.247 315.323 321.025 315.229 320.859C315.137 320.693 315.007 320.573 314.838 320.498C314.669 320.42 314.47 320.381 314.242 320.381C313.975 320.381 313.752 320.428 313.573 320.522C313.394 320.617 313.251 320.747 313.144 320.913C313.036 321.079 312.958 321.27 312.909 321.484C312.864 321.696 312.841 321.921 312.841 322.158ZM316.264 321.66L315.658 321.846C315.661 321.556 315.709 321.278 315.8 321.011C315.894 320.744 316.029 320.506 316.205 320.298C316.384 320.09 316.604 319.925 316.864 319.805C317.125 319.681 317.423 319.619 317.758 319.619C318.041 319.619 318.292 319.657 318.51 319.731C318.731 319.806 318.917 319.922 319.066 320.078C319.219 320.231 319.335 320.428 319.413 320.669C319.491 320.91 319.53 321.196 319.53 321.528V325H318.622V321.519C318.622 321.222 318.575 320.993 318.48 320.83C318.389 320.664 318.259 320.549 318.09 320.483C317.924 320.415 317.725 320.381 317.494 320.381C317.296 320.381 317.12 320.415 316.967 320.483C316.814 320.552 316.685 320.646 316.581 320.767C316.477 320.884 316.397 321.019 316.342 321.172C316.29 321.325 316.264 321.488 316.264 321.66ZM320.658 322.417V322.305C320.658 321.924 320.714 321.571 320.824 321.245C320.935 320.916 321.094 320.632 321.303 320.391C321.511 320.146 321.763 319.958 322.06 319.824C322.356 319.688 322.688 319.619 323.056 319.619C323.427 319.619 323.76 319.688 324.057 319.824C324.356 319.958 324.61 320.146 324.818 320.391C325.03 320.632 325.191 320.916 325.302 321.245C325.412 321.571 325.468 321.924 325.468 322.305V322.417C325.468 322.798 325.412 323.151 325.302 323.477C325.191 323.802 325.03 324.087 324.818 324.331C324.61 324.572 324.358 324.761 324.062 324.897C323.769 325.031 323.437 325.098 323.065 325.098C322.694 325.098 322.361 325.031 322.064 324.897C321.768 324.761 321.514 324.572 321.303 324.331C321.094 324.087 320.935 323.802 320.824 323.477C320.714 323.151 320.658 322.798 320.658 322.417ZM321.562 322.305V322.417C321.562 322.681 321.592 322.93 321.654 323.164C321.716 323.395 321.809 323.6 321.933 323.779C322.06 323.958 322.217 324.1 322.406 324.204C322.595 324.305 322.815 324.355 323.065 324.355C323.313 324.355 323.529 324.305 323.715 324.204C323.904 324.1 324.06 323.958 324.184 323.779C324.307 323.6 324.4 323.395 324.462 323.164C324.527 322.93 324.56 322.681 324.56 322.417V322.305C324.56 322.044 324.527 321.799 324.462 321.567C324.4 321.333 324.306 321.126 324.179 320.947C324.055 320.765 323.899 320.622 323.71 320.518C323.524 320.413 323.306 320.361 323.056 320.361C322.808 320.361 322.59 320.413 322.401 320.518C322.216 320.622 322.06 320.765 321.933 320.947C321.809 321.126 321.716 321.333 321.654 321.567C321.592 321.799 321.562 322.044 321.562 322.305ZM327.504 320.547V325H326.601V319.717H327.479L327.504 320.547ZM329.154 319.688L329.149 320.527C329.075 320.511 329.003 320.501 328.935 320.498C328.869 320.492 328.795 320.488 328.71 320.488C328.502 320.488 328.318 320.521 328.158 320.586C327.999 320.651 327.864 320.742 327.753 320.859C327.642 320.977 327.554 321.117 327.489 321.279C327.427 321.439 327.387 321.615 327.367 321.807L327.113 321.953C327.113 321.634 327.144 321.335 327.206 321.055C327.271 320.775 327.37 320.527 327.504 320.312C327.637 320.094 327.807 319.925 328.012 319.805C328.22 319.681 328.467 319.619 328.754 319.619C328.819 319.619 328.894 319.627 328.979 319.644C329.063 319.657 329.122 319.671 329.154 319.688ZM332.436 322.158V322.109C332.436 321.4 332.515 320.758 332.675 320.186C332.834 319.609 333.038 319.105 333.285 318.672C333.533 318.239 333.793 317.881 334.066 317.598C334.34 317.311 334.592 317.104 334.823 316.978L335.014 317.573C334.822 317.72 334.626 317.922 334.428 318.179C334.232 318.436 334.052 318.752 333.886 319.126C333.723 319.5 333.591 319.935 333.49 320.43C333.389 320.924 333.339 321.481 333.339 322.1V322.168C333.339 322.786 333.389 323.345 333.49 323.843C333.591 324.338 333.723 324.774 333.886 325.151C334.052 325.529 334.232 325.85 334.428 326.113C334.626 326.38 334.822 326.592 335.014 326.748L334.823 327.295C334.592 327.168 334.34 326.961 334.066 326.675C333.793 326.392 333.533 326.034 333.285 325.601C333.038 325.171 332.834 324.668 332.675 324.092C332.515 323.516 332.436 322.871 332.436 322.158ZM340.458 324.258V325H335.805V324.351L338.134 321.758C338.42 321.439 338.642 321.169 338.798 320.947C338.957 320.723 339.068 320.522 339.13 320.347C339.195 320.168 339.228 319.985 339.228 319.8C339.228 319.565 339.179 319.354 339.081 319.165C338.987 318.973 338.847 318.82 338.661 318.706C338.476 318.592 338.251 318.535 337.987 318.535C337.672 318.535 337.408 318.597 337.196 318.721C336.988 318.841 336.832 319.01 336.728 319.229C336.623 319.447 336.571 319.697 336.571 319.98H335.668C335.668 319.58 335.756 319.214 335.932 318.882C336.107 318.55 336.368 318.286 336.713 318.091C337.058 317.892 337.483 317.793 337.987 317.793C338.437 317.793 338.821 317.873 339.14 318.032C339.459 318.188 339.703 318.41 339.872 318.696C340.045 318.979 340.131 319.312 340.131 319.692C340.131 319.901 340.095 320.112 340.023 320.327C339.955 320.539 339.859 320.75 339.735 320.962C339.615 321.174 339.473 321.382 339.311 321.587C339.151 321.792 338.98 321.994 338.798 322.192L336.894 324.258H340.458ZM342.567 321.616L341.845 321.431L342.201 317.891H345.849V318.726H342.968L342.753 320.659C342.883 320.584 343.048 320.514 343.246 320.449C343.448 320.384 343.679 320.352 343.939 320.352C344.268 320.352 344.563 320.409 344.823 320.522C345.084 320.633 345.305 320.793 345.487 321.001C345.673 321.209 345.814 321.46 345.912 321.753C346.01 322.046 346.059 322.373 346.059 322.734C346.059 323.076 346.011 323.39 345.917 323.677C345.826 323.963 345.688 324.214 345.502 324.429C345.316 324.64 345.082 324.805 344.799 324.922C344.519 325.039 344.188 325.098 343.808 325.098C343.521 325.098 343.249 325.059 342.992 324.98C342.738 324.899 342.51 324.777 342.309 324.614C342.11 324.448 341.947 324.243 341.82 323.999C341.697 323.752 341.618 323.462 341.586 323.13H342.445C342.484 323.397 342.562 323.621 342.68 323.804C342.797 323.986 342.95 324.124 343.139 324.219C343.331 324.31 343.554 324.355 343.808 324.355C344.022 324.355 344.213 324.318 344.379 324.243C344.545 324.168 344.685 324.061 344.799 323.921C344.913 323.781 344.999 323.612 345.058 323.413C345.119 323.215 345.15 322.992 345.15 322.744C345.15 322.52 345.119 322.311 345.058 322.119C344.996 321.927 344.903 321.759 344.779 321.616C344.659 321.473 344.511 321.362 344.335 321.284C344.159 321.203 343.957 321.162 343.729 321.162C343.427 321.162 343.197 321.203 343.041 321.284C342.888 321.366 342.73 321.476 342.567 321.616ZM346.972 319.634V319.258C346.972 318.988 347.03 318.742 347.147 318.521C347.265 318.299 347.432 318.122 347.65 317.988C347.868 317.855 348.127 317.788 348.427 317.788C348.733 317.788 348.993 317.855 349.208 317.988C349.426 318.122 349.594 318.299 349.711 318.521C349.828 318.742 349.887 318.988 349.887 319.258V319.634C349.887 319.897 349.828 320.14 349.711 320.361C349.597 320.583 349.431 320.76 349.213 320.894C348.998 321.027 348.739 321.094 348.437 321.094C348.134 321.094 347.872 321.027 347.65 320.894C347.432 320.76 347.265 320.583 347.147 320.361C347.03 320.14 346.972 319.897 346.972 319.634ZM347.65 319.258V319.634C347.65 319.784 347.678 319.925 347.733 320.059C347.792 320.192 347.88 320.301 347.997 320.386C348.114 320.467 348.261 320.508 348.437 320.508C348.612 320.508 348.757 320.467 348.871 320.386C348.985 320.301 349.07 320.192 349.125 320.059C349.18 319.925 349.208 319.784 349.208 319.634V319.258C349.208 319.105 349.179 318.962 349.12 318.828C349.065 318.691 348.979 318.582 348.861 318.501C348.747 318.416 348.603 318.374 348.427 318.374C348.254 318.374 348.109 318.416 347.992 318.501C347.878 318.582 347.792 318.691 347.733 318.828C347.678 318.962 347.65 319.105 347.65 319.258ZM350.434 323.638V323.257C350.434 322.99 350.492 322.746 350.609 322.524C350.727 322.303 350.894 322.126 351.112 321.992C351.33 321.859 351.589 321.792 351.889 321.792C352.195 321.792 352.455 321.859 352.67 321.992C352.888 322.126 353.056 322.303 353.173 322.524C353.29 322.746 353.349 322.99 353.349 323.257V323.638C353.349 323.905 353.29 324.149 353.173 324.37C353.059 324.591 352.893 324.769 352.675 324.902C352.46 325.036 352.201 325.103 351.898 325.103C351.596 325.103 351.335 325.036 351.117 324.902C350.899 324.769 350.73 324.591 350.609 324.37C350.492 324.149 350.434 323.905 350.434 323.638ZM351.112 323.257V323.638C351.112 323.787 351.14 323.931 351.195 324.067C351.254 324.201 351.342 324.31 351.459 324.395C351.576 324.476 351.723 324.517 351.898 324.517C352.074 324.517 352.219 324.476 352.333 324.395C352.45 324.31 352.536 324.201 352.592 324.067C352.647 323.934 352.675 323.791 352.675 323.638V323.257C352.675 323.104 352.646 322.961 352.587 322.827C352.532 322.694 352.445 322.586 352.328 322.505C352.214 322.42 352.068 322.378 351.889 322.378C351.716 322.378 351.571 322.42 351.454 322.505C351.34 322.586 351.254 322.694 351.195 322.827C351.14 322.961 351.112 323.104 351.112 323.257ZM352.113 318.901L348.642 324.458L348.134 324.136L351.605 318.579L352.113 318.901ZM356.552 322.109V322.158C356.552 322.871 356.472 323.516 356.312 324.092C356.153 324.668 355.95 325.171 355.702 325.601C355.455 326.034 355.194 326.392 354.921 326.675C354.647 326.961 354.395 327.168 354.164 327.295L353.974 326.748C354.166 326.602 354.359 326.396 354.555 326.133C354.75 325.872 354.931 325.55 355.097 325.166C355.263 324.785 355.396 324.346 355.497 323.848C355.598 323.346 355.648 322.786 355.648 322.168V322.1C355.648 321.481 355.595 320.923 355.487 320.425C355.38 319.924 355.24 319.482 355.067 319.102C354.898 318.721 354.716 318.4 354.521 318.14C354.328 317.876 354.146 317.673 353.974 317.529L354.164 316.978C354.395 317.104 354.647 317.311 354.921 317.598C355.194 317.881 355.455 318.239 355.702 318.672C355.95 319.105 356.153 319.609 356.312 320.186C356.472 320.758 356.552 321.4 356.552 322.109Z" fill="white"/>
<path d="M3.80371 239.097V236.377C3.80371 236.169 3.76139 235.988 3.67676 235.835C3.59538 235.679 3.47168 235.558 3.30566 235.474C3.13965 235.389 2.93457 235.347 2.69043 235.347C2.46257 235.347 2.26237 235.386 2.08984 235.464C1.92057 235.542 1.78711 235.645 1.68945 235.771C1.59505 235.898 1.54785 236.035 1.54785 236.182H0.644531C0.644531 235.993 0.693359 235.806 0.791016 235.62C0.888672 235.435 1.02865 235.267 1.21094 235.117C1.39648 234.964 1.61784 234.844 1.875 234.756C2.13542 234.665 2.42513 234.619 2.74414 234.619C3.12826 234.619 3.4668 234.684 3.75977 234.814C4.05599 234.945 4.28711 235.142 4.45312 235.405C4.6224 235.666 4.70703 235.993 4.70703 236.387V238.848C4.70703 239.023 4.72168 239.211 4.75098 239.409C4.78353 239.608 4.83073 239.779 4.89258 239.922V240H3.9502C3.90462 239.896 3.86882 239.757 3.84277 239.585C3.81673 239.409 3.80371 239.246 3.80371 239.097ZM3.95996 236.797L3.96973 237.432H3.05664C2.79948 237.432 2.56999 237.453 2.36816 237.495C2.16634 237.534 1.99707 237.594 1.86035 237.676C1.72363 237.757 1.61947 237.86 1.54785 237.983C1.47624 238.104 1.44043 238.245 1.44043 238.408C1.44043 238.574 1.47786 238.726 1.55273 238.862C1.6276 238.999 1.73991 239.108 1.88965 239.189C2.04264 239.268 2.22982 239.307 2.45117 239.307C2.72786 239.307 2.97201 239.248 3.18359 239.131C3.39518 239.014 3.56283 238.87 3.68652 238.701C3.81348 238.532 3.88184 238.368 3.8916 238.208L4.27734 238.643C4.25456 238.779 4.19271 238.931 4.0918 239.097C3.99089 239.263 3.85579 239.422 3.68652 239.575C3.52051 239.725 3.32194 239.85 3.09082 239.951C2.86296 240.049 2.60579 240.098 2.31934 240.098C1.96126 240.098 1.64714 240.028 1.37695 239.888C1.11003 239.748 0.901693 239.561 0.751953 239.326C0.605469 239.089 0.532227 238.823 0.532227 238.53C0.532227 238.247 0.587565 237.998 0.698242 237.783C0.808919 237.565 0.968424 237.384 1.17676 237.241C1.38509 237.095 1.63574 236.984 1.92871 236.909C2.22168 236.834 2.54883 236.797 2.91016 236.797H3.95996ZM9.45801 238.975V232.5H10.3662V240H9.53613L9.45801 238.975ZM5.90332 237.417V237.314C5.90332 236.911 5.95215 236.545 6.0498 236.216C6.15072 235.884 6.29232 235.599 6.47461 235.361C6.66016 235.124 6.87988 234.941 7.13379 234.814C7.39095 234.684 7.67741 234.619 7.99316 234.619C8.3252 234.619 8.61491 234.678 8.8623 234.795C9.11296 234.909 9.32454 235.076 9.49707 235.298C9.67285 235.516 9.8112 235.78 9.91211 236.089C10.013 236.398 10.083 236.748 10.1221 237.139V237.588C10.0863 237.975 10.0163 238.324 9.91211 238.633C9.8112 238.942 9.67285 239.206 9.49707 239.424C9.32454 239.642 9.11296 239.81 8.8623 239.927C8.61165 240.041 8.31868 240.098 7.9834 240.098C7.67415 240.098 7.39095 240.031 7.13379 239.897C6.87988 239.764 6.66016 239.577 6.47461 239.336C6.29232 239.095 6.15072 238.812 6.0498 238.486C5.95215 238.158 5.90332 237.801 5.90332 237.417ZM6.81152 237.314V237.417C6.81152 237.681 6.83757 237.928 6.88965 238.159C6.94499 238.39 7.02962 238.594 7.14355 238.77C7.25749 238.945 7.40234 239.084 7.57812 239.185C7.75391 239.282 7.96387 239.331 8.20801 239.331C8.50749 239.331 8.75326 239.268 8.94531 239.141C9.14062 239.014 9.29688 238.846 9.41406 238.638C9.53125 238.429 9.6224 238.203 9.6875 237.959V236.782C9.64844 236.603 9.59147 236.431 9.5166 236.265C9.44499 236.095 9.35059 235.946 9.2334 235.815C9.11947 235.682 8.97786 235.576 8.80859 235.498C8.64258 235.42 8.44564 235.381 8.21777 235.381C7.97038 235.381 7.75716 235.433 7.57812 235.537C7.40234 235.638 7.25749 235.778 7.14355 235.957C7.02962 236.133 6.94499 236.338 6.88965 236.572C6.83757 236.803 6.81152 237.051 6.81152 237.314ZM12.6709 235.767V240H11.7627V234.717H12.6221L12.6709 235.767ZM12.4854 237.158L12.0654 237.144C12.0687 236.782 12.1159 236.449 12.207 236.143C12.2982 235.833 12.4333 235.565 12.6123 235.337C12.7913 235.109 13.0143 234.933 13.2812 234.81C13.5482 234.683 13.8574 234.619 14.209 234.619C14.4564 234.619 14.6842 234.655 14.8926 234.727C15.1009 234.795 15.2816 234.904 15.4346 235.054C15.5876 235.203 15.7064 235.396 15.791 235.63C15.8757 235.864 15.918 236.147 15.918 236.479V240H15.0146V236.523C15.0146 236.247 14.9674 236.025 14.873 235.859C14.7819 235.693 14.6517 235.573 14.4824 235.498C14.3132 235.42 14.1146 235.381 13.8867 235.381C13.6198 235.381 13.3968 235.428 13.2178 235.522C13.0387 235.617 12.8955 235.747 12.7881 235.913C12.6807 236.079 12.6025 236.27 12.5537 236.484C12.5081 236.696 12.4854 236.921 12.4854 237.158ZM15.9082 236.66L15.3027 236.846C15.306 236.556 15.3532 236.278 15.4443 236.011C15.5387 235.744 15.6738 235.506 15.8496 235.298C16.0286 235.09 16.2484 234.925 16.5088 234.805C16.7692 234.681 17.0671 234.619 17.4023 234.619C17.6855 234.619 17.9362 234.657 18.1543 234.731C18.3757 234.806 18.5612 234.922 18.7109 235.078C18.8639 235.231 18.9795 235.428 19.0576 235.669C19.1357 235.91 19.1748 236.196 19.1748 236.528V240H18.2666V236.519C18.2666 236.222 18.2194 235.993 18.125 235.83C18.0339 235.664 17.9036 235.549 17.7344 235.483C17.5684 235.415 17.3698 235.381 17.1387 235.381C16.9401 235.381 16.7643 235.415 16.6113 235.483C16.4583 235.552 16.3298 235.646 16.2256 235.767C16.1214 235.884 16.0417 236.019 15.9863 236.172C15.9342 236.325 15.9082 236.488 15.9082 236.66ZM21.5234 234.717V240H20.6152V234.717H21.5234ZM20.5469 233.315C20.5469 233.169 20.5908 233.045 20.6787 232.944C20.7699 232.843 20.9033 232.793 21.0791 232.793C21.2516 232.793 21.3835 232.843 21.4746 232.944C21.569 233.045 21.6162 233.169 21.6162 233.315C21.6162 233.455 21.569 233.576 21.4746 233.677C21.3835 233.774 21.2516 233.823 21.0791 233.823C20.9033 233.823 20.7699 233.774 20.6787 233.677C20.5908 233.576 20.5469 233.455 20.5469 233.315ZM23.877 235.547V240H22.9736V234.717H23.8525L23.877 235.547ZM25.5273 234.688L25.5225 235.527C25.4476 235.511 25.376 235.501 25.3076 235.498C25.2425 235.492 25.1676 235.488 25.083 235.488C24.8747 235.488 24.6908 235.521 24.5312 235.586C24.3717 235.651 24.2367 235.742 24.126 235.859C24.0153 235.977 23.9274 236.117 23.8623 236.279C23.8005 236.439 23.7598 236.615 23.7402 236.807L23.4863 236.953C23.4863 236.634 23.5173 236.335 23.5791 236.055C23.6442 235.775 23.7435 235.527 23.877 235.312C24.0104 235.094 24.1797 234.925 24.3848 234.805C24.5931 234.681 24.8405 234.619 25.127 234.619C25.1921 234.619 25.2669 234.627 25.3516 234.644C25.4362 234.657 25.4948 234.671 25.5273 234.688ZM29.2822 239.097V236.377C29.2822 236.169 29.2399 235.988 29.1553 235.835C29.0739 235.679 28.9502 235.558 28.7842 235.474C28.6182 235.389 28.4131 235.347 28.1689 235.347C27.9411 235.347 27.7409 235.386 27.5684 235.464C27.3991 235.542 27.2656 235.645 27.168 235.771C27.0736 235.898 27.0264 236.035 27.0264 236.182H26.123C26.123 235.993 26.1719 235.806 26.2695 235.62C26.3672 235.435 26.5072 235.267 26.6895 235.117C26.875 234.964 27.0964 234.844 27.3535 234.756C27.6139 234.665 27.9036 234.619 28.2227 234.619C28.6068 234.619 28.9453 234.684 29.2383 234.814C29.5345 234.945 29.7656 235.142 29.9316 235.405C30.1009 235.666 30.1855 235.993 30.1855 236.387V238.848C30.1855 239.023 30.2002 239.211 30.2295 239.409C30.262 239.608 30.3092 239.779 30.3711 239.922V240H29.4287C29.3831 239.896 29.3473 239.757 29.3213 239.585C29.2952 239.409 29.2822 239.246 29.2822 239.097ZM29.4385 236.797L29.4482 237.432H28.5352C28.278 237.432 28.0485 237.453 27.8467 237.495C27.6449 237.534 27.4756 237.594 27.3389 237.676C27.2021 237.757 27.098 237.86 27.0264 237.983C26.9548 238.104 26.9189 238.245 26.9189 238.408C26.9189 238.574 26.9564 238.726 27.0312 238.862C27.1061 238.999 27.2184 239.108 27.3682 239.189C27.5212 239.268 27.7083 239.307 27.9297 239.307C28.2064 239.307 28.4505 239.248 28.6621 239.131C28.8737 239.014 29.0413 238.87 29.165 238.701C29.292 238.532 29.3604 238.368 29.3701 238.208L29.7559 238.643C29.7331 238.779 29.6712 238.931 29.5703 239.097C29.4694 239.263 29.3343 239.422 29.165 239.575C28.999 239.725 28.8005 239.85 28.5693 239.951C28.3415 240.049 28.0843 240.098 27.7979 240.098C27.4398 240.098 27.1257 240.028 26.8555 239.888C26.5885 239.748 26.3802 239.561 26.2305 239.326C26.084 239.089 26.0107 238.823 26.0107 238.53C26.0107 238.247 26.0661 237.998 26.1768 237.783C26.2874 237.565 26.4469 237.384 26.6553 237.241C26.8636 237.095 27.1143 236.984 27.4072 236.909C27.7002 236.834 28.0273 236.797 28.3887 236.797H29.4385ZM33.7207 239.355C33.9355 239.355 34.1341 239.312 34.3164 239.224C34.4987 239.136 34.6484 239.015 34.7656 238.862C34.8828 238.706 34.9495 238.529 34.9658 238.33H35.8252C35.8089 238.643 35.7031 238.934 35.5078 239.204C35.3158 239.471 35.0635 239.688 34.751 239.854C34.4385 240.016 34.0951 240.098 33.7207 240.098C33.3236 240.098 32.9769 240.028 32.6807 239.888C32.3877 239.748 32.1436 239.556 31.9482 239.312C31.7562 239.067 31.6113 238.787 31.5137 238.472C31.4193 238.153 31.3721 237.816 31.3721 237.461V237.256C31.3721 236.901 31.4193 236.566 31.5137 236.25C31.6113 235.931 31.7562 235.649 31.9482 235.405C32.1436 235.161 32.3877 234.969 32.6807 234.829C32.9769 234.689 33.3236 234.619 33.7207 234.619C34.1341 234.619 34.4954 234.704 34.8047 234.873C35.1139 235.039 35.3564 235.267 35.5322 235.557C35.7113 235.843 35.8089 236.169 35.8252 236.533H34.9658C34.9495 236.315 34.8877 236.118 34.7803 235.942C34.6761 235.767 34.5329 235.627 34.3506 235.522C34.1715 235.415 33.9616 235.361 33.7207 235.361C33.444 235.361 33.2113 235.417 33.0225 235.527C32.8369 235.635 32.6888 235.781 32.5781 235.967C32.4707 236.149 32.3926 236.353 32.3438 236.577C32.2982 236.799 32.2754 237.025 32.2754 237.256V237.461C32.2754 237.692 32.2982 237.92 32.3438 238.145C32.3893 238.369 32.4658 238.573 32.5732 238.755C32.6839 238.937 32.832 239.084 33.0176 239.194C33.2064 239.302 33.4408 239.355 33.7207 239.355ZM33.2227 240.049H33.8721L33.8135 240.308C34.0023 240.34 34.1732 240.418 34.3262 240.542C34.4824 240.666 34.5605 240.869 34.5605 241.152C34.5605 241.305 34.528 241.444 34.4629 241.567C34.401 241.694 34.3083 241.802 34.1846 241.89C34.0609 241.981 33.9062 242.051 33.7207 242.1C33.5384 242.148 33.3252 242.173 33.0811 242.173L33.0469 241.65C33.1966 241.65 33.3317 241.634 33.4521 241.602C33.5758 241.569 33.6735 241.517 33.7451 241.445C33.82 241.374 33.8574 241.281 33.8574 241.167C33.8574 241.06 33.8298 240.975 33.7744 240.913C33.7191 240.851 33.6328 240.804 33.5156 240.771C33.4017 240.742 33.2536 240.721 33.0713 240.708L33.2227 240.049ZM39.9561 239.097V236.377C39.9561 236.169 39.9137 235.988 39.8291 235.835C39.7477 235.679 39.624 235.558 39.458 235.474C39.292 235.389 39.0869 235.347 38.8428 235.347C38.6149 235.347 38.4147 235.386 38.2422 235.464C38.0729 235.542 37.9395 235.645 37.8418 235.771C37.7474 235.898 37.7002 236.035 37.7002 236.182H36.7969C36.7969 235.993 36.8457 235.806 36.9434 235.62C37.041 235.435 37.181 235.267 37.3633 235.117C37.5488 234.964 37.7702 234.844 38.0273 234.756C38.2878 234.665 38.5775 234.619 38.8965 234.619C39.2806 234.619 39.6191 234.684 39.9121 234.814C40.2083 234.945 40.4395 235.142 40.6055 235.405C40.7747 235.666 40.8594 235.993 40.8594 236.387V238.848C40.8594 239.023 40.874 239.211 40.9033 239.409C40.9359 239.608 40.9831 239.779 41.0449 239.922V240H40.1025C40.057 239.896 40.0212 239.757 39.9951 239.585C39.9691 239.409 39.9561 239.246 39.9561 239.097ZM40.1123 236.797L40.1221 237.432H39.209C38.9518 237.432 38.7223 237.453 38.5205 237.495C38.3187 237.534 38.1494 237.594 38.0127 237.676C37.876 237.757 37.7718 237.86 37.7002 237.983C37.6286 238.104 37.5928 238.245 37.5928 238.408C37.5928 238.574 37.6302 238.726 37.7051 238.862C37.7799 238.999 37.8923 239.108 38.042 239.189C38.195 239.268 38.3822 239.307 38.6035 239.307C38.8802 239.307 39.1243 239.248 39.3359 239.131C39.5475 239.014 39.7152 238.87 39.8389 238.701C39.9658 238.532 40.0342 238.368 40.0439 238.208L40.4297 238.643C40.4069 238.779 40.3451 238.931 40.2441 239.097C40.1432 239.263 40.0081 239.422 39.8389 239.575C39.6729 239.725 39.4743 239.85 39.2432 239.951C39.0153 240.049 38.7581 240.098 38.4717 240.098C38.1136 240.098 37.7995 240.028 37.5293 239.888C37.2624 239.748 37.054 239.561 36.9043 239.326C36.7578 239.089 36.6846 238.823 36.6846 238.53C36.6846 238.247 36.7399 237.998 36.8506 237.783C36.9613 237.565 37.1208 237.384 37.3291 237.241C37.5374 237.095 37.7881 236.984 38.0811 236.909C38.374 236.834 38.7012 236.797 39.0625 236.797H40.1123ZM40.1172 232.598L40.7275 232.651C40.7275 232.889 40.6803 233.097 40.5859 233.276C40.4915 233.455 40.3646 233.594 40.2051 233.691C40.0488 233.789 39.8714 233.838 39.6729 233.838C39.5068 233.838 39.3701 233.815 39.2627 233.77C39.1553 233.721 39.0592 233.667 38.9746 233.608C38.89 233.547 38.8005 233.493 38.7061 233.447C38.6149 233.398 38.501 233.374 38.3643 233.374C38.2275 233.374 38.112 233.426 38.0176 233.53C37.9264 233.634 37.8809 233.763 37.8809 233.916L37.2705 233.887C37.2705 233.649 37.3161 233.441 37.4072 233.262C37.5016 233.079 37.6286 232.938 37.7881 232.837C37.9476 232.733 38.125 232.681 38.3203 232.681C38.4603 232.681 38.5824 232.705 38.6865 232.754C38.7939 232.799 38.8949 232.853 38.9893 232.915C39.0837 232.974 39.1813 233.027 39.2822 233.076C39.3831 233.122 39.4987 233.145 39.6289 233.145C39.7656 233.145 39.8812 233.092 39.9756 232.988C40.07 232.881 40.1172 232.751 40.1172 232.598ZM42.041 237.417V237.305C42.041 236.924 42.0964 236.571 42.207 236.245C42.3177 235.916 42.4772 235.632 42.6855 235.391C42.8939 235.146 43.1462 234.958 43.4424 234.824C43.7386 234.688 44.0706 234.619 44.4385 234.619C44.8096 234.619 45.1432 234.688 45.4395 234.824C45.7389 234.958 45.9928 235.146 46.2012 235.391C46.4128 235.632 46.5739 235.916 46.6846 236.245C46.7952 236.571 46.8506 236.924 46.8506 237.305V237.417C46.8506 237.798 46.7952 238.151 46.6846 238.477C46.5739 238.802 46.4128 239.087 46.2012 239.331C45.9928 239.572 45.7406 239.761 45.4443 239.897C45.1514 240.031 44.8193 240.098 44.4482 240.098C44.0771 240.098 43.7435 240.031 43.4473 239.897C43.151 239.761 42.8971 239.572 42.6855 239.331C42.4772 239.087 42.3177 238.802 42.207 238.477C42.0964 238.151 42.041 237.798 42.041 237.417ZM42.9443 237.305V237.417C42.9443 237.681 42.9753 237.93 43.0371 238.164C43.099 238.395 43.1917 238.6 43.3154 238.779C43.4424 238.958 43.6003 239.1 43.7891 239.204C43.9779 239.305 44.1976 239.355 44.4482 239.355C44.6956 239.355 44.9121 239.305 45.0977 239.204C45.2865 239.1 45.4427 238.958 45.5664 238.779C45.6901 238.6 45.7829 238.395 45.8447 238.164C45.9098 237.93 45.9424 237.681 45.9424 237.417V237.305C45.9424 237.044 45.9098 236.799 45.8447 236.567C45.7829 236.333 45.6885 236.126 45.5615 235.947C45.4378 235.765 45.2816 235.622 45.0928 235.518C44.9072 235.413 44.6891 235.361 44.4385 235.361C44.1911 235.361 43.973 235.413 43.7842 235.518C43.5986 235.622 43.4424 235.765 43.3154 235.947C43.1917 236.126 43.099 236.333 43.0371 236.567C42.9753 236.799 42.9443 237.044 42.9443 237.305ZM50.4297 237.158V237.109C50.4297 236.4 50.5094 235.758 50.6689 235.186C50.8285 234.609 51.0319 234.105 51.2793 233.672C51.5267 233.239 51.7871 232.881 52.0605 232.598C52.334 232.311 52.5863 232.104 52.8174 231.978L53.0078 232.573C52.8158 232.72 52.6204 232.922 52.4219 233.179C52.2266 233.436 52.0459 233.752 51.8799 234.126C51.7171 234.5 51.5853 234.935 51.4844 235.43C51.3835 235.924 51.333 236.481 51.333 237.1V237.168C51.333 237.786 51.3835 238.345 51.4844 238.843C51.5853 239.338 51.7171 239.774 51.8799 240.151C52.0459 240.529 52.2266 240.85 52.4219 241.113C52.6204 241.38 52.8158 241.592 53.0078 241.748L52.8174 242.295C52.5863 242.168 52.334 241.961 52.0605 241.675C51.7871 241.392 51.5267 241.034 51.2793 240.601C51.0319 240.171 50.8285 239.668 50.6689 239.092C50.5094 238.516 50.4297 237.871 50.4297 237.158ZM58.4521 239.258V240H53.7988V239.351L56.1279 236.758C56.4144 236.439 56.6357 236.169 56.792 235.947C56.9515 235.723 57.0622 235.522 57.124 235.347C57.1891 235.168 57.2217 234.985 57.2217 234.8C57.2217 234.565 57.1729 234.354 57.0752 234.165C56.9808 233.973 56.8408 233.82 56.6553 233.706C56.4697 233.592 56.2451 233.535 55.9814 233.535C55.6657 233.535 55.402 233.597 55.1904 233.721C54.9821 233.841 54.8258 234.01 54.7217 234.229C54.6175 234.447 54.5654 234.697 54.5654 234.98H53.6621C53.6621 234.58 53.75 234.214 53.9258 233.882C54.1016 233.55 54.362 233.286 54.707 233.091C55.0521 232.892 55.4769 232.793 55.9814 232.793C56.4307 232.793 56.8148 232.873 57.1338 233.032C57.4528 233.188 57.6969 233.41 57.8662 233.696C58.0387 233.979 58.125 234.312 58.125 234.692C58.125 234.901 58.0892 235.112 58.0176 235.327C57.9492 235.539 57.8532 235.75 57.7295 235.962C57.609 236.174 57.4674 236.382 57.3047 236.587C57.1452 236.792 56.9743 236.994 56.792 237.192L54.8877 239.258H58.4521ZM63.8818 235.879V236.963C63.8818 237.546 63.8298 238.037 63.7256 238.438C63.6214 238.838 63.4717 239.16 63.2764 239.404C63.0811 239.648 62.8451 239.826 62.5684 239.937C62.2949 240.044 61.9857 240.098 61.6406 240.098C61.3672 240.098 61.1149 240.063 60.8838 239.995C60.6527 239.927 60.4443 239.818 60.2588 239.668C60.0765 239.515 59.9202 239.316 59.79 239.072C59.6598 238.828 59.5605 238.532 59.4922 238.184C59.4238 237.835 59.3896 237.428 59.3896 236.963V235.879C59.3896 235.296 59.4417 234.808 59.5459 234.414C59.6533 234.02 59.8047 233.704 60 233.467C60.1953 233.226 60.4297 233.053 60.7031 232.949C60.9798 232.845 61.2891 232.793 61.6309 232.793C61.9076 232.793 62.1615 232.827 62.3926 232.896C62.627 232.961 62.8353 233.066 63.0176 233.213C63.1999 233.356 63.3545 233.548 63.4814 233.789C63.6117 234.027 63.7109 234.318 63.7793 234.663C63.8477 235.008 63.8818 235.413 63.8818 235.879ZM62.9736 237.109V235.728C62.9736 235.409 62.9541 235.129 62.915 234.888C62.8792 234.644 62.8255 234.435 62.7539 234.263C62.6823 234.09 62.5911 233.95 62.4805 233.843C62.373 233.735 62.2477 233.657 62.1045 233.608C61.9645 233.556 61.8066 233.53 61.6309 233.53C61.416 233.53 61.2256 233.571 61.0596 233.652C60.8936 233.73 60.7536 233.856 60.6396 234.028C60.529 234.201 60.4443 234.427 60.3857 234.707C60.3271 234.987 60.2979 235.327 60.2979 235.728V237.109C60.2979 237.428 60.3158 237.71 60.3516 237.954C60.3906 238.198 60.4476 238.41 60.5225 238.589C60.5973 238.765 60.6885 238.91 60.7959 239.023C60.9033 239.137 61.027 239.222 61.167 239.277C61.3102 239.329 61.4681 239.355 61.6406 239.355C61.862 239.355 62.0557 239.313 62.2217 239.229C62.3877 239.144 62.526 239.012 62.6367 238.833C62.7507 238.651 62.8353 238.418 62.8906 238.135C62.946 237.848 62.9736 237.507 62.9736 237.109ZM64.9658 234.634V234.258C64.9658 233.988 65.0244 233.742 65.1416 233.521C65.2588 233.299 65.4264 233.122 65.6445 232.988C65.8626 232.855 66.1214 232.788 66.4209 232.788C66.7269 232.788 66.9873 232.855 67.2021 232.988C67.4202 233.122 67.5879 233.299 67.7051 233.521C67.8223 233.742 67.8809 233.988 67.8809 234.258V234.634C67.8809 234.897 67.8223 235.14 67.7051 235.361C67.5911 235.583 67.4251 235.76 67.207 235.894C66.9922 236.027 66.7334 236.094 66.4307 236.094C66.1279 236.094 65.8659 236.027 65.6445 235.894C65.4264 235.76 65.2588 235.583 65.1416 235.361C65.0244 235.14 64.9658 234.897 64.9658 234.634ZM65.6445 234.258V234.634C65.6445 234.784 65.6722 234.925 65.7275 235.059C65.7861 235.192 65.874 235.301 65.9912 235.386C66.1084 235.467 66.2549 235.508 66.4307 235.508C66.6064 235.508 66.7513 235.467 66.8652 235.386C66.9792 235.301 67.0638 235.192 67.1191 235.059C67.1745 234.925 67.2021 234.784 67.2021 234.634V234.258C67.2021 234.105 67.1729 233.962 67.1143 233.828C67.0589 233.691 66.9727 233.582 66.8555 233.501C66.7415 233.416 66.5967 233.374 66.4209 233.374C66.2484 233.374 66.1035 233.416 65.9863 233.501C65.8724 233.582 65.7861 233.691 65.7275 233.828C65.6722 233.962 65.6445 234.105 65.6445 234.258ZM68.4277 238.638V238.257C68.4277 237.99 68.4863 237.746 68.6035 237.524C68.7207 237.303 68.8883 237.126 69.1064 236.992C69.3245 236.859 69.5833 236.792 69.8828 236.792C70.1888 236.792 70.4492 236.859 70.6641 236.992C70.8822 237.126 71.0498 237.303 71.167 237.524C71.2842 237.746 71.3428 237.99 71.3428 238.257V238.638C71.3428 238.905 71.2842 239.149 71.167 239.37C71.0531 239.591 70.887 239.769 70.6689 239.902C70.4541 240.036 70.1953 240.103 69.8926 240.103C69.5898 240.103 69.3294 240.036 69.1113 239.902C68.8932 239.769 68.724 239.591 68.6035 239.37C68.4863 239.149 68.4277 238.905 68.4277 238.638ZM69.1064 238.257V238.638C69.1064 238.787 69.1341 238.931 69.1895 239.067C69.248 239.201 69.3359 239.31 69.4531 239.395C69.5703 239.476 69.7168 239.517 69.8926 239.517C70.0684 239.517 70.2132 239.476 70.3271 239.395C70.4443 239.31 70.5306 239.201 70.5859 239.067C70.6413 238.934 70.6689 238.791 70.6689 238.638V238.257C70.6689 238.104 70.6396 237.961 70.5811 237.827C70.5257 237.694 70.4395 237.586 70.3223 237.505C70.2083 237.42 70.0618 237.378 69.8828 237.378C69.7103 237.378 69.5654 237.42 69.4482 237.505C69.3343 237.586 69.248 237.694 69.1895 237.827C69.1341 237.961 69.1064 238.104 69.1064 238.257ZM70.1074 233.901L66.6357 239.458L66.1279 239.136L69.5996 233.579L70.1074 233.901ZM74.5459 237.109V237.158C74.5459 237.871 74.4661 238.516 74.3066 239.092C74.1471 239.668 73.9437 240.171 73.6963 240.601C73.4489 241.034 73.1885 241.392 72.915 241.675C72.6416 241.961 72.3893 242.168 72.1582 242.295L71.9678 241.748C72.1598 241.602 72.3535 241.396 72.5488 241.133C72.7441 240.872 72.9248 240.55 73.0908 240.166C73.2568 239.785 73.3903 239.346 73.4912 238.848C73.5921 238.346 73.6426 237.786 73.6426 237.168V237.1C73.6426 236.481 73.5889 235.923 73.4814 235.425C73.374 234.924 73.234 234.482 73.0615 234.102C72.8923 233.721 72.71 233.4 72.5146 233.14C72.3226 232.876 72.1403 232.673 71.9678 232.529L72.1582 231.978C72.3893 232.104 72.6416 232.311 72.915 232.598C73.1885 232.881 73.4489 233.239 73.6963 233.672C73.9437 234.105 74.1471 234.609 74.3066 235.186C74.4661 235.758 74.5459 236.4 74.5459 237.109Z" fill="white"/>
<path d="M26.0186 86.9746V80.5H26.9268V88H26.0967L26.0186 86.9746ZM22.4639 85.417V85.3145C22.4639 84.9108 22.5127 84.5446 22.6104 84.2158C22.7113 83.8838 22.8529 83.599 23.0352 83.3613C23.2207 83.1237 23.4404 82.9414 23.6943 82.8145C23.9515 82.6842 24.238 82.6191 24.5537 82.6191C24.8857 82.6191 25.1755 82.6777 25.4229 82.7949C25.6735 82.9089 25.8851 83.0765 26.0576 83.2979C26.2334 83.516 26.3717 83.7796 26.4727 84.0889C26.5736 84.3981 26.6436 84.748 26.6826 85.1387V85.5879C26.6468 85.9753 26.5768 86.3236 26.4727 86.6328C26.3717 86.9421 26.2334 87.2057 26.0576 87.4238C25.8851 87.6419 25.6735 87.8096 25.4229 87.9268C25.1722 88.0407 24.8792 88.0977 24.5439 88.0977C24.2347 88.0977 23.9515 88.0309 23.6943 87.8975C23.4404 87.764 23.2207 87.5768 23.0352 87.3359C22.8529 87.0951 22.7113 86.8118 22.6104 86.4863C22.5127 86.1576 22.4639 85.8011 22.4639 85.417ZM23.3721 85.3145V85.417C23.3721 85.6807 23.3981 85.9281 23.4502 86.1592C23.5055 86.3903 23.5902 86.5938 23.7041 86.7695C23.818 86.9453 23.9629 87.0837 24.1387 87.1846C24.3145 87.2822 24.5244 87.3311 24.7686 87.3311C25.068 87.3311 25.3138 87.2676 25.5059 87.1406C25.7012 87.0137 25.8574 86.846 25.9746 86.6377C26.0918 86.4294 26.1829 86.2031 26.248 85.959V84.7822C26.209 84.6032 26.152 84.4307 26.0771 84.2646C26.0055 84.0954 25.9111 83.9456 25.7939 83.8154C25.68 83.682 25.5384 83.5762 25.3691 83.498C25.2031 83.4199 25.0062 83.3809 24.7783 83.3809C24.5309 83.3809 24.3177 83.4329 24.1387 83.5371C23.9629 83.638 23.818 83.778 23.7041 83.957C23.5902 84.1328 23.5055 84.3379 23.4502 84.5723C23.3981 84.8034 23.3721 85.0508 23.3721 85.3145ZM30.5254 88.0977C30.1576 88.0977 29.8239 88.0358 29.5244 87.9121C29.2282 87.7852 28.9727 87.6077 28.7578 87.3799C28.5462 87.152 28.3835 86.8818 28.2695 86.5693C28.1556 86.2568 28.0986 85.915 28.0986 85.5439V85.3389C28.0986 84.9092 28.1621 84.5267 28.2891 84.1914C28.416 83.8529 28.5885 83.5664 28.8066 83.332C29.0247 83.0977 29.2721 82.9202 29.5488 82.7998C29.8255 82.6794 30.112 82.6191 30.4082 82.6191C30.7858 82.6191 31.1113 82.6842 31.3848 82.8145C31.6615 82.9447 31.8877 83.127 32.0635 83.3613C32.2393 83.5924 32.3695 83.8659 32.4541 84.1816C32.5387 84.4941 32.5811 84.8359 32.5811 85.207V85.6123H28.6357V84.875H31.6777V84.8066C31.6647 84.5723 31.6159 84.3444 31.5312 84.123C31.4499 83.9017 31.3197 83.7194 31.1406 83.5762C30.9616 83.4329 30.7174 83.3613 30.4082 83.3613C30.2031 83.3613 30.0143 83.4053 29.8418 83.4932C29.6693 83.5778 29.5212 83.7048 29.3975 83.874C29.2738 84.0433 29.1777 84.25 29.1094 84.4941C29.041 84.7383 29.0068 85.0199 29.0068 85.3389V85.5439C29.0068 85.7946 29.041 86.0306 29.1094 86.252C29.181 86.4701 29.2835 86.6621 29.417 86.8281C29.5537 86.9941 29.7181 87.1243 29.9102 87.2188C30.1055 87.3132 30.3268 87.3604 30.5742 87.3604C30.8932 87.3604 31.1634 87.2952 31.3848 87.165C31.6061 87.0348 31.7998 86.8607 31.9658 86.6426L32.5127 87.0771C32.3988 87.2497 32.2539 87.4141 32.0781 87.5703C31.9023 87.7266 31.6859 87.8535 31.4287 87.9512C31.1748 88.0488 30.8737 88.0977 30.5254 88.0977ZM36.7119 86.5986C36.7119 86.4684 36.6826 86.348 36.624 86.2373C36.5687 86.1234 36.4531 86.0208 36.2773 85.9297C36.1048 85.8353 35.8444 85.7539 35.4961 85.6855C35.2031 85.6237 34.9378 85.5505 34.7002 85.4658C34.4658 85.3812 34.2656 85.2786 34.0996 85.1582C33.9368 85.0378 33.8115 84.8962 33.7236 84.7334C33.6357 84.5706 33.5918 84.3802 33.5918 84.1621C33.5918 83.9538 33.6374 83.7568 33.7285 83.5713C33.8229 83.3857 33.9548 83.2214 34.124 83.0781C34.2965 82.9349 34.5033 82.8226 34.7441 82.7412C34.985 82.6598 35.2536 82.6191 35.5498 82.6191C35.973 82.6191 36.3343 82.694 36.6338 82.8438C36.9333 82.9935 37.1628 83.1937 37.3223 83.4443C37.4818 83.6917 37.5615 83.9668 37.5615 84.2695H36.6582C36.6582 84.123 36.6143 83.9814 36.5264 83.8447C36.4417 83.7048 36.3164 83.5892 36.1504 83.498C35.9876 83.4069 35.7874 83.3613 35.5498 83.3613C35.2992 83.3613 35.0957 83.4004 34.9395 83.4785C34.7865 83.5534 34.6742 83.6494 34.6025 83.7666C34.5342 83.8838 34.5 84.0075 34.5 84.1377C34.5 84.2354 34.5163 84.3232 34.5488 84.4014C34.5846 84.4762 34.6465 84.5462 34.7344 84.6113C34.8223 84.6732 34.946 84.7318 35.1055 84.7871C35.265 84.8424 35.4684 84.8978 35.7158 84.9531C36.1488 85.0508 36.5052 85.168 36.7852 85.3047C37.0651 85.4414 37.2734 85.609 37.4102 85.8076C37.5469 86.0062 37.6152 86.2471 37.6152 86.5303C37.6152 86.7614 37.5664 86.973 37.4688 87.165C37.3743 87.3571 37.236 87.5231 37.0537 87.6631C36.8747 87.7998 36.6598 87.9072 36.4092 87.9854C36.1618 88.0602 35.8835 88.0977 35.5742 88.0977C35.1087 88.0977 34.7148 88.0146 34.3926 87.8486C34.0703 87.6826 33.8262 87.4678 33.6602 87.2041C33.4941 86.9404 33.4111 86.6621 33.4111 86.3691H34.3193C34.3324 86.6165 34.404 86.8135 34.5342 86.96C34.6644 87.1032 34.8239 87.2057 35.0127 87.2676C35.2015 87.3262 35.3887 87.3555 35.5742 87.3555C35.8216 87.3555 36.0283 87.3229 36.1943 87.2578C36.3636 87.1927 36.4922 87.1032 36.5801 86.9893C36.668 86.8753 36.7119 86.7451 36.7119 86.5986ZM40.9941 88.0977C40.6263 88.0977 40.2926 88.0358 39.9932 87.9121C39.6969 87.7852 39.4414 87.6077 39.2266 87.3799C39.015 87.152 38.8522 86.8818 38.7383 86.5693C38.6243 86.2568 38.5674 85.915 38.5674 85.5439V85.3389C38.5674 84.9092 38.6309 84.5267 38.7578 84.1914C38.8848 83.8529 39.0573 83.5664 39.2754 83.332C39.4935 83.0977 39.7409 82.9202 40.0176 82.7998C40.2943 82.6794 40.5807 82.6191 40.877 82.6191C41.2546 82.6191 41.5801 82.6842 41.8535 82.8145C42.1302 82.9447 42.3564 83.127 42.5322 83.3613C42.708 83.5924 42.8382 83.8659 42.9229 84.1816C43.0075 84.4941 43.0498 84.8359 43.0498 85.207V85.6123H39.1045V84.875H42.1465V84.8066C42.1335 84.5723 42.0846 84.3444 42 84.123C41.9186 83.9017 41.7884 83.7194 41.6094 83.5762C41.4303 83.4329 41.1862 83.3613 40.877 83.3613C40.6719 83.3613 40.4831 83.4053 40.3105 83.4932C40.138 83.5778 39.9899 83.7048 39.8662 83.874C39.7425 84.0433 39.6465 84.25 39.5781 84.4941C39.5098 84.7383 39.4756 85.0199 39.4756 85.3389V85.5439C39.4756 85.7946 39.5098 86.0306 39.5781 86.252C39.6497 86.4701 39.7523 86.6621 39.8857 86.8281C40.0225 86.9941 40.1868 87.1243 40.3789 87.2188C40.5742 87.3132 40.7956 87.3604 41.043 87.3604C41.362 87.3604 41.6322 87.2952 41.8535 87.165C42.0749 87.0348 42.2686 86.8607 42.4346 86.6426L42.9814 87.0771C42.8675 87.2497 42.7227 87.4141 42.5469 87.5703C42.3711 87.7266 42.1546 87.8535 41.8975 87.9512C41.6436 88.0488 41.3424 88.0977 40.9941 88.0977ZM44.1289 82.7168H45.0371V88.6299C45.0371 88.9521 44.985 89.2256 44.8809 89.4502C44.7799 89.6748 44.627 89.8441 44.4219 89.958C44.2201 90.0752 43.9645 90.1338 43.6553 90.1338C43.5739 90.1338 43.4795 90.1257 43.3721 90.1094C43.2614 90.0931 43.1686 90.0736 43.0938 90.0508L43.0986 89.3232C43.1605 89.3363 43.2305 89.346 43.3086 89.3525C43.3867 89.3623 43.4551 89.3672 43.5137 89.3672C43.6471 89.3672 43.7594 89.3428 43.8506 89.2939C43.9417 89.2451 44.0101 89.167 44.0557 89.0596C44.1045 88.9521 44.1289 88.8089 44.1289 88.6299V82.7168ZM44.0361 81.3154C44.0361 81.1689 44.0817 81.0452 44.1729 80.9443C44.264 80.8434 44.3958 80.793 44.5684 80.793C44.7441 80.793 44.8776 80.8434 44.9688 80.9443C45.0599 81.0452 45.1055 81.1689 45.1055 81.3154C45.1055 81.4554 45.0599 81.5758 44.9688 81.6768C44.8776 81.7744 44.7441 81.8232 44.5684 81.8232C44.3958 81.8232 44.264 81.7744 44.1729 81.6768C44.0817 81.5758 44.0361 81.4554 44.0361 81.3154ZM46.2578 85.417V85.3047C46.2578 84.9238 46.3132 84.5706 46.4238 84.2451C46.5345 83.9163 46.694 83.6315 46.9023 83.3906C47.1107 83.1465 47.363 82.9577 47.6592 82.8242C47.9554 82.6875 48.2874 82.6191 48.6553 82.6191C49.0264 82.6191 49.36 82.6875 49.6562 82.8242C49.9557 82.9577 50.2096 83.1465 50.418 83.3906C50.6296 83.6315 50.7907 83.9163 50.9014 84.2451C51.012 84.5706 51.0674 84.9238 51.0674 85.3047V85.417C51.0674 85.7979 51.012 86.151 50.9014 86.4766C50.7907 86.8021 50.6296 87.0869 50.418 87.3311C50.2096 87.5719 49.9574 87.7607 49.6611 87.8975C49.3682 88.0309 49.0361 88.0977 48.665 88.0977C48.2939 88.0977 47.9603 88.0309 47.6641 87.8975C47.3678 87.7607 47.1139 87.5719 46.9023 87.3311C46.694 87.0869 46.5345 86.8021 46.4238 86.4766C46.3132 86.151 46.2578 85.7979 46.2578 85.417ZM47.1611 85.3047V85.417C47.1611 85.6807 47.1921 85.9297 47.2539 86.1641C47.3158 86.3952 47.4085 86.6003 47.5322 86.7793C47.6592 86.9583 47.8171 87.0999 48.0059 87.2041C48.1947 87.305 48.4144 87.3555 48.665 87.3555C48.9124 87.3555 49.1289 87.305 49.3145 87.2041C49.5033 87.0999 49.6595 86.9583 49.7832 86.7793C49.9069 86.6003 49.9997 86.3952 50.0615 86.1641C50.1266 85.9297 50.1592 85.6807 50.1592 85.417V85.3047C50.1592 85.0443 50.1266 84.7985 50.0615 84.5674C49.9997 84.333 49.9053 84.1263 49.7783 83.9473C49.6546 83.765 49.4984 83.6217 49.3096 83.5176C49.124 83.4134 48.9059 83.3613 48.6553 83.3613C48.4079 83.3613 48.1898 83.4134 48.001 83.5176C47.8154 83.6217 47.6592 83.765 47.5322 83.9473C47.4085 84.1263 47.3158 84.333 47.2539 84.5674C47.1921 84.7985 47.1611 85.0443 47.1611 85.3047ZM54.6465 85.1582V85.1094C54.6465 84.3997 54.7262 83.7585 54.8857 83.1855C55.0452 82.6094 55.2487 82.1048 55.4961 81.6719C55.7435 81.2389 56.0039 80.8809 56.2773 80.5977C56.5508 80.3112 56.8031 80.1045 57.0342 79.9775L57.2246 80.5732C57.0326 80.7197 56.8372 80.9215 56.6387 81.1787C56.4434 81.4359 56.2627 81.7516 56.0967 82.126C55.9339 82.5003 55.8021 82.9349 55.7012 83.4297C55.6003 83.9245 55.5498 84.4811 55.5498 85.0996V85.168C55.5498 85.7865 55.6003 86.3447 55.7012 86.8428C55.8021 87.3376 55.9339 87.7738 56.0967 88.1514C56.2627 88.529 56.4434 88.8496 56.6387 89.1133C56.8372 89.3802 57.0326 89.5918 57.2246 89.748L57.0342 90.2949C56.8031 90.168 56.5508 89.9613 56.2773 89.6748C56.0039 89.3916 55.7435 89.0335 55.4961 88.6006C55.2487 88.1709 55.0452 87.668 54.8857 87.0918C54.7262 86.5156 54.6465 85.8711 54.6465 85.1582ZM60.9795 80.8516V88H60.0762V81.9795L58.2549 82.6436V81.8281L60.8379 80.8516H60.9795ZM68.0986 83.8789V84.9629C68.0986 85.5456 68.0465 86.0371 67.9424 86.4375C67.8382 86.8379 67.6885 87.1602 67.4932 87.4043C67.2979 87.6484 67.0618 87.8258 66.7852 87.9365C66.5117 88.0439 66.2025 88.0977 65.8574 88.0977C65.584 88.0977 65.3317 88.0635 65.1006 87.9951C64.8695 87.9268 64.6611 87.8177 64.4756 87.668C64.2933 87.515 64.137 87.3164 64.0068 87.0723C63.8766 86.8281 63.7773 86.5319 63.709 86.1836C63.6406 85.8353 63.6064 85.4284 63.6064 84.9629V83.8789C63.6064 83.2962 63.6585 82.8079 63.7627 82.4141C63.8701 82.0202 64.0215 81.7044 64.2168 81.4668C64.4121 81.2259 64.6465 81.0534 64.9199 80.9492C65.1966 80.8451 65.5059 80.793 65.8477 80.793C66.1243 80.793 66.3783 80.8271 66.6094 80.8955C66.8438 80.9606 67.0521 81.0664 67.2344 81.2129C67.4167 81.3561 67.5713 81.5482 67.6982 81.7891C67.8285 82.0267 67.9277 82.318 67.9961 82.6631C68.0645 83.0081 68.0986 83.4134 68.0986 83.8789ZM67.1904 85.1094V83.7275C67.1904 83.4085 67.1709 83.1286 67.1318 82.8877C67.096 82.6436 67.0423 82.4352 66.9707 82.2627C66.8991 82.0902 66.8079 81.9502 66.6973 81.8428C66.5898 81.7354 66.4645 81.6572 66.3213 81.6084C66.1813 81.5563 66.0234 81.5303 65.8477 81.5303C65.6328 81.5303 65.4424 81.571 65.2764 81.6523C65.1104 81.7305 64.9704 81.8558 64.8564 82.0283C64.7458 82.2008 64.6611 82.4271 64.6025 82.707C64.5439 82.987 64.5146 83.3271 64.5146 83.7275V85.1094C64.5146 85.4284 64.5326 85.71 64.5684 85.9541C64.6074 86.1982 64.6644 86.4098 64.7393 86.5889C64.8141 86.7646 64.9053 86.9095 65.0127 87.0234C65.1201 87.1374 65.2438 87.222 65.3838 87.2773C65.527 87.3294 65.6849 87.3555 65.8574 87.3555C66.0788 87.3555 66.2725 87.3132 66.4385 87.2285C66.6045 87.1439 66.7428 87.012 66.8535 86.833C66.9674 86.6507 67.0521 86.418 67.1074 86.1348C67.1628 85.8483 67.1904 85.5065 67.1904 85.1094ZM69.1826 82.6338V82.2578C69.1826 81.9876 69.2412 81.7419 69.3584 81.5205C69.4756 81.2992 69.6432 81.1217 69.8613 80.9883C70.0794 80.8548 70.3382 80.7881 70.6377 80.7881C70.9437 80.7881 71.2041 80.8548 71.4189 80.9883C71.637 81.1217 71.8047 81.2992 71.9219 81.5205C72.0391 81.7419 72.0977 81.9876 72.0977 82.2578V82.6338C72.0977 82.8975 72.0391 83.14 71.9219 83.3613C71.8079 83.5827 71.6419 83.7601 71.4238 83.8936C71.209 84.027 70.9502 84.0938 70.6475 84.0938C70.3447 84.0938 70.0827 84.027 69.8613 83.8936C69.6432 83.7601 69.4756 83.5827 69.3584 83.3613C69.2412 83.14 69.1826 82.8975 69.1826 82.6338ZM69.8613 82.2578V82.6338C69.8613 82.7835 69.889 82.9251 69.9443 83.0586C70.0029 83.1921 70.0908 83.3011 70.208 83.3857C70.3252 83.4671 70.4717 83.5078 70.6475 83.5078C70.8232 83.5078 70.9681 83.4671 71.082 83.3857C71.196 83.3011 71.2806 83.1921 71.3359 83.0586C71.3913 82.9251 71.4189 82.7835 71.4189 82.6338V82.2578C71.4189 82.1048 71.3896 81.9616 71.3311 81.8281C71.2757 81.6914 71.1895 81.5824 71.0723 81.501C70.9583 81.4163 70.8135 81.374 70.6377 81.374C70.4652 81.374 70.3203 81.4163 70.2031 81.501C70.0892 81.5824 70.0029 81.6914 69.9443 81.8281C69.889 81.9616 69.8613 82.1048 69.8613 82.2578ZM72.6445 86.6377V86.2568C72.6445 85.9899 72.7031 85.7458 72.8203 85.5244C72.9375 85.3031 73.1051 85.1257 73.3232 84.9922C73.5413 84.8587 73.8001 84.792 74.0996 84.792C74.4056 84.792 74.666 84.8587 74.8809 84.9922C75.099 85.1257 75.2666 85.3031 75.3838 85.5244C75.501 85.7458 75.5596 85.9899 75.5596 86.2568V86.6377C75.5596 86.9046 75.501 87.1488 75.3838 87.3701C75.2699 87.5915 75.1038 87.7689 74.8857 87.9023C74.6709 88.0358 74.4121 88.1025 74.1094 88.1025C73.8066 88.1025 73.5462 88.0358 73.3281 87.9023C73.11 87.7689 72.9408 87.5915 72.8203 87.3701C72.7031 87.1488 72.6445 86.9046 72.6445 86.6377ZM73.3232 86.2568V86.6377C73.3232 86.7874 73.3509 86.9307 73.4062 87.0674C73.4648 87.2008 73.5527 87.3099 73.6699 87.3945C73.7871 87.4759 73.9336 87.5166 74.1094 87.5166C74.2852 87.5166 74.43 87.4759 74.5439 87.3945C74.6611 87.3099 74.7474 87.2008 74.8027 87.0674C74.8581 86.9339 74.8857 86.7907 74.8857 86.6377V86.2568C74.8857 86.1038 74.8564 85.9606 74.7979 85.8271C74.7425 85.6937 74.6562 85.5863 74.5391 85.5049C74.4251 85.4202 74.2786 85.3779 74.0996 85.3779C73.9271 85.3779 73.7822 85.4202 73.665 85.5049C73.5511 85.5863 73.4648 85.6937 73.4062 85.8271C73.3509 85.9606 73.3232 86.1038 73.3232 86.2568ZM74.3242 81.9014L70.8525 87.458L70.3447 87.1357L73.8164 81.5791L74.3242 81.9014ZM78.7627 85.1094V85.1582C78.7627 85.8711 78.6829 86.5156 78.5234 87.0918C78.3639 87.668 78.1605 88.1709 77.9131 88.6006C77.6657 89.0335 77.4053 89.3916 77.1318 89.6748C76.8584 89.9613 76.6061 90.168 76.375 90.2949L76.1846 89.748C76.3766 89.6016 76.5703 89.3965 76.7656 89.1328C76.9609 88.8724 77.1416 88.5501 77.3076 88.166C77.4736 87.7852 77.6071 87.3457 77.708 86.8477C77.8089 86.3464 77.8594 85.7865 77.8594 85.168V85.0996C77.8594 84.4811 77.8057 83.9229 77.6982 83.4248C77.5908 82.9235 77.4508 82.4824 77.2783 82.1016C77.109 81.7207 76.9268 81.4001 76.7314 81.1396C76.5394 80.876 76.3571 80.6725 76.1846 80.5293L76.375 79.9775C76.6061 80.1045 76.8584 80.3112 77.1318 80.5977C77.4053 80.8809 77.6657 81.2389 77.9131 81.6719C78.1605 82.1048 78.3639 82.6094 78.5234 83.1855C78.6829 83.7585 78.7627 84.3997 78.7627 85.1094Z" fill="white"/>
<path d="M135.803 8.35547C136.018 8.35547 136.216 8.31152 136.398 8.22363C136.581 8.13574 136.73 8.0153 136.848 7.8623C136.965 7.70605 137.032 7.52865 137.048 7.33008H137.907C137.891 7.64258 137.785 7.93392 137.59 8.2041C137.398 8.47103 137.146 8.6875 136.833 8.85352C136.521 9.01628 136.177 9.09766 135.803 9.09766C135.406 9.09766 135.059 9.02767 134.763 8.8877C134.47 8.74772 134.226 8.55566 134.03 8.31152C133.838 8.06738 133.693 7.78743 133.596 7.47168C133.501 7.15267 133.454 6.81576 133.454 6.46094V6.25586C133.454 5.90104 133.501 5.56576 133.596 5.25C133.693 4.93099 133.838 4.64941 134.03 4.40527C134.226 4.16113 134.47 3.96908 134.763 3.8291C135.059 3.68913 135.406 3.61914 135.803 3.61914C136.216 3.61914 136.577 3.70378 136.887 3.87305C137.196 4.03906 137.438 4.26693 137.614 4.55664C137.793 4.8431 137.891 5.16862 137.907 5.5332H137.048C137.032 5.3151 136.97 5.11816 136.862 4.94238C136.758 4.7666 136.615 4.62663 136.433 4.52246C136.254 4.41504 136.044 4.36133 135.803 4.36133C135.526 4.36133 135.293 4.41667 135.104 4.52734C134.919 4.63477 134.771 4.78125 134.66 4.9668C134.553 5.14909 134.475 5.35254 134.426 5.57715C134.38 5.7985 134.357 6.02474 134.357 6.25586V6.46094C134.357 6.69206 134.38 6.91992 134.426 7.14453C134.471 7.36914 134.548 7.57259 134.655 7.75488C134.766 7.93717 134.914 8.08366 135.1 8.19434C135.288 8.30176 135.523 8.35547 135.803 8.35547ZM138.684 6.41699V6.30469C138.684 5.92383 138.739 5.57064 138.85 5.24512C138.96 4.91634 139.12 4.63151 139.328 4.39062C139.536 4.14648 139.789 3.95768 140.085 3.82422C140.381 3.6875 140.713 3.61914 141.081 3.61914C141.452 3.61914 141.786 3.6875 142.082 3.82422C142.382 3.95768 142.635 4.14648 142.844 4.39062C143.055 4.63151 143.216 4.91634 143.327 5.24512C143.438 5.57064 143.493 5.92383 143.493 6.30469V6.41699C143.493 6.79785 143.438 7.15104 143.327 7.47656C143.216 7.80208 143.055 8.08691 142.844 8.33105C142.635 8.57194 142.383 8.76074 142.087 8.89746C141.794 9.03092 141.462 9.09766 141.091 9.09766C140.72 9.09766 140.386 9.03092 140.09 8.89746C139.794 8.76074 139.54 8.57194 139.328 8.33105C139.12 8.08691 138.96 7.80208 138.85 7.47656C138.739 7.15104 138.684 6.79785 138.684 6.41699ZM139.587 6.30469V6.41699C139.587 6.68066 139.618 6.92969 139.68 7.16406C139.742 7.39518 139.834 7.60026 139.958 7.7793C140.085 7.95833 140.243 8.09993 140.432 8.2041C140.62 8.30501 140.84 8.35547 141.091 8.35547C141.338 8.35547 141.555 8.30501 141.74 8.2041C141.929 8.09993 142.085 7.95833 142.209 7.7793C142.333 7.60026 142.425 7.39518 142.487 7.16406C142.552 6.92969 142.585 6.68066 142.585 6.41699V6.30469C142.585 6.04427 142.552 5.7985 142.487 5.56738C142.425 5.33301 142.331 5.1263 142.204 4.94727C142.08 4.76497 141.924 4.62174 141.735 4.51758C141.55 4.41341 141.332 4.36133 141.081 4.36133C140.834 4.36133 140.616 4.41341 140.427 4.51758C140.241 4.62174 140.085 4.76497 139.958 4.94727C139.834 5.1263 139.742 5.33301 139.68 5.56738C139.618 5.7985 139.587 6.04427 139.587 6.30469ZM145.529 4.84473V9H144.626V3.7168H145.48L145.529 4.84473ZM145.314 6.1582L144.938 6.14355C144.942 5.78223 144.995 5.44857 145.1 5.14258C145.204 4.83333 145.35 4.56478 145.539 4.33691C145.728 4.10905 145.952 3.93327 146.213 3.80957C146.477 3.68262 146.768 3.61914 147.087 3.61914C147.347 3.61914 147.582 3.65495 147.79 3.72656C147.998 3.79492 148.176 3.9056 148.322 4.05859C148.472 4.21159 148.586 4.41016 148.664 4.6543C148.742 4.89518 148.781 5.18978 148.781 5.53809V9H147.873V5.52832C147.873 5.25163 147.832 5.03027 147.751 4.86426C147.67 4.69499 147.551 4.57292 147.395 4.49805C147.238 4.41992 147.046 4.38086 146.818 4.38086C146.594 4.38086 146.389 4.42806 146.203 4.52246C146.021 4.61686 145.863 4.74707 145.729 4.91309C145.599 5.0791 145.497 5.26953 145.422 5.48438C145.35 5.69596 145.314 5.92057 145.314 6.1582ZM151.501 9H150.598V3.16016C150.598 2.7793 150.666 2.45866 150.803 2.19824C150.943 1.93457 151.143 1.736 151.403 1.60254C151.664 1.46582 151.973 1.39746 152.331 1.39746C152.435 1.39746 152.539 1.40397 152.644 1.41699C152.751 1.43001 152.855 1.44954 152.956 1.47559L152.907 2.21289C152.839 2.19661 152.761 2.18522 152.673 2.17871C152.588 2.1722 152.504 2.16895 152.419 2.16895C152.227 2.16895 152.061 2.20801 151.921 2.28613C151.784 2.361 151.68 2.47168 151.608 2.61816C151.537 2.76465 151.501 2.94531 151.501 3.16016V9ZM152.624 3.7168V4.41016H149.763V3.7168H152.624ZM156.862 7.7793V3.7168H157.771V9H156.906L156.862 7.7793ZM157.033 6.66602L157.409 6.65625C157.409 7.00781 157.372 7.33333 157.297 7.63281C157.225 7.92904 157.108 8.1862 156.945 8.4043C156.783 8.6224 156.569 8.79329 156.306 8.91699C156.042 9.03743 155.721 9.09766 155.344 9.09766C155.087 9.09766 154.851 9.06022 154.636 8.98535C154.424 8.91048 154.242 8.79492 154.089 8.63867C153.936 8.48242 153.817 8.27897 153.732 8.02832C153.651 7.77767 153.61 7.47656 153.61 7.125V3.7168H154.514V7.13477C154.514 7.3724 154.54 7.56934 154.592 7.72559C154.647 7.87858 154.72 8.00065 154.812 8.0918C154.906 8.17969 155.01 8.24154 155.124 8.27734C155.241 8.31315 155.362 8.33105 155.485 8.33105C155.869 8.33105 156.174 8.25781 156.398 8.11133C156.623 7.96159 156.784 7.76139 156.882 7.51074C156.983 7.25684 157.033 6.97526 157.033 6.66602ZM162.224 7.59863C162.224 7.46842 162.194 7.34798 162.136 7.2373C162.08 7.12337 161.965 7.02083 161.789 6.92969C161.617 6.83529 161.356 6.75391 161.008 6.68555C160.715 6.6237 160.45 6.55046 160.212 6.46582C159.978 6.38118 159.777 6.27865 159.611 6.1582C159.449 6.03776 159.323 5.89616 159.235 5.7334C159.147 5.57064 159.104 5.38021 159.104 5.16211C159.104 4.95378 159.149 4.75684 159.24 4.57129C159.335 4.38574 159.466 4.22135 159.636 4.07812C159.808 3.9349 160.015 3.82259 160.256 3.74121C160.497 3.65983 160.765 3.61914 161.062 3.61914C161.485 3.61914 161.846 3.69401 162.146 3.84375C162.445 3.99349 162.674 4.19368 162.834 4.44434C162.993 4.69173 163.073 4.9668 163.073 5.26953H162.17C162.17 5.12305 162.126 4.98145 162.038 4.84473C161.953 4.70475 161.828 4.58919 161.662 4.49805C161.499 4.4069 161.299 4.36133 161.062 4.36133C160.811 4.36133 160.607 4.40039 160.451 4.47852C160.298 4.55339 160.186 4.64941 160.114 4.7666C160.046 4.88379 160.012 5.00749 160.012 5.1377C160.012 5.23535 160.028 5.32324 160.061 5.40137C160.096 5.47624 160.158 5.54622 160.246 5.61133C160.334 5.67318 160.458 5.73177 160.617 5.78711C160.777 5.84245 160.98 5.89779 161.228 5.95312C161.66 6.05078 162.017 6.16797 162.297 6.30469C162.577 6.44141 162.785 6.60905 162.922 6.80762C163.059 7.00618 163.127 7.24707 163.127 7.53027C163.127 7.76139 163.078 7.97298 162.98 8.16504C162.886 8.3571 162.748 8.52311 162.565 8.66309C162.386 8.7998 162.172 8.90723 161.921 8.98535C161.674 9.06022 161.395 9.09766 161.086 9.09766C160.62 9.09766 160.227 9.01465 159.904 8.84863C159.582 8.68262 159.338 8.46777 159.172 8.2041C159.006 7.94043 158.923 7.66211 158.923 7.36914H159.831C159.844 7.61654 159.916 7.81348 160.046 7.95996C160.176 8.10319 160.336 8.20573 160.524 8.26758C160.713 8.32617 160.9 8.35547 161.086 8.35547C161.333 8.35547 161.54 8.32292 161.706 8.25781C161.875 8.19271 162.004 8.10319 162.092 7.98926C162.18 7.87533 162.224 7.74512 162.224 7.59863ZM167.429 8.09668V5.37695C167.429 5.16862 167.386 4.98796 167.302 4.83496C167.22 4.67871 167.097 4.55827 166.931 4.47363C166.765 4.389 166.56 4.34668 166.315 4.34668C166.088 4.34668 165.887 4.38574 165.715 4.46387C165.546 4.54199 165.412 4.64453 165.314 4.77148C165.22 4.89844 165.173 5.03516 165.173 5.18164H164.27C164.27 4.99284 164.318 4.80566 164.416 4.62012C164.514 4.43457 164.654 4.26693 164.836 4.11719C165.021 3.96419 165.243 3.84375 165.5 3.75586C165.76 3.66471 166.05 3.61914 166.369 3.61914C166.753 3.61914 167.092 3.68424 167.385 3.81445C167.681 3.94466 167.912 4.1416 168.078 4.40527C168.247 4.66569 168.332 4.99284 168.332 5.38672V7.84766C168.332 8.02344 168.347 8.21061 168.376 8.40918C168.409 8.60775 168.456 8.77865 168.518 8.92188V9H167.575C167.53 8.89583 167.494 8.75749 167.468 8.58496C167.442 8.40918 167.429 8.24642 167.429 8.09668ZM167.585 5.79688L167.595 6.43164H166.682C166.424 6.43164 166.195 6.4528 165.993 6.49512C165.791 6.53418 165.622 6.5944 165.485 6.67578C165.349 6.75716 165.244 6.8597 165.173 6.9834C165.101 7.10384 165.065 7.24544 165.065 7.4082C165.065 7.57422 165.103 7.72559 165.178 7.8623C165.253 7.99902 165.365 8.10807 165.515 8.18945C165.668 8.26758 165.855 8.30664 166.076 8.30664C166.353 8.30664 166.597 8.24805 166.809 8.13086C167.02 8.01367 167.188 7.87044 167.312 7.70117C167.438 7.5319 167.507 7.36751 167.517 7.20801L167.902 7.64258C167.88 7.7793 167.818 7.93066 167.717 8.09668C167.616 8.2627 167.481 8.4222 167.312 8.5752C167.146 8.72493 166.947 8.85026 166.716 8.95117C166.488 9.04883 166.231 9.09766 165.944 9.09766C165.586 9.09766 165.272 9.02767 165.002 8.8877C164.735 8.74772 164.527 8.56055 164.377 8.32617C164.23 8.08854 164.157 7.82324 164.157 7.53027C164.157 7.24707 164.213 6.99805 164.323 6.7832C164.434 6.5651 164.593 6.38444 164.802 6.24121C165.01 6.09473 165.261 5.98405 165.554 5.90918C165.847 5.83431 166.174 5.79688 166.535 5.79688H167.585ZM167.59 1.59766L168.2 1.65137C168.2 1.889 168.153 2.09733 168.059 2.27637C167.964 2.4554 167.837 2.59375 167.678 2.69141C167.521 2.78906 167.344 2.83789 167.146 2.83789C166.979 2.83789 166.843 2.8151 166.735 2.76953C166.628 2.7207 166.532 2.66699 166.447 2.6084C166.363 2.54655 166.273 2.49284 166.179 2.44727C166.088 2.39844 165.974 2.37402 165.837 2.37402C165.7 2.37402 165.585 2.42611 165.49 2.53027C165.399 2.63444 165.354 2.76302 165.354 2.91602L164.743 2.88672C164.743 2.64909 164.789 2.44076 164.88 2.26172C164.974 2.07943 165.101 1.93783 165.261 1.83691C165.42 1.73275 165.598 1.68066 165.793 1.68066C165.933 1.68066 166.055 1.70508 166.159 1.75391C166.267 1.79948 166.368 1.85319 166.462 1.91504C166.556 1.97363 166.654 2.02734 166.755 2.07617C166.856 2.12174 166.971 2.14453 167.102 2.14453C167.238 2.14453 167.354 2.09245 167.448 1.98828C167.543 1.88086 167.59 1.75065 167.59 1.59766ZM169.514 6.41699V6.30469C169.514 5.92383 169.569 5.57064 169.68 5.24512C169.79 4.91634 169.95 4.63151 170.158 4.39062C170.367 4.14648 170.619 3.95768 170.915 3.82422C171.211 3.6875 171.543 3.61914 171.911 3.61914C172.282 3.61914 172.616 3.6875 172.912 3.82422C173.212 3.95768 173.465 4.14648 173.674 4.39062C173.885 4.63151 174.047 4.91634 174.157 5.24512C174.268 5.57064 174.323 5.92383 174.323 6.30469V6.41699C174.323 6.79785 174.268 7.15104 174.157 7.47656C174.047 7.80208 173.885 8.08691 173.674 8.33105C173.465 8.57194 173.213 8.76074 172.917 8.89746C172.624 9.03092 172.292 9.09766 171.921 9.09766C171.55 9.09766 171.216 9.03092 170.92 8.89746C170.624 8.76074 170.37 8.57194 170.158 8.33105C169.95 8.08691 169.79 7.80208 169.68 7.47656C169.569 7.15104 169.514 6.79785 169.514 6.41699ZM170.417 6.30469V6.41699C170.417 6.68066 170.448 6.92969 170.51 7.16406C170.572 7.39518 170.664 7.60026 170.788 7.7793C170.915 7.95833 171.073 8.09993 171.262 8.2041C171.451 8.30501 171.67 8.35547 171.921 8.35547C172.168 8.35547 172.385 8.30501 172.57 8.2041C172.759 8.09993 172.915 7.95833 173.039 7.7793C173.163 7.60026 173.256 7.39518 173.317 7.16406C173.382 6.92969 173.415 6.68066 173.415 6.41699V6.30469C173.415 6.04427 173.382 5.7985 173.317 5.56738C173.256 5.33301 173.161 5.1263 173.034 4.94727C172.91 4.76497 172.754 4.62174 172.565 4.51758C172.38 4.41341 172.162 4.36133 171.911 4.36133C171.664 4.36133 171.446 4.41341 171.257 4.51758C171.071 4.62174 170.915 4.76497 170.788 4.94727C170.664 5.1263 170.572 5.33301 170.51 5.56738C170.448 5.7985 170.417 6.04427 170.417 6.30469ZM177.902 6.1582V6.10938C177.902 5.39974 177.982 4.75846 178.142 4.18555C178.301 3.60938 178.505 3.10482 178.752 2.67188C178.999 2.23893 179.26 1.88086 179.533 1.59766C179.807 1.3112 180.059 1.10449 180.29 0.977539L180.48 1.57324C180.288 1.71973 180.093 1.92155 179.895 2.17871C179.699 2.43587 179.519 2.75163 179.353 3.12598C179.19 3.50033 179.058 3.9349 178.957 4.42969C178.856 4.92448 178.806 5.48112 178.806 6.09961V6.16797C178.806 6.78646 178.856 7.34473 178.957 7.84277C179.058 8.33757 179.19 8.77376 179.353 9.15137C179.519 9.52897 179.699 9.84961 179.895 10.1133C180.093 10.3802 180.288 10.5918 180.48 10.748L180.29 11.2949C180.059 11.168 179.807 10.9613 179.533 10.6748C179.26 10.3916 178.999 10.0335 178.752 9.60059C178.505 9.1709 178.301 8.66797 178.142 8.0918C177.982 7.51562 177.902 6.87109 177.902 6.1582ZM184.235 1.85156V9H183.332V2.97949L181.511 3.64355V2.82812L184.094 1.85156H184.235ZM191.354 4.87891V5.96289C191.354 6.54557 191.302 7.03711 191.198 7.4375C191.094 7.83789 190.944 8.16016 190.749 8.4043C190.554 8.64844 190.318 8.82585 190.041 8.93652C189.768 9.04395 189.458 9.09766 189.113 9.09766C188.84 9.09766 188.588 9.06348 188.356 8.99512C188.125 8.92676 187.917 8.81771 187.731 8.66797C187.549 8.51497 187.393 8.31641 187.263 8.07227C187.132 7.82812 187.033 7.5319 186.965 7.18359C186.896 6.83529 186.862 6.42839 186.862 5.96289V4.87891C186.862 4.29622 186.914 3.80794 187.019 3.41406C187.126 3.02018 187.277 2.70443 187.473 2.4668C187.668 2.22591 187.902 2.05339 188.176 1.94922C188.452 1.84505 188.762 1.79297 189.104 1.79297C189.38 1.79297 189.634 1.82715 189.865 1.89551C190.1 1.96061 190.308 2.06641 190.49 2.21289C190.673 2.35612 190.827 2.54818 190.954 2.78906C191.084 3.02669 191.184 3.31803 191.252 3.66309C191.32 4.00814 191.354 4.41341 191.354 4.87891ZM190.446 6.10938V4.72754C190.446 4.40853 190.427 4.12858 190.388 3.8877C190.352 3.64355 190.298 3.43522 190.227 3.2627C190.155 3.09017 190.064 2.9502 189.953 2.84277C189.846 2.73535 189.72 2.65723 189.577 2.6084C189.437 2.55632 189.279 2.53027 189.104 2.53027C188.889 2.53027 188.698 2.57096 188.532 2.65234C188.366 2.73047 188.226 2.85579 188.112 3.02832C188.002 3.20085 187.917 3.42708 187.858 3.70703C187.8 3.98698 187.771 4.32715 187.771 4.72754V6.10938C187.771 6.42839 187.788 6.70996 187.824 6.9541C187.863 7.19824 187.92 7.40983 187.995 7.58887C188.07 7.76465 188.161 7.90951 188.269 8.02344C188.376 8.13737 188.5 8.22201 188.64 8.27734C188.783 8.32943 188.941 8.35547 189.113 8.35547C189.335 8.35547 189.528 8.31315 189.694 8.22852C189.86 8.14388 189.999 8.01204 190.109 7.83301C190.223 7.65072 190.308 7.41797 190.363 7.13477C190.419 6.84831 190.446 6.50651 190.446 6.10938ZM192.438 3.63379V3.25781C192.438 2.98763 192.497 2.74186 192.614 2.52051C192.731 2.29915 192.899 2.12174 193.117 1.98828C193.335 1.85482 193.594 1.78809 193.894 1.78809C194.2 1.78809 194.46 1.85482 194.675 1.98828C194.893 2.12174 195.061 2.29915 195.178 2.52051C195.295 2.74186 195.354 2.98763 195.354 3.25781V3.63379C195.354 3.89746 195.295 4.13997 195.178 4.36133C195.064 4.58268 194.898 4.76009 194.68 4.89355C194.465 5.02702 194.206 5.09375 193.903 5.09375C193.601 5.09375 193.339 5.02702 193.117 4.89355C192.899 4.76009 192.731 4.58268 192.614 4.36133C192.497 4.13997 192.438 3.89746 192.438 3.63379ZM193.117 3.25781V3.63379C193.117 3.78353 193.145 3.92513 193.2 4.05859C193.259 4.19206 193.347 4.30111 193.464 4.38574C193.581 4.46712 193.728 4.50781 193.903 4.50781C194.079 4.50781 194.224 4.46712 194.338 4.38574C194.452 4.30111 194.536 4.19206 194.592 4.05859C194.647 3.92513 194.675 3.78353 194.675 3.63379V3.25781C194.675 3.10482 194.646 2.96159 194.587 2.82812C194.532 2.69141 194.445 2.58236 194.328 2.50098C194.214 2.41634 194.069 2.37402 193.894 2.37402C193.721 2.37402 193.576 2.41634 193.459 2.50098C193.345 2.58236 193.259 2.69141 193.2 2.82812C193.145 2.96159 193.117 3.10482 193.117 3.25781ZM195.9 7.6377V7.25684C195.9 6.98991 195.959 6.74577 196.076 6.52441C196.193 6.30306 196.361 6.12565 196.579 5.99219C196.797 5.85872 197.056 5.79199 197.355 5.79199C197.661 5.79199 197.922 5.85872 198.137 5.99219C198.355 6.12565 198.522 6.30306 198.64 6.52441C198.757 6.74577 198.815 6.98991 198.815 7.25684V7.6377C198.815 7.90462 198.757 8.14876 198.64 8.37012C198.526 8.59147 198.36 8.76888 198.142 8.90234C197.927 9.03581 197.668 9.10254 197.365 9.10254C197.062 9.10254 196.802 9.03581 196.584 8.90234C196.366 8.76888 196.197 8.59147 196.076 8.37012C195.959 8.14876 195.9 7.90462 195.9 7.6377ZM196.579 7.25684V7.6377C196.579 7.78743 196.607 7.93066 196.662 8.06738C196.721 8.20085 196.809 8.3099 196.926 8.39453C197.043 8.47591 197.189 8.5166 197.365 8.5166C197.541 8.5166 197.686 8.47591 197.8 8.39453C197.917 8.3099 198.003 8.20085 198.059 8.06738C198.114 7.93392 198.142 7.79069 198.142 7.6377V7.25684C198.142 7.10384 198.112 6.96061 198.054 6.82715C197.998 6.69368 197.912 6.58626 197.795 6.50488C197.681 6.42025 197.535 6.37793 197.355 6.37793C197.183 6.37793 197.038 6.42025 196.921 6.50488C196.807 6.58626 196.721 6.69368 196.662 6.82715C196.607 6.96061 196.579 7.10384 196.579 7.25684ZM197.58 2.90137L194.108 8.45801L193.601 8.13574L197.072 2.5791L197.58 2.90137ZM202.019 6.10938V6.1582C202.019 6.87109 201.939 7.51562 201.779 8.0918C201.62 8.66797 201.416 9.1709 201.169 9.60059C200.922 10.0335 200.661 10.3916 200.388 10.6748C200.114 10.9613 199.862 11.168 199.631 11.2949L199.44 10.748C199.632 10.6016 199.826 10.3965 200.021 10.1328C200.217 9.8724 200.397 9.55013 200.563 9.16602C200.729 8.78516 200.863 8.3457 200.964 7.84766C201.065 7.34635 201.115 6.78646 201.115 6.16797V6.09961C201.115 5.48112 201.062 4.92285 200.954 4.4248C200.847 3.9235 200.707 3.48242 200.534 3.10156C200.365 2.7207 200.183 2.40007 199.987 2.13965C199.795 1.87598 199.613 1.67253 199.44 1.5293L199.631 0.977539C199.862 1.10449 200.114 1.3112 200.388 1.59766C200.661 1.88086 200.922 2.23893 201.169 2.67188C201.416 3.10482 201.62 3.60938 201.779 4.18555C201.939 4.75846 202.019 5.39974 202.019 6.10938Z" fill="white"/>
</svg>
